<mxfile host="app.diagrams.net" modified="2023-11-08T12:17:28.677Z" agent="Mozilla/5.0 (Windows NT 10.0; Win64; x64) AppleWebKit/537.36 (KHTML, like Gecko) Chrome/118.0.0.0 Safari/537.36" etag="RCbuFQXG2r-ZitZbaIBG" version="22.0.8" type="github">
  <diagram name="第 1 页" id="Ishg8d2THZdRRXNQzCHS">
    <mxGraphModel dx="4140" dy="1398" grid="1" gridSize="10" guides="1" tooltips="1" connect="1" arrows="1" fold="1" page="1" pageScale="1" pageWidth="1920" pageHeight="1200" math="0" shadow="0">
      <root>
        <mxCell id="0" />
        <mxCell id="1" parent="0" />
        <mxCell id="Gz7mONX1Y6kYklGqSFqY-1" value="" style="shape=image;verticalLabelPosition=bottom;labelBackgroundColor=default;verticalAlign=top;aspect=fixed;imageAspect=0;image=data:image/png,iVBORw0KGgoAAAANSUhEUgAAB4AAAAP7CAIAAAA1agSAAAAABGdBTUEAALGPC/xhBQAAAAlwSFlzAAAOxAAADsQBlSsOGwAA/7JJREFUeF7s/etzHVW+9wnWu/4POmL6lYMX/Q8oJjr8AsLRJ4KYM6eZ6AhcT0QRc2Ls50y4a2oaR1Q/uGvAVYXb5wKup0Alqnh8VMZl8/hCAQbLx1YZjC9AySAEtpEN+C5hg4xckm0sIw5ymdb8Vv5W5l658rqv2pfPJ74hZ65cmbn30t65V368tPYPbty6QwghhBBCCCGEEEIIIYQ0PAhoQgghhBBCCCGEEEIIIU3JDxY7EHncdgkAoDm4F0pCCCGEEEII6eLYuyAAgOaAgAYASMHtjRFCCCGEEEJIF8feBQEANAcENABACm5vjBBCCCGEEEK6OPYuCACgOSCgAQBScHtjhBBCCCGEENLFsXdBAADNAQENAJCC2xsjhBBCCCGEkC6OvQsCAGgOCGgAgBTc3hghhBBCCCGEdHHsXRAAQHNAQAMApOD2xgghhBBCCCGki2PvggAAmgMCGgAgBbc3RgghhBBCCCFdHHsXBADQHBDQAAApuL0xQgghhBBCCOni2LsgAIDmgIAGAEjB7Y0RQgghhBBCSBfH3gUBADQHBDQAQApub4wQQgghhBBCujj2LggAoDkgoAEAUnB7Y4QQQgghhBDSxbF3QXVz+/btK7lcvXrVVu1ubn6wec2azWO37WoKtz8YzK8A0FUgoAEAUnB7Y4QQQgghhBDSxbF3QfVx9erVmzdvzuUiFaanp+0OqQTqthSDH9yuprI9fjO4PGzPUszmD24Gu5hHPnw5c99gUwaXD+RuliNLy9gVwZjuvPoALQEBDQCQgtsbI4QQQgghhJAujr0Lqo8rV65YzZyLVLM7lOXycORtC5G6Mf1aFd98fn6qNb4pLpFvfzDoPMGip1CdgE4R3KUbE6BxIKABAFJwe2OEEEIIIYQQ0sWxd0H1MTU19eWXX14LmJyc1AUlWpUKUs3uUI7bY5tLO+U6R/veOjn8b7v3n/7LPbteJebsmRxwHtblYV01T808Xtewe08h95gOZjYP3zXrkYOh4vZoRl7XIegBagcBDQCQgtsbI4QQQgghhJAujr0Lqo/Z2Vm7FF8WcjalEpjZPCJFW1gzoPyY328uvPPGjpff/eRWDRI6U3+bB1kR0JeHba3IOxtNbHeUxSJBXDAC2jlCoJs3Bw0ke6jLztsVoHkgoAEAUnB7Y4QQQgghhBDSxbF3QfXRYAHtDhmOEfO8Ts3I5xqyyktw7+vP3t39x0PHr9y1BWXJHa0cPR1n3urwSwiNgNYKjk8Pn2KwsQBvjLNBnrLsGT9IZpMCNB0ENAB0Kd/bf2vD7Y3VnNmbc4QQQgghhBDS1Hi3ITXE3gXVx/T09GzI559/bpcC3NWCLyEM8AT05QORqxWaLaAN92ZO/9sf/+3fTtyocTaOQuRBVZ6g6mFnbLIUZI+Dzh0BHRxK9g2/5DDuo4OlSksCtA4ENAB0Elf/9Nhjzwxf/s6uZnH38vCzjz02/LldrQG3N1ZD3O7gzA1CCCGEEEIIaXzc+w7vlqSq2Lug+pht2gjo0gI6Th0CWu4pPx95Y8eeE9fsagHmYZTAPmzPLxtZvHn4wOboOVaeb+I5ZWOOLQ9j84Fh+yWEOtTaacYAOxGHXQNoFQhoAGgKOb2K7du3P/7442W6HSnMXx5+ek2+gw7s85qnD1yetwW14PbGqk3UBZQe4V9mb//lhs312a8JIYQQQgghpM5Etxhyu+FqaO/GpHzsXVB95FjmnE2pJAW0M+a3+SOg7934cPjfdg9X8W2E3gNOI3rYqoBDZC9jmYcvh2OWA3HsPN0YwXMZc0dPO+iO8jN79DTAUoGABoCmIJ+k+/fvtytxfv3rX8vWJjnohthnwe2NVZtAPZuOoD0WAAAAAABA0whGQ99ecgE9PT09F/Lll1/apQB3tfopODyD3NwR0PduXXjz5aE970xW1SjRwzALCSLvHPPK5vGaB2ZmyYj2PfCBVMuYJaPyRPwh0mqcLw+bQldAJ5okIMtuAzQRBLRl7vTQjhd3SIZOFzujudMHD56eXbBrVWDPsm+84BwLs+c+HBv7cGzili0A6Dj2798vn2xJBz07O6sCWmi4g26UfRbc3lhV0aEHZuzzDf7XGQAAAAAAmo7cekTjoL3bk5KxB6qPJgnoSOmGWraJI6AXrpzY+8d/e/OzuWqnfo5O5z7ygNjAZ/uwXWscrIRPx9RJn/3ZjG52NwU1BT3XzduVXTwB7R1NR0nbFYDWgYC2zL6xri9g3RuFOuzcjh+Zmg8+M7KweO7ln/z4x/l5ZiQ6oj3Lzw4WnOP6QX00W0/bAoBOJOmgjx8/HnxIVmigg26gfRbc3lhVCeyz/jXc1/ZYAAAAAAAATUNuPQIHXfsgaHug+nDv7Ly7vJxN+QT2WfWxWlt/dHBDBfTVY3uPHL9y165VQ0xAJ4gJ6LgUNvXDVTMUOiD+HEMrnbDJei5fJyOgoS1BQFsiAb3pnaLRyR8+/6CpuHboqqyNbw32ysPRzY6Anh15xlPVL5+ztRDQ0CWcP38+ctDSyYgGPns8/vjjdodqcRx0Y+2z4PbGqko0/Pn6DAIaAAAAAACajtx6RIOgvduTkrEHqo+5ubmFBfu34lkCWipINV3Ox5pcz5+GI38jRZsqfBOUHQFdM+ZhRALaim+PUEC7XB62jy02wNmU2uWogi5LodZ0vHOorcMCT0CngICGJQABbYkEdJHznRp61FR7ZMt4cFm1AvqRXzyvM3i42RTUtALaXGPnJl4PzvLY0MTcxNBjwdYKW8fNAQMQ0NAVyCfb448/rg569+7dSQEtJYrdoQbUQW94+smG2mfB7Y1VFRXQ12e/nv4Lc+gAAAAAAEDTkVsPuQFZcgG9sLAwGzI9PW2XAqLVYvscOlNvpHOcQEMXCN8IOWLrBHSSaFxzwvw6Y6IT24K9YmVWtftGPgEjoKEtQUBbpl7/caB8C5zvwmi/Gf784Poj1xcnTo1MzVkBvW54avbDoYPn9f/6Zo8M9A+dnh3bHGwLBHQkuCv8aP3zqqqfWhusb926JfjXY0vFSwN0Fqqecxy09D9s1TqY/+zVJ+VYv3z1bAP1MwIaAAAAAAA6hDYR0AAAWfSegL464g5SjmJHK/f1rX3K36QZubq4uHBu66qgzutTi7eObAzqKw8+GEzLoYOdrw4FRvmRR4KpojMFtFYWTqvERkBDF5LjoM+fP28r1YGdeWPvoaG07ySsB7c3VlUQ0AAAAAAA0EoQ0ADQ5vSegLa2t2q2nl449+LqYPGR9b/rX/8fAuP86Fodvbzu9aFgZuhHTLVdj5iiR4eGVCgHonnh+rmxD8cO/i44wk+eP/Lh2NinU7OXRsavLy6eel6rnZsckzombz2v47E3vjo2NllqdiSAtiXVQQt2cx3E5n1OfCdhnbi9sfKRDh8CGgAAAAAAWokroGtz0PZAAADNAQFdlq2nF+fe2WRXLI9sPT1mp+B4Y2rq9cBF/2zTpmDg88ajc+OOgA6YG3mqUjI1vO7Bvr4Hnxo5p4OjnxqZW1xcmA8m8WAOaOgukg7abqiDlG8dbKiDdntj5YOABgAAAACAFoOABoA2hzmglXNbgwHNwoM5U17cGtkxsGPHH7dufDioaZRxOAf0G7OydVN4kL4Hnx9bWPQFdDRrx4M/fn50Lqz/yOpVwT9/eHmHWdhkPDQCGrqI7du3z87Oeg5aftrNNZFin5XGOWi3N1Y+CGgAAAAAAGgxCGgAaHMQ0AGh8DX8aMc5W5rO3DvqmdcdvC5rjoBeXDy3S+fo6HvkRXMMT0BP7dPpOpSHNu6bmHAmht70ztz4FnPgjUfnENDQNeiMzzrhRqMcdKZ9VhrkoN3eWPkgoAEAAAAAoMUgoAGgzUFAG+Jq+MH+0WAejFSuH1kf6GfzPYSGmIBeGO0P1vr0CDEBvTAWTBLt8uDaVw/uCL7VsK/vx0NXzfQgpspTI3MIaOgKXPus1O+gC+yz0ggH7fbGygcBDQAAAAAALQYBDQBtDgJaOLcjmLW578HVq3Xh0SG1yz73pg7+IrDID28aeufgyy/uGDp1xBHQU0OPBitCcARXQMcc989ePrhldd+qrePzUfnGI0ZVjQcGetPIeQQ0dDyqmLdv327XQ6T88ccfP3/+fG0O+tq7mze/mWuflfnLhwY3j6S/k0vh9sbKBwENAAAAAAAtBgENAG1OXQJ62+jiqh2lcuyC3aUhNPbi6M6bEWnicIBznPM7HtHNIVtPV0ZAL4z2O0OcH9l6esEV0LNvrTdDnh/9cVgyN2vcVMVZP7JlfGFxYex3K9cPDI0joKHDOX/+fBm5rA56dtb8kUC74fbGygcBDQAAAAAALQYBDQBtTu0CevLG4g/+V5NlvyyIVpP6jaKBF8e5U1utftY5nefHQou8euupOVupQjhW+n9e/eOf/HjjwI6Rq6GAfv3g1mDTI1vGRn4XHOJnBw+6U3B8uvXBR4fGdNJnLalMJ62s3nE+KBWYggM6nO3bt58/H72gOxK3N1Y+CGgAAAAAAGgxCGgAaHNqF9Ab/mS08rZRu5qD1mxDAT31zqbQPvetG7ZDnh0pvHrTUX8c9MKt2bnYBNFWQD/4YLDTg5tGbi0uXh0KxlE/8ojaatXN148Mfbgw6wro+fHn7YwfmzbpOOhQTCOgAZYctzdWPghoAAAAAABoMQhoAGhzahfQ20aNVl4xYPxyfqSO1GwgDbg43psd2fzjaPTxg7846JjmhfEtkZd+8MfPHJzwRkLPz83NTox/OHZk344dwzs2BfXWDY8f+T8eCi323MiWTS9/ODvmjoAOcAR0OJ10MFnHwofmGwof/F/6R7QqAhpgqXF7Y+WDgAYAAAAAgBZTv4CenrlJCCHNS11zQKtZLpNVO+wuDUEujnapFuamju9Y9z8HfjfgwV8MTfjfaBbZ4YAHV67fcvDcrcVzf1ztlAZs2ep8CWGce1NDPwu2pQro60fWB8d68KmRwG/Pjh+fmFtY0NHVU/vUPyOgAZYMtzdWPghoAAAAAABoMYyABoA2py4BvVTUc3Fc+DSa9Nmw+ldHpu7ZTXGmRn7lVFy1dXxev0jQ5cGVu3b4AnphrD8oqfCLI2kjoM3RHgwOW2FuRMdThwTTUgPAUuD2xsoHAQ0AAAAAAC0GAQ0AbU7PCWhh6o1g8PGDP+5PTPHsMXv8eTNPx4Pr7Qwdnw5t2rxj6OjY2PmpOTsVdPglhJUR0FMHHwuKLKu3nq5MGh2bA3pxbtbXU1NDPwl2Cli9ZTw23TQAtBC3N1Y+CGgAAAAAAGgxCGgAaHN6UUAvLi6cO3rEn9k5i3uz4+cjuZxkbuLDsbEPx85dr7jiuUlTEmR8Ii6g5k4P7Xhxx4594xknX5j9VHc8NxX/rkMAaDFub6x8ENAAAAAAANBiENAA0OY0WEAfu7C47JelsmrH4uQNu1e1cHEEgGbj9sbKBwENAAAAAAAtBgENAG1OIwX05A37lYMrBgqy7Jem2rZRu2O1cHEEgGbj9sbKBwENAAAAAAAtBgENAG1OIwX0sQtGK2/4k13NQWsioAGgbXF7Y+WDgAYAAAAAgBaDgAaANqfBI6B1aLM33jkZRkADQJvj9sbKBwENAAAAAAAtBgENAG1Og+eA3jZqp3guzKoddpca4OIIAM3G7Y2VT6MF9MnNazaftMvpXDvw5JMHrtmVkJODa5KFFeSoGeTtBdAepL7m46S9cb4afjLv3XRt+Jf2XZCg4D0I0AbwYQHgw4cF9BoIaABocxosoFsDF0cAaDZub6x8Wi+g7b3QL4eje6yTg2vWDJ689lXlpsuUODhHNHaBGyboLEo4BX1pO69tIxSeHP7q2rWvbEFQ4uC8g+T47ipAJ8CHBYAPHxbQayCgAaDNQUADAKTg9sbKpy4B7d3kZCK3RkH94K4pH9cXpIx0kyNw7wTtjWfEMhnU13rO2LQQ9zVv3nSeVTNHQLRBW8OHBUACPiwAENAA0OYgoAEAUnB7Y+VTl4BOQW76s+9ufCPgVfZvjRynkGEj8AvQCeQOavNf9n5l713jOAUzli2N7HcgQPvAhwWADx8W0GsgoAGgzWmwgF61w3y7YJmsGDBfWlgbXBwBoNm4vbHyqVNAlxm/U7lByjADLtlOIRwZF+HdawG0CaUGe0avdOMUCshxCnZkXIRvKADaBD4sAHz4sICeBwENAG1OIwX05A1jlpf9cnHDnwqyYsDU3DZqd6wWLo4A0Gzc3lj51CmgE8iNfvYdjW8BvMr+7VCqU6gU4hSgQ2jioDZ1CpVCnAJ0Ct71P45/efcq82EB3QkfFtBrIKABoM1ppIA+dsFo5VU77GoOqqoR0ADQtri9sfKpR0DL7X1Z9M4HpwBdj7m9L4m+pHEK0P3wYQHgw4cFAAIaANqeBk/BseyXdhB0fqSO5NgFu1e1cHEEgGbj9sbKpx4B7RPc/AwPZt/SSIUi3H1xCtD5BDf5B4afzHytmgoF4BSgy+DDAsCHDwvoRRDQAC3FfApEXaZUzKdDboWeo8EC+tgFMwK6TGoe/ixwcQSAZuP2xsqnYQK6cocfu/8XKp9hvgWQdff2x78dSnMKTh3/aADtRuXlGr//F6JXuv+yr2VQW6WOfzSAtqPyco0u7HxYQI/DhwX0KAjoqrm2uP6fFn9YlDO29uIbv118IfFOTy2ELkSu+WWx/bHKZ0f6vr34udFgAd0aevHiCACtxe2NlU9DBLS5t3Hdgb1rsp9R177KuvGXT7a8jzFVEsKTB4atUzBHDj8gvXstgPZCO26VV7h9PYc3/9f0ZZzAdwoe4ZtLjjwcOgVzZJULOAVob/iwAEjAhwX0Lgjoqrm2uP63i9ftShqBoU4V0NffXPxhsC8CGrKQjwnno0E+KcKulNCrvSkENABACm5vrHzqFdDBHY7cAsnHVfxGyNzbpNxQlWHwZFjZuzkyN2lPDm4O7qm4b4L2JXgBbz5p3h3xF2rgGZL2rQRPDp+xlT3jEBi9zZuDt0yejABYWviwAEjAhwX0OAjoqql+BLSsqm6OvDMCusfQjlYG9n8lA+SjJ1jVz4uTZj0S0L3735YIaACAFNzeWPnUI6DNjVP4H6HqFHR0m3PDH9xCCe5nWwXZWvaDTI9cuWXy7s0A2oRAE9iXtXUK9l0QvVzDt4kzpsBBtpZ+YeuRozeRL/IA2gQ+LAB8+LAAQEDXQOEI6IiTZrzzC4FrfuO3i2+8GTPUbpDR3U6mOzafMpV+V9TXkgX93DGfHXZHWezVPyZDQAMApOD2xsqnHgHtYP9ntcqb/OhzLhfz2ZdqJcxJ0QrQvuhLt8qb/HJOQd9xaVbC6SsCtB98WAAk4MMCehUEdNUEAvpMtk02CQz1mV2LP9wVG/W8/s3gCIyA7jls1yudqNfk/KlN+OESfDgFFcL/EBV67oMDAQ0AkILbGyufBgloAAAAAACAsiCgqyZtBLQZ4Jz43yi1zNY1B6Oho70Q0JDJSTsLR4D+76hjnKWg98ZBI6ABAFJwe2Plg4AGAAAAAIAWg4CumlBAmwHO3sDnMK5cTnXNCOjewRm5nId1zJ5fNmOin9w8WPlrG51FTZd7BwQ0AEAKbm+sfBDQAAAAAADQYhDQVROOZT6zKzalRjQC2pPL0WqOsI6+sRC6j/gsz6mYCToCAR2fqUP2MgOgna/JjRZ6DAQ0AEAKbm+sfBDQAAAAAADQYhDQVXPSzOwsMAIayhAJ6NSh0JF3jnll453NNweYb5CO9h0clmq9+XUaCGgAgBTc3lj5IKABAAAAAKDFIKCrxR34HOGOgPZAQPc4MQEdGwodG/hsBbTO+Wxn4dDxz0G5Do7uvdmfFQQ0AEAKbm+sfBDQAAAAAADQYhDQ1fLCPxnXfP1Nf9Szl6wZORQEdO9QxQjo+ATQpn64aoZCBzACumPowYsjALQYtzdWPghoAAAAAABoMQjoqjDeOZgA2iwEE3EodgR0ODuHSmoFAd3jZI+AjkhMwSGEs3AE8z7HxkT34DhoBDQAQApub6x8ENAAAAAAANBiENBVYUVzJKCvLa5PjH3WeAK6YMS047Khy8j2zpVxzZWZNizOmOjEtmAv31d3NwhoAIAU3N5Y+SCgAQAAAACgxSCgAaDNQUADAKTg9sbKBwENAAAAAAAtBgENAG0OAhoAIAW3N1Y+CGgAAAAAAGgxCGgAaHMQ0AAAKbi9sfJBQAMAAAAAQItBQANAm4OABgBIwe2NlQ8CGgAAAAAAWgwCGgDaHAQ0AEAKbm+sfBDQAAAAAADQYhDQANDmIKABAFJwe2Plg4AGAAAAAIAWg4AGgDYHAQ0AkILbGyufOgX0jZu3x89cGHnvFCFdEHkxy0vavrjrgPcF6ZrwpiAkGd4XhHip7U2BgAaANgcBDQCQgtsbK596BLR0NEfHTs/MMm4augR5MctLuk6twPsCugneFABJeF8AeNT2pkBAA0Cb06MCWq7m/A85IUuV3/3h9d1DR/7trfeal+MffTJ3Z96+4WvC7Y2VTz0CWi5K3DhBlyEvaXlh25Wa4H0BXQZvCoAkvC8APGp4UyCgAaDN6UUBrf9DfuvrObsOAK3lpX1Hjr7z4ZUvpufuzDcjf5m9dfqzS8c/+sSerybc3lj51COgR947ZZcAuog6X9i8L6D74E0BkIT3BYBHta9qBDQAtDm9KKDHz1zAPgMsIf/21ntfTF1/f+y0J44bmL/M3pKz2PPVhNsbKx8ENIAHTgHAgzcFQBLeFwAe1b6qEdAA0Ob0ooCmgwKwtPzbW+/N3Zk/dGTUVcYNDwIaoB3AKQB48KYASML7AsCj2lc1AhoA2hwENAC0GgR0KlyaoCvBKQB48KYASML7AsCj2lc1AhoA2hwENAC0GgR0KlyaoCvBKQB48KYASML7AsCj2ld1/QL6h/+0SEhVAagKBDQAtBoEdCpcmqArwSkAePCmAEjC+wLAo9pXNQKatD6XJr4gpHwQ0ADQahDQqXBpgq4EpwDgwZsCIAnvCwCPal/V9Qto72aKEEJycrt6ENAA0GoQ0KmUuTSdHd498he7XOEvI7sH95+1KzHODg/uPj5jV0KkcDCjvjBzfPfg7hF/H4BaabpTkNf/cMrLOfXFb0h9v5jCjPqGs/tz3jMAVdL0NwUfFtCB8GEB4FHtmwIBTQhpZaxUrgYENADUzr35ufm7drk8COhUSlyaZmbOyp2P0QqBF8gkvDWSGyHfQZgd5QZMtqTdhim2DkAjaL5TmBnRV2zgBbKxTsBYM+/lbXaUd8rMyO40Z6fYOnYNoB6a/qbgwwI6ED4sADyqfVMgoAkhrYyVytWAgAaA6pmbGBve/cIW21UffGH3/g8m5r63GwspFNBHjh7b89rrhZFqV65+4e0bpStHQBuSOsDc7fgDbnzpEOwihZV6eVpBbq5yBvgAVEHTnYIhRQfIq91/DfvSIdhFCiujOHO1grxlGNkGjaAlb4q0izwfFtDG8GEB4FHtmwIBTQhpZaxUrgYEdDqxnreP6W3HtqZ2zaUw/y8TvQppdwUJEqcGaDnzFw/t2DK47dUjJ6/OzBlmrpw68vKLg4M7D12ct3XyKRTQP/vZ/29NCaSat6ObrhXQin935GIvEjPHdzv3VOZ+yGP/cOZlygz84WIDjaAlTsHiqzSH8L0gb4TKCzt4ncfZvX9/5ueseRPh2qB+Wvmm4MMCOgU+LAA8qn1TIKAJIa2MlcrVgIDOwnQdMnoVvgWe+Yv5Q0ffQSc68P7RpEJNAjqFfNMN0EBujb28ZXD3n6fu2fWQu1MjLw0OvjpWxrkWCugrV78odNBS4dTHp70d3XSfgA7vlxKDbtKvHsHwHHNx2n825/LiXYgs9lLD7RPUT7Odgv1UTPw3cMqgNkFe8MNndVN6BUPG//Xaj/XCT2qAApr9puDDAjoRPiwAPKp9UyCgCSGtjJXK1YCAzkZ64dLVNn3xbCp98aD77nb0U3vqtkdShtReS0ZHB6BVXHzzhcG94+kDnefHh7a8cOiiXcuhUEBL8h10oX2WdOkI6ODK8peiS4lcfPQSFNkEZw/nPkqPZlcqmL1CH2GLAGqk2U5BMGPThs+mjFCLs/+s/QwNbYJ1ZwGVl7oeza44GKkX+ghbBFATLXhT8GEBHQcfFgAe1b4pENCEdG5m5M07+/XFyakvr814m9o2VipXAwK6BuIWOOqyCwX9/HjvXHv8diVrWIpH/NQArebiwS15r0Cjp98oNtBlBLQky0GXsc+SrhbQwVLavU1U6N1fmT+g1tuks/tNBTmMWU13CnrvpAvcPkGdtMwpmKXUT9JKYfxD2vwBtb7+5bNVKshPs5ruFFS0SeVSH9YAebTgTeFe3vmwgI6ADwsAj2rfFAhoQjouM7Nff3r+yvEPzx48esLN0eOnT5y+LFu9+m0VK5UT7Nixwy4lQECnEfY6bGdau+AV4hZYv1JZ7XLQP7dV3eVgl9q65t6NQQrJrg9Ak4h61RmYl6v73yoZlBTQkqSDLmmfJb0goFOJXWqi+x/nZspUkNUsp+D+lot+4wCFtNwppBKzAKEsMx/NIVIhzylEos1bBqiBFrwp3Ms7HxbQEfBhAeBR7ZsCAU1IZ+XT81dUNx//8KwsX5yc0kHQJ05fViV99PhpKff2ap9YqRxnR4hdj4OAziTscwim2+H0R7xVg+2CBP3zs7Ls4XQ+sm4DXNyDp3ZuIvK3AjSYubGXc+8wzQvy1bE5u5ZJeQEt8Rx0Sfss6fER0BbXKei1omBQW3CX5VxVuMhAnbTcKXifzymF4dvESoRgQSrY1ZTXvLxRYu+U5BsHoApa8KZwX6V8WEBHwIcFgEe1bwoENCGdkpnZryPFnDXMuUydpY2Vyg7WPYfYUgcEdCaxrrnpkUQdCNPnTvRZAoJuht3HXRbOjiT6H+nHkfO6hfkderr70Fqm3nlx8LVT6VNALy4ujO8d3Pb2lF3LpioBLXEFtLcpJ70goFNJOAWD+avqkBynYC4p/hh2c6WKHROgGlruFFLxnYLB/FV1sGDIcQryNkl8WKeVAZSkBW8K9/LOhwV0BHxYAHhU+6ZAQBPSKVGzXDi6eSaYoEOHSHub2iFWKodY6xzHbgtppIC+ffXsyeMjJ89dvf29LWkScnG0SzVR8lIufQ63Gy2djHA1KY7DkqB/bvfxejZ+N11IHkfwC03nJp9Y1weguZgX5LZDE6nv8S/e2RG/Qc0CAZ1KNU5hZmR4ZCR3UJtjHIIriuyn14rYnEJ6NLsSXG0S1yQhuJqlbQAopnVO4ez+/cfTPlfNCzgodD6Xg3eBlQjBQmUvezSLkQfJN5pg3mIpn+wAxbTgTRFe3vmwgI6BDwsAj2rfFAhoQjoiFyen8u2zN/NGYf2lipXK1dAgAf3d1UO/e8z6IeGx5w5dvWs3NQG5ONqlmih5KY+65gl8R1zplwf/RvvE+yVJkscRUgsB2obvp0deGhx8+Z2J+EQb85+/8/KWwW1vTtyzBXkgoFMp7RTMDZFccFKvUX5hdDcl++U6hcBBZF97gpuxjEsiQB4tcgqCvMKjF7xLojB8mxQ5haKXfcG7BiCDFrwpgsu7wIcFdAx8WAB4VPumQEAT0v6Zmf26cESzNz5a5+Jow4k4rFSuhoYI6Ltn9zy25rEXRq6aP8y/e/PM0NNr1jz26tnvdGvjkYujXaqJkpfy1P56QMIRB91yqaq7aHckWg47Lsl+R1ah7eIrcpygjrmRsJXD05nFzAcJ0DTmr7zz8uDglm0vD78zduaTTz54Z/+r26Rn/fK+17YNbtv/aeEU0AjodEpdmjLe/vaeyhC7gMSdwoi5Q9IrSXCzZAivXdFhszFXIXuvBVCa5jsF58M0pg+CV6wSf92G753gA/e41XT2jRAQvUeiY2URvPXibzqAIpr/pghe/nxYQEfBhwWAR7VvCgQ0Ie2fE6cvHzx64strM165GzXOnoMu1Natj5XK1dAIAT1/ZveaNS+edKaF/erYs2vW7B7Pmii2XuTiaJdqotylPNl7Nr0WS7zzbboUpqbZZf9Z27mRrknYF5Hy3fuHk6OhnW5QhOnEOL0TPWSwGJ5FMAe0dWL9J4CWcW/m3MiRvS9ve3HbthdfHjoycnbWDH2+9fFQGQeNgE6lzlsvgPak+U4BoMPgTQGQhPcFgEe1r+qWC+hP9jz3zpQsfPFO/+rXT+uClpx5fbUuxDJ97Ln/uOeMWT695z+uXp2agWNfBLv75UHcY6afgpB2z9Hjp0+cvqzLFyenZDk1KqBdB62DoHW5TWKlcjU0QkDf/GDzmjXDl+2a4TujpDeP3barjUYujnapJoov5cF/Ze8+fjb4p3Cgh/XIRhBL5UAO6/+N2/Em6og9s2yIBLSjts15oxPGDXXFNZvyqFrlRABtQBkHXa2APvXx6chBe5tygoAGaAdwCgAevCkAkvC+APCo9lXd+hHQp/cEQtkK6Jhf1oV4YhX6356Ob5V8skcFdFgy9fbA6j2fRKtaYndEQJPOzMGjJ06EAvrT81eOHj+dH7ey7KvLDcjtREn1sVK5GmoW0HfnI+6ceXXNmuccB3r33NBja9a8Om63C3cb+rWEcnG0SzVRfCn/y8jucLSy87eKqew332RhzLL8rLhiIbajP/ZZifvlJKHLDpH10ECr7A5KzaMttuQArcM66LOZfwNRrYCWRA7aK88JAhqgHcApAHjwpgBIwvsCwKPaV3XrBbRRxns+sQL6zOuhU/5kjzdyec8nRiVXSl7fU0pATx97LuajJQho0tHRrxOUn155mXx5bUb2zZ+7o2RuXfl46I9HPrhy2yuvNlYqV0OtAjoY9RzjQGUI9O0xf2NsfHTdyMXRLtUEHRSAZnPr4/079o9njYKuQUBLTn18esuWF7zCnCCgAdoBnAKAB28KgCS8LwA8qn1Vt1hAx51ymOfemTrzejRsOT6EufQUHFrfeG13k5nlAwFNOjoqoGuTyDoNdG3yOpa/XHxrzxt/Ovzu7j0jn/wlsbWaqFN+pxxauS4Bvfnda3aEs3Dnrt0kOMOj56dG/Ak66kYujnapJuigACwttQnoaoOABmgHcAoAHrwpAJLwvgDwqPZVvRQjoIPJNPa83l8Rx8Hw51ANV3yxSXVTcMTm8Qh1MwKadHTqGcWs8npm9muvvLrcmvpg/592v//5rTu3Jz88snX/x5O3EnVKR52yFcxFaOX6BHSZWZ6TM0TXjVwc7VJN0EEBWFoQ0KlwaYKuBKcA4MGbAiAJ7wsAj2pf1S0W0DqK2Thib6jyntf36HcSOsY5iK6aWTtiAtpOIR1VCwsdvxx5ZwQ06ejoKOboewV1Wuf8RJVPnL4sq7pcY27f+OToGxXpfHt2/I0/7T568ata54NWp2wFcxFauS4B/diGp598TP558rk9H1zLmu41qPn0c889scbUfOHAyWvf2S01IxdHu1QTdFAAlhYEdCpcmqArwSkAePCmAEjC+wLAo9pX9ZKMgDYi2NfHkXeOjWieslN2mMoqr9MTaOXY8GfnOAho0uk5/uFZiS5HAvrE6ctZiebckOWjx0/rck0Jhjx7026Y6Tj+NPTh1K2opJqoU7aCuQitXN8c0D9/bve+Q4f2vfjsY2vWPD18OdUs25qbX33z0KE9Lxhh/fTwVWe6jhqQi6Ndqgk6KABLCwI6FS5N0JXgFAA8eFMAJOF9AeBR7at6SUZAe1FrbFyzfvFg6IiDIc+fpE/BkRwBrXLZDqx+/ZgzkTQCmnR6jn949ujx09EsHOqgC82yDp0+cfqyV14+X302sjvtiweDLyR8463PbnjlZaJO2QrmIrRyrQJap3mOPPLsBy88tubpo9fsagxT8+734crl4afXrHnu+Ixdrwm5ONqlmqCDArC0IKBT4dIEXQlOAcCDNwVAEt4XAB7VvqpbPwJaRbNdjXnkYCbo0EeHiUZGBwtvxyfusNHx0d646dgqApp0dFQlu8a5jIM+/uFZqVPb5NGSfMuc5aYLo07ZCuYitHLNAtrj7tk9a9YMflBiTugZMyJ615msGTvKIBdHu1QTdFAAlhYEdCrjZy7MzFa3C0CbIy9peWHblZrgfQFdBm8KgCS8LwA8anhTtFxAu5bZOOXKoGY7Pjpjag6jqgeOnUkMfE4OhU4cFgFNuiD6dYLR5M4SWT56/HTWFwyqoY7m4qg6M4XzbNjZOc7OeOUFUadsBXMRWrlRAvr2B4MltfLMSP+aNXvO1jMJh1wc7VJNyKX81tdzdgUAWs6/vfXeF1PX3x+rZw6j4nScgL5x8/bomHzwcPsEXYK8mOUlLS9su14TvC+gm+BNAZCE9wWAR21vitaPgNbYuTiiodChfd4jP2OO2ApoM6jZzrBRIKDNcZzDxoKAJp0cnYjDddBZUfscTRtdS6bOvvnnom8avH3j7J/fPTmVKM+NOmUrmIvQyrUK6Lu3r547e/m6Fc7znw09veax3eNp/jlec+b9Fx6TmnUNgK5XQGsHBQcNsFS8tO/I0Xc+vPJF5X+zG5u/zN768ONzxz/6xJ6vJtzeWPnUI6AFuTqNn7kw8t4pQrog8mKuUygovC9I14Q3BSHJ8L4gxEttb4olENBnXo/mzQjmypAFY5nDsc/BckUTq4C2GjrQzYG5jiUS0KaaO/bZDwKadHJmZr/WWTVyBj5Hdeqyz82MOmUrmIvQyvV9CeGaNU88/eyzTz9hFrafTJ/X2dZ87Mlnnn12w2Oy9PRLZ+rsYsjF0S7VCh0UQpYwv/vD67uHjvzbW+81L8c/Mv9bbt/wNeH2xsqnTgENAAAAAABQLS0W0MEw58rszEGCSTniY5Z1FHOgpwO/HInjnBHQgZsOZvZIxCpvkzw9TUgnREc3Hz1++viHZ0+cvnxxcurLazPyU8pVPUvKjJJeqqhTtoK5CK1cl4B+dtfw0K7Nm3cNjZzLVspBzRcPjBTXLI1cHO0SAEBzcHtj5YOABgAAAACAFrMEI6AJIfVlZvbrE6cvR7o5ytHjp6U8a3B0m0SdshXMRWjlugT05rESNjmoOXzZrjUEuTjaJQCA5uD2xsoHAQ0AAAAAAC0GAU1I52Zm9msd/iw/vU1tG3XKVjAXoZUR0AAAKbi9sfJBQAMAAAAAQItBQBNCWhl1ylYwF6GV65uCY9/Js+fOFuSjoWcR0ADQabi9sfJBQAMAAAAAQItBQBNCWhl1ylYwF6GV6/0SwpIgoAGgs3B7Y+WDgAYAAAAAgBaDgCaEtDLqlK1gLkIr1yqgF+/OV8Pd7+1uDUEujnYJAKA5uL2x8kFAAwAAAABAi0FAE0JaGXXKVjAXoZVrFtBLiVwc7RIAQHNwe2Plg4AGAAAAAIAWg4AmhLQy6pStYC5CKyOgAQBScHtj5YOABgAAAACAFoOAJoS0MuqUrWAuQisjoAEAUnB7Y+WDgAYAAAAAgBaDgCaEtDLqlK1gLkIrI6ABAFJwe2Plg4AGAAAAAIAWg4AmhLQy6pStYC5CKyOgAQBScHtj5YOABgAAAACAFoOAJoS0MuqUrWAuQisjoAEAUnB7Y+WDgAYAAAAAgBaDgCaEtDLqlK1gLkIrI6ABAFJwe2Plg4AGAAAAAIAWU7+AvvT5FCGElIw6ZSuYi9DKCGgAgBTc3lj5IKABAAAAAKDF1C+g7YEAAEqgTtkK5iK0MgIaACAFtzdWPghoAAAAAABoMQhoAGgl6pStYC5CKyOgAQBScHtj5YOABgAAAACAFoOABoBWok7ZCuYitHKnCujpmZuEENK8uL2x8kFAAwAAAABAi0FAA0ArUadsBXMRWpkR0AAAKbi9sfJBQAMAAAAAQItBQANAK1GnbAVzEVoZAQ0AkILbGysfBDQAAAAAALQYBDQAtBJ1ylYwF6GVEdAAACm4vbHyQUADAAAAQIfy0YXFn29f/A//vPjDf2r3yIOUhyoPuAw3bt4eP3Nh5L1THRF5qPKA7UMvDQIaAFqJOmUrmIvQyghoAIAU3N5Y+SCgAQAAAKAT+eiCL3k7IoUO+sbN26Njp2dmO6ZnLg9VHnC1DhoBDQCtRJ2yFcxFaGUENABACm5vrHwQ0AAAAADQifx8u+92OyLysPMZP3Ohg+yzIg9YHrZdKQcCGgBaiTplK5iL0MoIaACAFNzeWPkgoAEAAACgE+mImTeSkYedz8h7p+xSR1Htw0ZAA0ArUadsBXMRWhkBDQCQgtsbKx8ENAAAAAB0Ip7Y7aDkg4AuGXsgAIASqFO2grkIrYyABgBIwe2NlQ8CGgAAAAA6Ec/qdlDyQUCXjD0QAEAJ1ClbwVyEVu5CAX145MSuvYdryL5Dx+0hAKDncXtj5YOABgAAAIBOxLO6HZR8ENAlYw8EAFACdcpWMBehlbtQQO/ae/jwyInpmZtV5f0Tn8qO9hAA0PO4vbHyQUADAAAAQBnOX1985+Li222TFb9s9/zfNvjqWcu9J+Lld0MXvZKOiD7s8iCgAaCVqFO2grkIrdydAnp65qYuu4o5K1FNBDQARLi9sfJBQAMAAABAIQ/96+IP/ldSdf67/xQT0N7W7kt5ENAA0ErUKVvBXIRW7mYBve/Q8cMjJwqjM28goAHAxe2NlQ8CGgAAAADy+elrvmck5fPf/+8I6BQQ0ADQStQpW8FchFbuWgF9Z/7bknM6SzWpnCqgR0dH15RDalZV2Z4AANoVtzdWPghoAAAAAMjnv33c94ykfP6btQjoFBDQANBK1ClbwVyEVu5yAS0LhckR0EkuXbq0c+fOu3fv2vVcDhw4gGsG6FDc3lj5IKABAAAAIB9PMpJq02wBveyXiysGSsXbsUzc3eVE3lYv5UFAA0ArUadsBXMRWrmbp+A4ffayN9tGaiauXJPKZQT03bt3d+7cWdIpT09Pb9my5ZtvvrHrANBRuL2x8kFAAwAAAEA+nmQk1aapAnpbNUPIjl3wd8/Pqh12RwUBDQAdijplK5iL0Mpd/iWESe7Mf+tFy7MEtEpnO3dGGgMDA2qZC2sq5QdQA8AS4vbGygcBDQAAAAD5eJKRVJtUAb3sl4uTN0rlyeHYjl6OXSirleU4cjSvsLEpTy8L6Ntjm9ccuKyLHwxa8RJnONic2Hrg8uUDdtFl89jt4GhdiLSVtoU8cX2ashCUmMbRTTEuD68Z/MDUu/nBZts8CWzjO5UN/gEvH9j8QSjqzK8sBakQ7ZXxeKBtUKdsBXMRWrmbBbT8fP/EpxrddPrs5X2Hjns5PHJCK+cI6EuXLtn1OO4wZ7emO1NHVjkAtDNub6x8ENAAAAAAkI8nGb38P19c/O6vBVm4t/jPb/o75uTwObPLxoN+eRTZNPddXoW2SqqAlrizW+Qkf9zxsQvWUMtPXZAS2SW5um3ULOiq7pvMqh2mQsnIY/N2Lw8C2q7kEXOa8b1kU0WPdjM3P9gcOGIroF2/XHHHDjEBnSKE3Wa8ffODYeuRzZrT2nKUNWsGhy/HWlgKbZvLQULpj4DuGNQpW8FchFbuZgF9eOSEDnCeuHJN59lIKmapsC93DmhPQH/zzTdbtmyZnp7WVQQ0QLfi9sbKBwENAAAAAPl4ktHL+5O2Wj5Szdsxyqdf2TqFfHlr8X98zuxy+JzZK2tf3ZSav/+v5iDy0yuPIkeWRKsbDy7O3MmrXyZZArohORYI6BUD5omv2mFds/yUktTVyRtmF+8gUbS+VBBkIZlto5Vx2VLZ2708vSmg/fHLBRraOM0YUf0Mu9qV3B4b/uCmCujLHwzaZ50Ykrz5g5uBNQ7ZfGC4UEAr4djqikE2v6aUXw0CurNRp2wFcxFauZsF9L5Dx7Vk4so1HQSdqpibJKDt2zQEAQ3QWbi9sfJBQAMAAABAPp5k9FK/gK42nkTeeHDx8owV05JPv4oZZC/VCuik4I4kePmUF9DqiL3C/KiAlr1K7lim2rZRE1mIKuuC/oy2JlOeXh4BneE3k8ScpjWnKTNLdLH2jDnliOHL0jLRAPCKFzbIWmUEdAam8dOPnIIcLe9QHyCgOwV1ylYwF6GVu1lAv3/i09NnL9+Z//bwyAktaYiAllU1zgIjoAG6Fbc3Vj4IaAAAAADIx5OMXn5/fPFn+2xeOVlZ9lalmrejl40HzbQbWbzwXqXmp1+Z1f/xOeOCdTmSwt6A5fxjRuh0H55r1iMLkY+Ww859l2e3s1JSQG8Lvk5w8kZZlayJBHSWFPayYsDU9wq9qGKWYwryU+rrKXRVt3q7aMrTwwI6UJ+BgE4M43UwFYzTjGEFtOs55Wjdrj2DpzzsWHttt/Bpx1sgJqBTWiY5AloICgOVfMD8csLRzXGcA0p9RkB3HOqUrWAuQit3s4C+M//txJVr6qCjTbrgUpWA9gwyI6ABuhW3N1Y+CGgAAAAAyMeTjF5W7Uhf9la9Tcl47jiKiuZIQMvCp8EMG5F3loW57+yOsilfEEs12St5lijREVQ3zwZDuaRQXbaeutqUEdDbgqktjgVzK1floFVArxioSGHZV1o7Gd3qLmdFFbNnnL1VbxdNeXpWQDvS2Rm3q+UJMZpCqEHDiSO6WkCbJxuMQQ6er8Pm4QOhAo6MsxKsXh4b/uByTECHzRVHKuvhzKZA93tf8+j8RswvKDyRI6AjENDtjjplK5iL0MrdLKB16mdNQ0ZA67K8azZu3KizcDACGqBbcXtj5YOABgAAAIB8PMnoxbWZntnM2ZRM/mjlSEAfPmdLdNiylMgmQX6qqlYiUywLhXhjnAU5zksf+QeJHkO1KRTQ2wL7LAvHgm/2e3K4CgetAloWovqqsJORI2u1wiOnGmdv1dtFU55eFdC3Pxgc/iBwzdY4GwdqvKW3KsSVq2V4rJcEtMW4XV/4BqLZaOOYuLdG2VRWeZ3B8MmK2s5GjxY0b3C0qKER0J2IOmUrmIvQygjoAgEdoR5Z9fGlYIBzpKGVLNGcVQ4A7YzbGysfBDQAAAAA5ONJRi+rnDG2L7yXufr0IX/HevJpMD+GLsuCEMli3Zo1Djp/BLQeSvaVyEE8Hy1E1ruq5AvoFQPGDuuyCmhZeHLYLGthflRAy16Ctyk1ZY6capwR0PWjttR1psYyB8thoWOgI0LZanBGQAfVZFv3as9UiWybQp64/eJB+/y1ZaK2ChtKCX19HmGTpuDtHhPQ5iEo3fuL6ArUKVvBXIRW7loBfSeY+jlKzV9CKKhBlpf/6GgwiVTI9PT0xgDV0FG1fBDQAB2B2xsrHwQ0AAAAAOTjSUYvq+oeAe2OXM4ha54NWZ65Y46galjqyKouS82SSE15GJdnTPTg8lOINLdGh2lLZbewMPkC2k0koCXLqhkBLZWj+tuC8dTJ6K+gzGFTjbO36u2iKU9vCujLB4yjdAS0WlSzFBWahVA3WyUaSVVBvWpgZgMHKtu623tWmsisOCLYNJQQtYwStVWw8EHaKPKw3crhHT+kjNGGtkKdshXMRWjlhgro7+/Oz8/PXD179pyTqzNSON9Q45p/cVQBrct35r+NIqv7Dh0/ffayOzJaot45VUAfOGDeXt5IZw/V0JcuXXJHOmfBCGiATsHtjZUPAhoAAAAA8vEko5dGCWhP9XrZGM4QrQo4Qvb69CurpNULRwvJSGU50eWZ9HPpjvJT4m2qM7UJ6JKJBHQkhaWpU6Nb5fhSX5ezkmqcEdCNItU1R4WBYlblGs7qUJGlQXlgn6XyZaN/KnK2K4lZZtMOjm2vWHiHUECbxgmayKuQJY6D38Vmd9B0HPO7KKK7/yeg41GnbAVzEVq5bgH9/fy1cx8c2rX52Q2P2RdJFj9/evOuQx+cuzb/vd21ZvIvjpGAfv/Ep1FOnzUvXSl3CzUTV67JpshEAwAIbm+sfBDQAAAAAJCPJxm9PLbXCE3N3vHKsrcq1bwdo0QCOnUotA58jgR0tNenX5nKP33NVIj2PT5hVnX4sxe1z1ItOURajfOJq6bQFdC61SPLbuekBQJa9oqksCx76lmyLBz4rKu6nJVU44yAbhSha4751IqArkhSFc/OtBJRSVDNoAOi7Ur3os7dte1qnw8My8/Y87dtZdu2pIAONHdF7pdp0CyRDW2LOmUrmIvQyvUI6LvXxl599rE1ax578tntrx4bO3P5q9tmrLPnl4Nh0be/unxm7Nir25990tR/9tWxa/N2cy3kXxx37T18eOTE9MzNqiK7IKABIMLtjZUPAhoAAAAA8vEkoxfXZnpmM2eTG09Au8OTI+/sCmjXGkvlaGoOqbNwL338shRGu0i0pqDn+t9et+USqRNVkxN5R5PV9hTQshApZinxJt+QRIeValHNrKQaZ2/V20VTHgR0MOTWDn8WXAFtLWr0U3Bq9hh26HFk5M1C0CbW/wbLFWUcNVrQYpczp+BQwnHNseYNC6NfRxoI6I5DnbIVzEVo5ZoF9N3LB54OVPLV6kY0fz9/NdDWT//pas3zUORfHN8/8emuvYdryOGRE/YQANDzuL2x8kFAAwAAAEA+nmT00nAB7eGNgHalsNbXVdkkNQXvewIjK+3ZZN03ktdRpE5UrVME9LZRs5fgbUrNk8NmF6/QS6pxRkA3iphrVoEa4A28vXygMuA3VaRWyFWlHYwOfI4/u8po5QhTTUpsS24eu2ynLknTxLYkbPUciRycyFT5YELHX5eizOhpWBLUKVvBXIRWrlVAz5/ZvWbN7jM1OuS7uneto6A7+uIIAB2B2xsrHwQ0AAAAAOTjSUYvy35pnOaqYGKHF96zC5qnD9mFfKnqCWgdlewlEtBu4afBLByy12FngLPsHi1HFXRZCrVm5J0jbR1pZa2jy1KYJKpZPuUFtLSVV1KYbaPmUU3eML8Ib1NqylSLFLOOrZZfn/4GdRUBDQAdhzplK5iL0Mq1Cujgf06e3nu2Joc8f3bv0/7/sVQDF0cAaDZub6x8ENAAAAAAkI8nGRueHO8cCWLBM7/umGhvILPu5dbXUwiRXM6KJ6C9+rLaVAFdQ5b90lr+LCnsRWqqR86JKuYsVT15AwENAB2GOmUrmIvQynUJaMPPn9t99OTV2VJDoe/OXj15dPdzP9c9EdAA0L64vbHyQUADAAAAQD6eZCTVpqkCWrMsmB9DrbEgPyOJnFyVBW93L08Om2o5ZCns8iCgAaCVqFO2grkIrVyXgB4+d/vy2PALGx4LhPITT/c/++KeQ4felIycPHf27LmTI2b50KE9Lz7b//QTQaXHNrwwPHb59rlhBDQAtDNub6x8ENAAAAAAkM9/+7jvGUn5/DdrWyGgJct+aaPTZeSvFkan3UiNHMSrHKU8CGgAaCXqlK1gLkIr1yegw+nA787PXDW6eWj34LPP9j/7bGibn3wmWN3+aqCkr87MhwOlzQzlCGgAaF/c3lj5IKABAAAAIJ+fvuZ7RlI+//3/3iIB3Q4pDwIaAFqJOmUrmIvQyo0R0FWDgAaA9sbtjZUPAhoAAAAACnnoX33VSMrkv/tPFfuMgHZBQANAK1GnbAVzEVq5LgE9dNGuVQ0CGgDaG7c3Vj4IaAAAAAAo5My1xT2nFrePtlH+H79e/L+ub+ss//nigxtiAloK5WF7T8TLP+6Z/u3hea+wzSMPWB62LJQHAQ0ArUSdshXMRWjl+r6E8LHnhs9cm//elmVx9+bVs2ZKaMnV2zoJx/Uzh94cuTwfLFcPF0cAaDZub6x8ENAAAAAA0Il8dCHmdjsl8rDzuXHz9ujY6ZnZjumZy0OVBywP266XAwENAK1EnbIVzEVo5boE9HODLzz5mJnq+dntrx4bO3P5q9vz0SzPSuCmb48ZWR1Q+6hnFy6OANBs3N5Y+dQjoH99hBBCCCGEkCXL//bK4v/9mcX/YcPi//Bk22eDeajygL2nkJp/PPDdupdm127/qiMiD1UesDzsquhBAX3j5u3xMxdG3jtFokiDFP7XBe2WTJl2Aw91ylYwF6GV654D+u7tqydHXt3+rDHRMWTjzMhzjz37ysgH+55dM/jBbTPtxrOHxs8cGnzi6beu2uPURCdeHAGgs3B7Y+VTj4D+vzxBCCGEEEIIISZV0WsC+kanDWxvDYXD52m3VGr7s4MeR52yFcxFaOVGzgF9d37+9leXw9k2rl0d27zmsWefe+Yx+fni25fnr595dfCJNWvWPPFz+VnXUOiOuzgCQMfh9sbKp34B7Q7WIIQQQgghvZanD33/zwf/Sno5COhCxs9cwKKmIs0ijWNXEtBuWeS3GyRRp2wFcxFaub45oJ/e/cFUxkTOd87sfmzNk9tHrt25PfPV5WNGPT+x+ejZazfn568ek30f23M2PltHFXTcxREAOg63N1Y+9Qvon29f/A//7M9t14aRBykPtXDSPeVGR/2dlzxU/vcbAAAAloS7f703d+ffS+a2+fmtV1h9vg2OU0U4b02p4rwI6EKk026XIEFO49BuOdA4VaFO2QrmIrRyXQL66WeefWzNmieefvHV4yfNBNDf2Y3K/NQHu59es+YPJ0/+6bE1zw2fHBt6es0/Hvpo5DnZZfDQ2Tru7jvu4ggAHYfbGyuf+gW053nbP3zxCwAAAECjmP92wXORafkuUdKo5B+Z8zYqBUdGQBeCK8wBAV0bNE5VqFO2grkIrVz3HNC3r548unvz02ZuDeWJp5999mgwxfPty4cG16zZdfLkvjVrdnww89XI5jWPDX9kdtz89rWMgdOl6LiLIwB0HG5vrHx6UED/fLt9/Fl04t958RdYAAAAsCR4IjIt3zViNG5W5MhZbpTzNjA55zVBQBeCK8wBAV0bNE5VqFO2grkIrVyrgL598gUV0BF35+dnr549d/bM2LFD4zOLd06+uMbO0XH3+skXfx646e0fzMzfPvvm5ifWrHlsywc1jy7ruIsjAHQcbm+sfHpQQP+Hf7aPP4sO/SCn/wEAAACtxxORpDeDgC6EvnoOOY1Du+VA41SFOmUrmIvQyrUK6MWZkefWPPaHkZyRzFffenrNP77w4uATa55+8dj4tduzV0++ufmJx5599ZUXHlvz9KFgkHRtdNzFEQA6Drc3Vj49KKAl+XToBzn9DwAAAGg9nogkvRkEdCH01XPIaRzaLQcapyrUKVvBXIRWrllALy7OXz30OzMF9HO7Dn1w7trt+ATQhruXh/9xzRODw8O7/nHN4Ae3Lw+vWfOPL7zy4rOPrfnHfZdr/gZCoeMujgDQcbi9sfJBQCfp0A9y+h8AAADQejwR6aXab8+rLcmzcN5mJOcsCOhC6KvnkNM4tFsONE5VqFO2grkIrVyHgA64ffmD4e3hDNCPPfls/7PPDu4eGp/RrXfvmAHSt8c2m02m1uYPbi4uzt9OsdXV0HEXRwDoONzeWPkgoJN06Ac5/Q8AAABoPZ6ITKR5sxK7SZ6F8zYjmWfpbgF97NixZcuWrVixYnJy0hZVD331HHIah3bLgcapCnXKVjAXoZXrFdCW7++aCaDPfHDszUOH9u3erF9CGDJ/eeSQlJuMXK7nywdDWnlxBIDexO2NlQ8COkmHfpDT/wAAAIDW44lI0pvpYgG9bdu2ZcuWyc9Vq1Zt2LDBllYPffUcchqHdsuhnsZZt27dj+JIid3WHAYGBu4LsOshWihb7XrTUKdsBXMRWrlBArq1tOziCAA9i9sbKx8EdJIO7eXQOQMAAIDW44nI+nPh4sQrr77mFZLGRhr53T+/p/E21ZZuFdBqn4UNGzboOGi7oXry+uqn+vseHZo1S+P9fWuHrgeFltmhR/ty6R+3NTuYnMaJbZKGGgie7vWhtbbFBGm0WCPM7lvbHz/e+ECfV9Id1HMDeN99943GeeCBB+y25oCAbhGtuTgCQC/j9sbKZ0kE9Jl/X/zyY78wNbGaH0tvorLJrP774n+NVqtJPh1qcjv0YQMAAEBH44nI+tPX1/d3f/c/eYVdkAsXJ5777fOaHMMe1ZHILt7WhuTdP7+n5lJpiIPuSgGt9vnYsWOTk5OBhTbjoO226snpq7t6VJbX7gvNajG+e+1QchrH3eSY5dmhR0NTf31orVrpkKSAdhR/O3KvzDfO3b1nFxyqvQEcGBjQwc4PBOhyxH333WeXmjMaenR0VB5AUjRroWy1601DnbIVzEVoZQQ0AEAKbm+sfJZEQOe44//6uTlyJJ09VS2r33weLMsRFhePhOXVJp+aTK50/vLI60dKn6kRHceaHjYAAABAXXgisv5o38krbGz2vLa3fI4cfdvbvbY899vn9akpqXJZCu3mANnFq9CQvPLqa3Jw+akmuiFn6T4BHdlnWZ6cnFyxYkU99lnI7Kt7brS6W4OeEtCVweBybzW7b+3afeP+8PDARIcCOmvweH9wtHbh3qf7B7fsHokNe09wfWT3lsHXPvYnCK72BnBPgPplXRBkQafj0IUHHnhAFlqgg1uPOmUrmIvQygjoKpibm5utHrtzLtPT01u2bPnmm2/suoNseuutt+xKwIEAu5KGbN25c+fdu5X/97l06dLGjRvlUHY9QE4n1aKTRo8h58EA9A5ub6x8WiqgA2vs8c3nVjor1i+HiQS0LGRRcjC1m3xqMrl5nT9/IIP0Mt3Kfi9TDuX95V0panrYAAAAAHXhicj6o4rIK2xgjhx9e02V7Hltr3eQGqIC+t0/v5c/rlm2aqRyAwV0dFJ5AH/3d/9T1MKyLIlOVPNo6C4T0A23z0JGX92MYvGG687uW2snmgjuI7KRO4ieEtDj/fGRzgGzQ496N1YRpjw2+UaDxv00mO+nR14aHNy2/2zW9899P3Fo2+DgSyNTiYHStd0AqmuWhXXr1ul4ZPmpQ57VSptK3Yg6ZSuYi9DKCOgqmJubs0ulSRXQo6Oj9rM3F1XGd+/e3blzZ/QfJqkq2UUq2P1DZN8DBw7YlRBV2LpJd4yWEdAAgtsbK5+WCuhggHNFMYfjoGOF8bgCOnVYtLtcPvnU9EGOgAYAAIBexBORNefdP7+nGlTVkSzIajMmg75ydWrLlq3l0xD7LFEBfeHixD/8w/9btW9OpL5UbpSA1iHPemRdiESzbJLHo4XyU6itzbtJQDfDPgupfXXjl9Olask5i3tIQBsvb6k85WAc9GxlbuiAcAS0EhnqNm6r+bP7tw0O7h1PU9DzZ4e3Zenp2m4AEdBl0MoI6CqYm5u7du3aeMj160ZpnDt3zq6Pj3/33Xd//etf7cr4+CeffFLGWY+Ojsrr8je/+c3vf//7VLMshbJVfn7zzTfyUrYKOY5a6ajmgQDd/dKlSzrSWc4im7RQkcItW7ZIYc6RvcHUAD2C2xsrnxYLaMmR2UA3O3NopApoqVbh3xe/lEi1QFirdDbjpmfbSkDngYAGAACArsQTkTVHNej69b/QvlO06lXr3EQCWlWvPMHUqCaW+lKnUQJaT6dtm3pMKZSTyk+po2evNl0joJtkn4VkXz0wqtFdgHcLYG4uYncQ6bSxVK2GnBuZaNP4QP+43DcF05WojO4/5U+yod7ZCmhzz5VOcLw2I5hkY/dxX69NH989OLjt4IUFux6nthvApRLQevDk8bVQH1JTUadsBXMRWhkBXQVzc3PfxZFCuxTy17/+1S4F5Ato1b6jo6PTwaDjmzdv7ty5MxLHLlJHkE2pOlh3v3XrlquYpfKlS5ekclToLkfokYXoyHo0eWxaAaA3cXtj5dNKAX0mYxqNM84UHJZwhujIL9uFt4yGNsufm7gVqko+NX2Q53X+dAR0ZYADAhoAAAC6BU9Elsy7f37Pta5SEpnZiMiErl//i6hmzXNELHnkCeo8GPK89CmnRjbpE9fK9Ue9s3e05377vLan56OlmlSuwft3h4Bunn0Wkn119xbAjuSNEd4UpInUcIRvDwloQyighdgw58QIaGmiqD3Naht/A2FEMAw6NtRZB0YnrXREbTeAke1tsYCWs9wXYNdDtFAfSVNRp2wFcxFaGQFdBXNzc9fjSKFdCvguENB2JSBLQKt6FtTzus5X59AYTUxSLuVRfY+kMpbdVUDrKOYkyeNHIKABBLc3Vj6tFNCVxL+EsDICOl4ucQV0Fm0joPOtsfOXdNn/Gx+CgAYAAIDOwBORJfNc2jfyyc/IQUf2WZVohCdMOzElBXSjok3ttpucQkrWr/+Fumn3dFq5NwX05OTkD37wgybZZyGvr+6PR4lzqt9z0868xj0koN3BztIggYCWpx/n//X/1X+lfVRDp7FWD9iGmPHO0RcSBmOitw1nTg0t1HYDuFQCWg+ePL4W6kNqKuqUrWAuQisjoKtgLpiCQ66eyvVAQNuVABXQdiUgKaDvBnM6yytSfloZnI1cr6WmLETDkw/EZ3PW8kgZC7Igqyqg9YyKrLrSWR+GHEGOL/X1LFnk2GqAbsXtjZVPpwjoxiaf2j7IzQDnfLL+450R0AAAANCxeCKyZCIr6o3MVQftGVgplOhExq5IrTlXrk5pckqiQrekIWmxgJam09bWyZ21GaOB5LI12iSFslyDfZZ0h4BetmyZLjTcPgs5fXVHKNs/nbQrCgI6ovQI6HDT7NCjlRsrKffbtu24NfZq8IWEs8Hg55dGpr+3G1Kp7QYwsr0tFtBLjjplK5iL0MoI6CrIn08jlZxdPCPs4m2anp6WF24koKNNUXmWgI4ss0eks6Md9YA6W7R7QC0H6EHc3lj5tFJAm1mbE3zzeTgrtNTJEdCyKZXZSuXyyaexJtf833v8q0WMqnZLEkMeUvqdJWjswwYAAAAogyciS8ZVoiXTKAF96uMz9iZzzZqf/ez/J6vJkitXp+x6WOIdpJ60WEBLXOm8PjHLs5xRpbMK6NomOekCAa3zbygNt89CZl89Lk+FmFoVmIIjQgX09aGhYIBzsYCOmm5g3NyUdcJEHHbeDSHjiwddarsBRECXQSsjoKugvICWK+zk5KQs5Ato+yGcRo6AtjUC8kdAq4C+dOmS7qjHjCyzHtkT0FItWQ7Qg7i9sfJppYCuJC6aj8w6ljkpoD9flDf2kcQmiX4PoVtSMvlU+UHuf/dFHkGnBwENAAAAXYMnIkumfQT0latT+QJa6HQB7ZplaUDv+LLqCuiqfilRukBAHzt2bFuAipGGk9FXdwxyXDS7djX71qD3BHTQNubbCHXBbojhG3xbWajlz0yXgOvvv/bia++XeKi13QAioMuglRHQVVBSQOs8R/qzZSOgdaEeAa2VtY5bnvM4AboYtzdWPi0W0GYq51krmr905nc+81ZQIW6Z7YhpLZFNqTACOqSxDxsAAACgDJ6ILBkV0PLzQmIKDjWwbrksSxoloCU6t4akqpJGpfUCen0w17MKaGnJqOUl7iYV0LW1cBcI6GaT1lcfjynn2C3DeH/OcN2KUfX26lRybmTcTeEoZmm3QCW77aA89bugxGw191xKpSV15FC/Xet8arsBXCoBPTo6KifSM7poYQsknjplK5iL0MoI6CooKaAnA/T/+poxAjraFJVHTjkS0FpNnXIZAS3IazRZ7h4BoKdwe2Pl00oBbe2zLIei2ajnzx3p7AjoI9JNcOVy3E1r2mMEdETQoUl0ARHQAAAA0MV4IrJkVEArf/d3/1PkRv8h+H48LZRVrawlSkME9NKmxQJaFbOOcdZo48tZghatDHmWBtdNbuWS6QIBPTk5eawEtnb10FfPIadxaLccamucH/3oRyp8ZWHdunWyID9lWRakvHkCWg5+X4BdD9FC2WrXm4Y6ZSuYi9DKCOgqmJ2tTmEUCmg1wkm8TSqar169+tZbb8kmq6gDVBm7Tln4JtTQrj5OFdCyLK/LmzdvSolUMDsH6I56CqkgB7QbAHoGtzdWPq0U0JU4NtlMshF9zWCaZbaRTam02Qhoo5vjNjldQBeBgAYAAICOwBORJaOuOUpUYntCAeqgvZqqqjs0+uBLCmh54m55zVkfTPrsHU1WX3n1tecSI9Al0vK9KaBXrVq1oogNGzbY2tVDXz2HnMah3XKorXFUN2fRPBGMgG4RDb84lmS2JuzOdXDp0qVIBKdqaymM9LG6Y63jCei33npLDiKH0q1SIqsff/yxHtnsDAAhbm+sfFotoEOPXPnWwaJhzjZpm9psBHQMxzJXPdcYI6ABAACgU/BEZM3Rgbr/EDpoHYqbI2o7Lq+8+pqaZfmpDjo18qy1mjZCtHvNuRDMuSHNK0eTI6ceUzdJHX0A3tYy6QIB3Wzoq+eQ0zi0Ww40TlWoU7aCuQitjIBeAg7kTr7hoqZYfuqCiztIeePGjdPT01ouNSMZ7SKF7kFkdylR7yw/VUxnkTw7QNfj9sbKp9UCuj2ST4d+kNP/AAAAgNbjicia8+6f31M32hdwIZgOohnjna9cndrz2t4tW7aWT0Nmgpano8/rH4IxzjmRClJfKqfK4hqi02frkXUhmnZDWjgqlJ9CtKmqIKALoa+eQ07j0G450DhVoU7ZCuYitDICGgAgBbc3Vj4I6CQd+kFO/wMAAABajyci649qUK+wgTly9G07aqk0sot3kBqiAvrdP7+XnPXCjWzVSOVGCWg9oC7rQGyJruqySmepU7PxR0AXQl89h5zGod1yoHGqQp2yFcxFaGUENABACm5vrHwQ0Ek69IOc/gcAAAC0Hk9E1p/APzdRQF+5OnXk6Nt7XttbPt4RaosKaOXvwu9dTMbWCGiUgPYSqXCJLNQ25NkLAroQ+uo55DQO7ZYDjVMV6pStYC5CKyOgAQBScHtj5YOATtKhH+T0PwAAAKD1eCKy/gTqtYkCeqlyIZhUJIq3VSN1Xgm+G1ATDVtubNQ7R9Q86tkNAroQ+uo55DQO7ZYDjVMV6pStYC5CKyOgAQBScHtj5YOATtKhH+T0PwAAAKD1eCKy/rzy6msNUaIkJzrbhqRRjhsBXQh99RxyGod2y4HGqQp1ylYwF6GVEdAAACm4vbHyQUAn6dAPcvofAAAA0Ho8EZnIt4mSZiR5Fs7bjGSeBQFdCH31HHIah3bLgcapCnXKVjAXoZUR0AAAKbi9sfJBQCfp0A9y+h8AAADQejwR6eV2oqQZSZ6F8zYjOWdBQBcyfubCzGx1d1s9gjSLNI5dSUC7ZZHfbpBEnbIVzEVoZQQ0AEAKbm+sfBDQSRDQAAAAACXxRCTpzSCgC7lx8/bo2Glcqoc0iDSLNI5dT0C7pVLYbpBEnbIVzEVoZQQ0AEAKbm+sfHpQQP+Hf7aPPwsENAAAAEBJPBFJejMI6DLcuHl7/MwF6bSTKNIghRaVdkumTLuBhzplK5iL0MoIaACAFNzeWPn0oID++Xb7+LOQj/OO+z92ecDysO0KAAAAQKvwRGRavmvmDMVyZDm+V6jhvA1MznlNENAA0OaoU7aCuQitjIAGAEjB7Y2VTw8K6I+KPO2NTvs7L/4CCwAAAJYKT0RmJM9d1pf8I3PeRqXgyAhoAGhz1ClbwVyEVkZAAwCk4PbGyqd+Af3z7WZSC0/ytmHkQcpDLbTPSmf9nRd/gQUAAABLxfy3C56LzEnwLXb1j9L9ttrv3OO8NaWK8yKgAaDNUadsBXMRWhkBDQCQgtsbK5/6BTQAAAAA9Cx3/3rPc5GkB4OABoA2R52yFcxFaOVOFdDf/vt3hBDSvLi9sfJBQAMAAABAPXy38FdPR5JeCwIaANocdcpWMBehlRHQhBCSErc3Vj4IaAAAAACok7t/vVfVXBykayK/d/ntI6ABoM1Rp2wFcxFaGQFNCCEpcXtj5YOABgAAAACAekBAA0Cbo07ZCuYitDICmhBCUuL2xsoHAQ0AAAAAAPWAgAaANkedshXMRWhlBDQhhKTE7Y2VDwIaAAAAAADqAQENAG2OOmUrmIvQynUJ6O3btz9eK7Lv7OysPVCVyMXRU0WEENLYuL2x8kFAAwAAAABAPSCgAaDNUadsBXMRWrl2Ab1///41a9aoSq4W2Uv2PX78uD1WlcjF0VNFhBDS2Li9sfJBQAMAAAAAQD0goMtw4+bt8TMXRt47RaJIg0iz2AbKgHZLpky7gYc6ZSuYi9DK9Qro2kYxnz9/HgFNCGnnuL2x8kFAAwAAAABAPSCgC7lx8/bo2OmZ2epuuLoeaRBplhyXSrulUthukESdshXMRWjlpRHQshcCmhDSznF7Y+WDgAYAAAAAgHpAQBcyfuYCFjUVaRZpHLuSgHbLIr/dIIk6ZSuYi9DKCOgW5S83bn04fvazC5/LgreJENKGcXtj5YOABgAAAACAekBAFzLy3im7BAlyGod2y4HGqQp1ylYwF6GVmyKgz58/75Z7q0KvCejPv5ze/sobrw6/rfnswudeBUJIu8XtjZUPAhoAAAAAAOoBAV0IrjAHBHRt0DhVoU7ZCuYitHLjBbTKZfkp/PrXv3788cejn1Li1ukdAf3q8Ntvv/+xLOg4aFl1txJC2jBub6x8ENAAAAAAAFAPCOhCcIU5IKBrg8apCnXKVjAXoZWbKKCPHz/++OOP29LFRVk+f/68LveagN7+yhvRzBuyIKuffzkdbS3M7bk727Zt/+TTz5KFEllwy6O8/vpeiVeYjNTRI8vP//gP/5Aa79SE9ELc3lj5IKABAAAAAKAeENCF4ApzQEDXBo1TFeqUrWAuQis3dwT0448/vn37dlmw20KkpBcE9KvDb29/5Q1NannJ6Tg+v3L1v/yXzTOzN6IStc/vvPuuJip3E9Xxyr24AjpHZxPSa3F7Y+WDgAYAAAAAgHpAQBeCK8wBAV0bNE5VqFO2grkIrdxEAS3L58+f3759u86/cfz48ahyLwjozy58/qejo59/OS3xvnhQVrW8cDoOlcjuYOR33n1XCnfvfunzK1e1To6Dnpm98etfP5M6ftk78i9/+eRbhw8joAmJ4vbGygcBDQAAAAAA9YCALgRXmAMCujZonKpQp2wFcxFauWECWhZ0WX5quaJbz58///jjj8suuirlXS+gPxw/q/M+5+Tz4MsJvcJkokHKks+vXP3lL5+MxLG64927X8qabUPKc7Syamh3BPSpj8fdg0t+/etn3MHXhPRI3N5Y+SCgAQAAAACgHrpbQB87dmzZsmUrVqyYnJy0RdWDK8wBAV0bNE5VqFO2grkIrdwwAb09QBbOnz8v5Vry+OOPRxV0HLQu94iA1hk2vOHPblRASx1Z8DZFmZm9sW3b9g/GxtQOZ9nkd959N+mgdQT0f8yexFl1tiug9eCumCakN+P2xsoHAQ0AAAAAAPXQxQJ627Zty5Ytk5+rVq3asGGDLa0eXGEOCOjaqKdx1q1b96M4UmK3NYeBgYH7Aux6iBbKVrveNNQpW8FchFZumIDWMc6//vWvpVAWpEQ2yYIWyk8p76kvIfzLjVt/Ojr66vDbkg/Hz3pbNVpHsv2VN7LqqFmO7LCsRmOTI0GcnCRaIxV+/etnVF6namupIMd5/vn/IhVcu42AJsTtjZUPAhoAAAAAAOqhWwW02mdhw4YNOg7abqieLFc4u2/t2n1WUilS0jcwblcM4/2PDpkap/r7Ulg7dF2rVTBHSCsPGO+PNiUPGDtv66hJQMsTyXzAThvODj2qzy1ibVDeDdQjoO+7777ROA888IDd1hx6WkAr58+f97SylAhetV4Q0FF0KHTOGGfJX27c2v7KG6l1Xn99b2ScdbYNnfFZfn7y6WfyU5IqoFUiy9YsmyzlcrT//J9/LXX0LFLtwsVL3hQfyYHVhPRC3N5Y+SCgAQAAAACgHrpSQKt9Pnbs2OTkZGChzThou616sl2hMaSRg07YZ6EioD1VHezri+bxgb4+qW/kcr97oMBKx7BHuz60Vo+/dFQtoOUxy9M7FWu6gMBKx7CNIM3SX7utbS737tqFPO7eswsO1QrogYEBHez8QIAuR9x33312qTmjoUdHR+UBJEWzFspWu9401ClbwVyEVm78lxCWoacEdI5cdvOno6NZg6Aln2SMgM4R0LI1mr7ZXY4ie+3e/ZJE3XR0ClnOctaE9E7c3lj5IKABAAAAAKAeuk9AR/ZZlicnJ1esWFGPfRbSXGHSlroYc2psckj/QGp1V0CbA1aErLG0la2zZqj1UH8oZIPVoGaK1241VQnowKRX3LppooqylxboH6oMKjerwbbZoUcru7QV9z7dP7hl90j6cPWQ6yO7twy+9vG8XQ2pVkDvCVC/rAuCLOh0HLrwwAMPyEILdHDrUadsBXMRWhkB3Ypsf+WNnJmgNToZtFcYJbLDapylRH5KYZaAluVf//oZral5/fW97qqWyBH0p6xGp5BlBDQhbm+sfBDQAAAAAABQD10moBtun4UMAV2xohUjbHA3pYyADitXRkAHqjrpWM0YYTMgWlfcQdBSGIwjdlmqMcJlBXTwgFN0eTCXSPjgjYWPkEJX4hseHdJ67cL30yMvDQ5u23/W18sh308c2jY4+NLIVGKgdLUCWlHXLAvr1q3T8cjyU4c8q5U2lboRdcpWMBehlRHQTcznX07r/Bt/OjrqbYrylxu3pJrOFu1tcvNJMFmzTsFRZgT066/v9abOUCUdOeXbc3feOnxYfnoC2j1+lGgvQnonbm+sfBDQAAAAAABQD90koJthn4UMAZ1DGQEd4MxHkYLsa/zs2qFPpZo9pt1ddgzdtLCEk1SUEdDGI9vnkoJ9+gPjUi1sGSvxY88reMp2uX2YP7t/2+Dg3vE0BT1/dnhblp5GQFeFOmUrmIvQyrUL6OPHj69Zs+bXNaHfSdjdAvrD8bPbX3nj1eG3337/Y29TFJ2dQ+ukDpHWkchqgVNHQGs1T0C//vreaCyzG6n/y18+KZXdwtQR0IQQtzdWPvUL6BnpOBJCCCGEkHbKX2ZuNSrX/3JTMn39xlfTs9e+mpm6dv3qF199fmXq8sTVi5c+P3/+8mdnL3hnJ72WrhHQTbLPQoaAroxZzhsBHSjW8Qz3Gg1wrpA2q4bxsPuCEcQD/dY7WwFtp6docwGdwD7sGMEzGgoGg/eHT8c+L22T9hTQQjDJxu7j03Y1ZPr47sHBbQcvLNj1OJ0loPXgyeNroT6kpqJO2QrmIrRy7QJa2L59++O1Ivvao1SPXBw9VdSG+XD8bI561nz+5fT2V97wClMT2eF8Aa3COscjyy7eiGYENCGpcXtj5YOAJoQQQgghyXgO2hXQX3w5/fmVqYnJLxDQRNMdArp59lnIENA59I/rBBpC4ItdQx231QlypnW2FjuYuKP7BLQlbLdgbujOENB2GHRsqLMOjE5a6YjOEtBylvsC7HqIFuojaSrqlK1gLkIr1yWglwq5OHqqqA3TPAE9PPynX//6GR3LrEJZ8vrre9U+y4K3rxfZS/ZViy1xBbQeKpmoMiG9E7c3Vj4IaEIIIYQQkhoENCmZLhDQk5OTP/jBD5pkn4UMAV1RqHkjoCMBPdDvzdoceOqgjl1NxR5qvPJ9fUbRmgHR5sj2XO0voKUF7BNKw7be9aG10VcvnurvCwZEy/OyzdvGAlow452jLyQMxkRvG86cGlroLAGtB08eXwv1ITUVdcpWMBehlRHQzcrnX07r7M85yZ+ggxCyhHF7Y+WDgCaEEEIIIVmJBLQEAU2y0h0CetmyZbrQcPssFLrC7EHNVkAbQWyVcUTGKOCMKThiDIyHI6Cd47e3gI6T9tyNfXYxJlqflzSveXbtLaAXF2+NvRp8IeFsMPj5pZHp7+2GVDpLQC856pStYC5CKyOgmxj9EsL8eLsQQtokbm+sfBDQhBBCCCEkK1kC+srVawhoEqULBLTOv6E03D4LSVeYN5o3JDDCKoiDccpWGUc4EjYY7Ws3VQR0MNI5PHNFMUtlOxTaDivOcN8torSAdp9OxnOvNJFUCIdCm9YzzZki69sNnXdDyPjiQRcEdFWoU7aCuQitjIAmhJCUuL2x8kFAE0IIIYSQrCCgSZl0gYA+duzYtoDJyUlb1FAKXWH+COjxfWvtmGUjUl0cqRp5WCugXQNriA2CDudH1iOYhZjabimlBbQQOehQQDsy3RBronCqazXswUKk49uX6++/9uJr7zu/uCwQ0FWhTtkK5iK0MgKaEEJS4vbGygcBTQghhBBCsoKAJmXSBQK62dQmoK0yHhiyKrkyvFdRCWucbBHWMjsjoOWY8YHP7jji1lJKQMvDK8JaZncE9D7Zy3H0QVvZxc6nswT06OionEjP6KKFstWuNw11ylYwF6GVEdCEEJIStzdWPghoQgghhBCSFQQ0KZMuENCTk5PHSmBrV09trrBHKCWgIUHNAlqFryysW7dOFuSnLKsgbp6AloPfF2DXQ7RQttr1pqFO2QrmIrQyApoQQlLi9sbKBwFNCCGEEEKygoAmZdIFAnrVqlUritiwYYOtXT2I1BwQ0LVRW+Oobs6ieSIYAd0i5OLoqSJCCGls3N5Y+SCgCSGEEEJIVhDQpEy6QEA3G0RqDgjo2qBxqkKdshXMRWhlBDQhhKTE7Y2VDwKaEEIIIYRkBQFNygQBXQiuMAcEdG3QOFWhTtkK5iK0MgKaEEJS4vbGygcBTQghhBBCsoKAJmWCgC4EV5gDAro2aJyqUKdsBXMRWhkBTQghKXF7Y+WDgCaEEEIIIVlBQJMyQUAXgivMAQFdGzROVahTtoK5CK2MgCaEkJS4vbHyQUATQgghhJCsIKBJmSCgC8EV5oCArg0apyrUKVvBXIRWRkATQkhK3N5Y+SCgCSGEEEJIVhDQpEwQ0IXgCnNAQNcGjVMV6pStYC5CK3eqgLZLAADNwe2NlQ8CmhBCCCGEZAUBTcoEAV0IrjAHBHRt0DhVoU7ZCuYitDICGgAgBbc3Vj4IaEIIIYQQkhUENCkTBHQh42fkbVLd3VaPIM0ijWNXEtBuWeS3GyRRp2wFcxFaGQENAJCC2xsrn7YQ0Ode+nHfT3aeC5bffrqv7+l33K1B3pHiQn780oXEjjl5992R11/fOzg4uGPnzoNvvCmrXgXS7Tn+L8kXm3k1JgrlZamvLrM1g6ePx3YJE7x0w5d3euRh9P3L27o8sTPlBPm7L1ViDzV8/LFNTqEpidepLidOfOy9YaXkypUpr1qPx7zYqrwMyi4/3jURuwibyO8r/i6I3gLecnqCF0CVj4SQVsT0MdJwX67Rp4B/wQ/eI95nhKxW9o1dFVNwPiYu7PpJZTV6T3kPr23eRC0T0G6zmOUE5nrl7uL8Okx9LjtLGgR0ITdu3h4dO41L9ZAGkWaRxrHrCWi3VArbDZKoU7aCuQitjIAGAEjB7Y2VTzsIaCNNKndlroyrJsVOpBK5Tdqxc6fk9df3vvvuiCu2GMLTWwnu9iuvN3Mr+5Od5yYueMI3enV56iFMTCV45X1P7wx+JvZKVRVhtZjUWMqkKgCL/wjNm1dJvIVrF9BXrkzp2zOJvGH5f6N4qr5+WgFtlmP7+i9p9wKbvNgG76NCfHNEyJIl7YqUvM7HLvjyBkkIaLPs/c9N5hsw3tWJv8WiU7tvrrb5FJAslYD2LhrO9crGqV/7pwxpVBDQZbhx8/b4mQsj750iUaRBCi0q7ZZMmXYDD3XKVjAXoZUR0AAAKbi9sfJZegFtzIV7/6YlSVtXFPe2LTdyjzQ4OPj663u98itXpt59d0Q24aB7IKnyN459OVWkqvDjp58uL6CNbggrmwr+jsHd8i7PZTj1EwdskyQVQDypFqBGNaDv1nx27Nzp7ZWa8TOf/WHbjvJ5483D3hHaLuZSWYbwAluyfqrNcS+wyYtt6csvIe2QygXWtcnRyzgqtAuqnn0BHVzV472X3AudK6CDT4ckT7/jvpXkRG3ztmqFgDYNW0GaMWhhn/inj9Pg0nQZ1PDRQ2oLAhoA2hx1ylYwF6GVEdAAACm4vbHyWWIBHdxvJGWWe58mSb0JiSGVSxsQHfjsFUaRTSV9Funk+JpAXmOx16H3coqJiQycV6zV1vEXZJatcEm/5W4bB6GpQkBnNVesrTJz5cqUdcwO8va0Sw4H33jT2zeZ48fH/ulfNpXPK69lXiXaJaUueqE1k+W0+ub1lvXrkPp6ac0kYe6SL49SD5KQFib+mqy8BaJyc+EqEtDmfRG+/ispK6AlsbdedGr3scmJ2ua9syQjoItT+S2Yz1zT8tHvjixFENAA0OaoU7aCuQitjIAGAEjB7Y2Vz5IK6EDSpd9pmE25kisR97YtOzrGOWfqWHVe/F1/t8c3vym4L6fo1ZVxc+vcM9sjpzsIs3vlyGav6CzhkaWwzfxd6bYyLiCGM7674mXK+4XkzBv6n0Opw6LLuI/JyS/Kx9u3G5L2Wir763D3TR7HlDz9L0Wvk+ou6YQ0JUHHI4G5OkUv7Og6bxdUPevPzE+BIFUKaJfUq2jiDbtUab2AdttHmtRdDa8k+tlkfheVts377ZCmBwENAG2OOmUrmIvQyghoAIAU3N5Y+SydgA5uAvNuroIK5USVSdKJpOXgG28WDpZ8/fW9OUOkSVfE1wRyc5unfYPVd3Y9vfPt2M2tP9jT3PoGL1pPIjjISc2tstUZOoxOdnk6GqYaPpJQdpR7YTczflv5z9p7hEEj2PoVF1C1gD5x4mOrlh12BLO0y1vYrjv07B8uBC+nbLyXcRzzG5HC8NdhfjVB/fCY9jVp940OlXxNOiUFLw9C2jD6Loheq9GFyy4E12q9Ju9Kf7+Fr3lVotk4l77YlTA6tft+kbO3zXuntQJaPhDNdyfoR4ZcUmQh/GSsLARt9RPzC3IbyvzK4rRNG/ZCENAA0OaoU7aCuQitjIAGAEjB7Y2Vz1IJaCM4YncF5rYtpi3CQnuHlrypCKjs4t62ZWdHiW8tkwo9K7N6Jr5UrdzTamIvp+D/QvTFlvE6VNwDRolZhtSEx9QHED6SThXQ5vkq8qzNU6tRQKdaZkHem3YpgXeErBw/Pvab3/6XrPxh2w6vfvck8ao2v5FKYVhSqVCjgPbxKhPSFvGvbJWXcXThsgvyXggFtLwjKoXOG8QmcUwn5q3hXPoql0pFT+2+ueREbfPeaZGANm0rmMZ320ea1F2tfETG/0s4PEK8hLQwCGgAaHPUKVvBXIRWRkADAKTg9sbKZ6kEtB+56cq/Z0i7qZAbkooISzqRtJQU0OVlFunMGE1QgGsikmIiiK9i05LvW93/iTE1zTjrSEAHJyr3wm5mqhLQx/8lmIpB6ptqle9sbJiAzt9UJq+8tteb7tnNb377X7z67Rtz2SyF/X15vynVzeFL2rNjoYAueqfoLkv/KiWkXMwLPg15JUcv4+g6rwvy05SHxtl5yySu/1UK6Gg1OrX7VrLntfWXNq0Q0MHzlU/A+IXIJKWpz730L1IS/i7ccr+EtDAIaABoc9QpW8FchFZGQLeIO/Pfnj57eeLKNVmwRQDQxri9sfJpDwEdqhCzLPdvyVFF6TcVNQjoMtNrHCwxTQfp8PiaIPZakngvp7gd2Jnm/cLdi4SdoIcyL2kP88q3jyR6wZd7YTczflv5LsB9hG8//eNdxyv1U55jQMIvJJM60ln/NCF1dg7B3b3n4vwWshR/rNz8avRKa7Tavzz9E/mtxC+woW7T1fhv2XtN6pHNzyyW+DVMSDIJWRy9sL3+hpRXrvDOVq+aSeKYTsoIaP9N1DZvnBaNgI6aJeuzwxJempK/gpRfCmldENAA0OaoU7aCuQitjIBuBdMzN3ftPbzv0HHNxJVrdgMAtCtub6x82kFAe3dlwc1ewkGn3VTIjUrlnjDhRFJz4sTHO3bu5EsIiZfYaymZ8NWlr9XkaKxkSZSYZfDjOj67bB9J9Hou98JuZsoLaHkK8iZ16lfetpXC3AapJPkNhAICOivuL8Vr4Wg19oszvxr72pNywf7KYr9N1/I4r4HEa9I5sv9qMWdPXs8JWfokZHH0wo73N+Q1/C9vy9shrOxsNe+d2NUscUwnTmVTLQX9383ogHKiJb74V9JqAe2VBKQ0bPw3FZZ4xCuQZgYBDQBtjjplK5iL0MoI6Faw79Dx9098Kgs6DlpWtRwA2ha3N1Y+Sy+gU/1asjDlpsJQ8Smpx0nkypWpHTt35gyCVu3lFZKuSsZrKY1QnNlXl3UQMZEXJF7iqIr47XRwI+3eDDuOz1+OP4CljK9UvKdfeYL6N9HpCibPy6SmNQL6D9t26NTP42c+8zZ1UuT16bxUPIMTai/3Baa7BC9F+3awL0v3t2kNdVAh9rvzL7YprxB5PMGoav+dQkjbJPuiZF7z0YX6+L/oqz32joi2moM4b7e8C134ToyVmMrRmzG48ld2lxOV6NW0JksloPXjJvrpt23sd5FRQloYBDQAtDnqlK1gLkIrI6Bbwa69h6OZN2RBVqdnbupqGe7evbtz585Lly7Z9QAtFGTBFsU5EGBXspE6emT5uSYD79QAvYDbGyufJRbQ7q2CWY7j3qoV3lT4TiQzco80ODj4+ut7vXHQsqrOi/k3ejBy05tnyvTVFb7GjEdIEN/deAQtiW6nzV7+SzQSzUrF99mjGTHhHbn1SdGL5iE5b9i4FEhVMHleJjU6FbtHYwX05OQXv/ntf9F5nztXQAevRscs+wbHtLz5fSVevbYwWIhenPrLNUeQY5ov+IodOT3hkSur5qBPy+7ByxsZRNoz5q1RwX0NV/obcSMsr215Z5lXePDFAOFr27x97DsufswklTdmcPGPVoOj7ZT3nfcw3NUlzRII6OAjRhtfr0u6kPGbyi4hLQwCGgDaHHXKVjAXoZUR0E1k36Hju/Ye1tiigKi85HQc09PTW7Zs+eabb+x6aJ9HQ2xpnKiOXc/AFdA5Ohug13B7Y+WzlAJaPUWEf6MlN3KF7iN2s6f3J2Wi46B1KPS7745IVD1LiX6/GVNw9FqyBbR1xO7UxtHNcJSwpMg+RNhXuxw8epGb5WDQqPeyN8esSt02O8mnH0/qA676WehkOB45AroH/98o0MRpv4tA3DiYV9Q7Tycup6ZapVCPlqhsX/+ZBDPSyG823N1VbP4Rcl82hLQilRdqygvSebUHL+PUa509gv861+Rd6ORo4V6mWtrZrTmNHmT7vGVaIaDDPqE0oGkrp08Y+0U4YhoB3W5BQJfhxs3b42cujLx3ikSRBpFmsQ2UAe2WTJl2Aw91ylYwF6GVEdDNYuLKtcMjJ6Znbkq8Lx6UVS0vnI5DJbIdhxwwOjoqhXv27JmentY6gYJOt8zffPPNwMBA6vhl78gbN2589913EdAAEW5vrHyWUkAvaa5cmTpx4uODb7zpmmjdpEMvcdCELG1SRXP030UuKqYJIYQ0Iy0bAU06OgjoQm7cvD06dnpmtrobrq5HGkSaJcel0m6pFLYbJFGnbAVzEVoZAd0sTp+9rPM+5zAdfDmhXckmGqQsTE9Pb9y40WrjAFnds2dP1mwbUp6jlVVDuyOgP/vsM3vckIGBAXfwNUCP4PbGyqdnBXR+cNCEtEOSrjkVxAchhDQvCGhSJgjoQsbPyNsEi5qCNIs0jl1JQLtlkd9ukESdshXMRWhlBHSz0NHNE1euecOfXVRASx1ZsEUJvvnmm507d3788cdqh7Ns8ujoaNJB6wjoNdmTOKvOdgW0HtwV0wC9idsbKx8EdFZw0IQsea5cmdJ3YhY7pKeB9SCEkGYGAU3KBAFdyMh7p+wSJMhpHNotBxqnKtQpW8FchFZGQDeLO/PfHh45se/Qccnps5dtaRytI9m193BWHTXLkR2WVR2YLESCODlJtCIVBgYGVF6namupIMf5/e9/LxVcu42ABnB7Y+WDgM7Ju8H00F4hIaTFib4g1GXHzp28PQkhpAVBQJMyQUAXgivMAQFdGzROVahTtoK5CK2MgG46OhQ6Z4yzcGf+2117D6fWOXDggOpmQWfb0Bmf5eelS5fkp5AqoFUiy9YsmyzlcrTf/OY3UkfPItWuXr3qTfGRHFgN0Au4vbHyQUATQjoi176auXJl6tLlzyXeJkIIIc0LApqUCQK6EFxhDgjo2qBxqkKdshXMRWhlBHTTyZHLLodHTmQNghYuZYyANvo5Q0DL1mj6Znc5QvbaE6BuOjqFLGc5a4Dewe2NlQ8CmhBCCCGEZAUBTcoEAV0IrjAHBHRt0DhVoU7ZCuYitDICuhXs2ns4ZyZoRSeDtisJIjusxllK5KcU6mpSQMvywMCAbLLrwUhqd1XQmT30p6xGp5BlBDSA2xsrHwQ0IYQQQgjJCgKalAkCuhBcYQ4I6NqgcapCnbIVzEVoZQR0E5meuanzbxweOWGLEtyZ/1aq6WzRtiiNS8FkzToFhw5/FqQw8M8pAvpAgF0JUCUdOeW7d+++++678tMT0O7xI6K9AHoHtzdWPghoQgghhBCSFQQ0KRMEdCG4whwQ0LVB41SFOmUrmIvQygjoZnH67OVdew/vO3T8/ROf2qIEOjuH1kkdIq0jkdUCp46A1mqegD5w4EA0ltlF6m/cuFEq2/UAT0An9wLoTdzeWPkgoAkhhBBCSFYQ0KRMultAHzt2bNmyZStWrJicnLRF1YMrzAEBXRs0TlWoU7aCuQitjIBuFqfPXs5Rz8r0zM1dew/blVwiO5wvoFVY53hk2cUb0YyABkjF7Y2VDwKaEEIIIYRkBQFNyqSLBfS2bduWLVsmP1etWrVhwwZbWj24whwQ0LVRT+OsW7fuR3GkxG5rDgMDA/cF2PUQLZStdr1pqFO2grkIrYyAbhbNE9BvvfWWvJh0LLMKZeHAgQNqn2XB7pOB7CX7qsUWXAGth0oSVQboHdzeWPkgoAkhhBBCSFYQ0KRMulVAq30WNmzYoOOg7YbqKesKrw+t7bOs3TdrCxdnhx6Vgv5xu7o4PtDX30ViFgFdG/U0zn333Tca54EHHrDbmgMCukW05uJYJ9MzN3X255zkT9ABAEuI2xsrHwQ0IYQQQgjJCgKalElXCmi1z8eOHZucnAwstBkHbbdVT9IVjg+oZ04wEHnmxdl9qqPXDl23JQoCupu4V+av+u/eswsO1TbOwMCADnZ+IECXI+677z671JzR0KOjo/IAkqJZC2WrXW8a6pStYC5CKyOgm4h+CWF+bFUAaDPc3lj5IKAJIYQQQkhWENCkTLpPQEf2WZYnJydXrFhRj30WCl3h7L61zpBnl9mhRxHQXcu9T/cPbtk9Ev/9+lwf2b1l8LWP5+1qSLWNsydA/bIuCLKg03HowgMPPCALLdDBrUedshXMRWhlBDQAQApub6x8ENCEEEIIISQrCGhSJl0moBtun4WGCOhwQHSMLjDRvSygF7+fHnlpcHDb/rO+Xg75fuLQtsHBl0amEgOla2scdc2ysG7dOh2PLD91yLNaaVOpG1GnbAVzEVoZAQ0AkILbGysfBDQhhBBCCMkKApqUSTcJ6GbYZyHNFY73W4ecSv+4nfo5on8olNTRCOjuGApdXkBH85ZE7eDMWGLaM2gN0279p7R5pRllYe3QqWBy7UeHZDfH44fTap/qN5vkp+LMgmI2KbaCMxrdTNi91i7Xw/zZ/dsGB/eOpyno+bPD27L0NAK6KtQpW8FchFZGQAMApOD2xsoHAU0IIYQQQrKSJaA/vzKFgCZRukZAN8k+CxkCuvK9gvER0O6mwJ+GI6B7WEAHOj4wyGZl35C0T46ArsjloNzZcW20ySxruVpmPVTwPZDaqkHl0DhfHxo6ZY4c/ZrMVldV10Mwycbu49N2NWT6+O7BwW0HLyzY9TidJaD14Mnja6E+pKaiTtkK5iK0MgIaACAFtzdWPghoQgghhBCSGrXPKqCnr99AQJOsdIeAbp59FmoX0OEI3P5TlTq9KKCNF640l5IjoOONGbWSu+wc0zRy5eBy2GB3HUltC5WKs07bWg/BMOjYUGcdGJ200hGdJaDlLPcF2PUQLdRH0lTUKVvBXIRWRkADAKTg9sbKBwFNCCGEEEKSiewzApoUpgsE9OTk5A9+8IMm2WehVgE9O/To2rVmDmiz0D8QzR1RoYEOdKkoJaBPBbNk2BVLjoB2mkXKo3kzTJ04wab4wUMB7e4YERamPZ46MeOdoy8kDMZEbxvOnBpa6CwBrQdPHl8L9SE1FXXKVjAXoZUR0AAAKbi9sfJBQBNCCCGEdF9cfVxndP4NV0Bf/eKrz69MXZ64ioAmmu4Q0MuWLdOFhttnoTYBHRSOu19CqHWigc/RQkdTVkA7zaXUJqBTWixTQKdU1q1hncZya+zV4AsJZ4PBzy+NTH9vN6TSWQJ6yVGnbAVzEVoZAQ0AkILbGyuf+gX0pYkvCCGEEEIIIT2bLhDQOv+G0nD7LNQmoMcH5KcZ++yNw+0O7xxRSkAHWjnSzToHtDRaZKWD5UIBHTjryDVfH1qrB0wX0LHjB3NA24W1j65NzgfSGHTeDSHjiwddENBVoU7ZCuYitDICGgAgBbc3Vj71C2gAAAAAaDf+z8bxfcC9e/f++te/3r1797vvvpufn79z587XX3998+bNmZmZ6enpL7/80p4YepIuENDHjh3bFjA5OWmLGkpZAW3G+QZUBvYioCMCBx0Qynq3ZKjECGiDcdBKJJ0zBLSgXjtWWU9a+QU1muvvv/bia+/Hf+OpIKCrQp2yFcxFaGUENABACm5vrHwQ0AAAAACQxOrnAE9Af/vtt3fu3JGbcwQ0KF0goJtNoSu0AjoFBHS7MZ4+j0fL6SwBPTo6KifSM7pooWy1601DnbIVzEVoZQQ0AEAKbm+sfBDQAAAAAJCK1c8IaCiiCwT05OTksRLY2tXTliK1XegsAW3GRDvDpZeQmgW0Cl9ZWLdunSzIT1lWQdw8AS0Hvy/ArodooWy1601DnbIVzEVoZQQ0AEAKbm+sfBDQAAAAAJBFJKAFBDRk0QUCetWqVSuK2LBhg61dPQjoHDpGQF8fCubjaM7sz9VTW+Oobs6ieSIYAd0iGn5xBADwcHtj5YOABgAAAIAssgT0N998IzfnCGhQukBANxsEdA4dI6DbDBqnKtQpW8FchFZGQAMApOD2xsoHAQ0AAAAAWSCgoQwI6EJwhTkgoGuDxqkKdcpWMBehlRHQAAApuL2x8kFAAwAAAEAWCGgoAwK6EFxhDgjo2qBxqkKdshXMRWhlBDQAQApub6x8ENAAAAAAkAUCGsqAgC4EV5gDAro2aJyqUKdsBXMRWhkBDQCQgtsbKx8ENAAAAABkgYCGMiCgC8EV5oCArg0apyrUKVvBXIRWRkADAKTg9sbKBwENAAAAAFkgoKEMCOhCcIU5IKBrg8apCnXKVjAXoZUR0AAAKbi9sfJBQAMAAABAFghoKAMCuhBcYQ4I6NqgcapCnbIVzEVoZQQ0AEAKbm+sfBDQAAAAAJAFAhrKgIAuZPzMhZnZ6u62egRpFmkcu5KAdssiv90giTplK5iL0MoI6BZxZ/7b02cvT1y5Jgu2CADaGLc3Vj4IaAAAAADIAgENZUBAF3Lj5u3RsdO4VA9pEGkWaRy7noB2S6Ww3SCJOmUrmIvQygjoVjA9c3PX3sP7Dh3XTFy5ZjcAQLvi9sbKBwENAAAAAFkgoKEMCOgy3Lh5e/zMhZH3TpEo0iCFFpV2S6ZMu4GHOmUrmIvQygjoVrDv0PH3T3wqCzoOWla1HADaFrc3Vj4IaAAAAADIAgENZUBAA0Cbo07ZCuYitDICuhXs2ns4mnlDFmR1euamrpZB+iU7d+68dOmSXQ/QQkEWbFGcAwF2JRupo0eWn2sy8E4N0Au4vbHyQUADAAAAQBYIaCgDAhoA2hx1ylYwF6GVEdBNZN+h47v2HtbYooCovOR0HNIF2bJli3RK7Hpon0dDbGmcqI5dz8AV0Dk6G6DXcHtj5YOABgAAAIAsENBQBgQ0ALQ56pStYC5CKyOgm8XElWuHR05Mz9yUeF88KKtaXjgdh0pkOw45YHR0VAr37Nkj/RKtEyjodMss/ZiBgYHU8cvekTdu3Pjuu+8ioAEi3N5Y+SCgAQAAACALBDSUAQENAG2OOmUrmIvQygjoZnH67GWd9zmH6eDLCe1KNtEgZUG6Ixs3brTaOEBW9+zZkzXbhpTnaGXV0O4I6M8++8weN2RgYMAdfA3QI7i9sfJBQAMAAABAFghoKAMCGgDaHHXKVjAXoZUR0M1CRzdPXLnmDX92UQEtdWTBFiWQvsjOnTs//vhjtcNZNnl0dDTpoHUE9JrsSZxVZ7sCWg/uimmA3sTtjZUPAhoAAAAAskBAQxkQ0ADQ5qhTtoK5CK2MgG4Wd+a/PTxyYt+h45LTZy/b0jhaR7Jr7+GsOmqWIzssqzowWYgEsfRRvEmiFakwMDCg8jpVW0sFOc7vf/97qeDabQQ0gNsbK582EtDXFtf/0+IZu5LO9TcXf7jLLru88dvFF07a5SRndi3+8LeL1+1aBicXf/hPJm/EZ7lPHlmOtv5NuxyRWhij6Nm9EJxdI4eS80arUVKeY3BY+5iDp5A8hXn6iUP5KWwfAAAA6EmWSkBn9foMQf/H78wk4nXqsvnis48++uwLuxJgSryiCNl26uKNcDGFjP3iOE9BOn7myYarUV9OCrV76W5126RUF7dVIKABoM1Rp2wFcxFaGQHddHQodM4YZ+HO/Le79h5OrXPgwAHVzYLOtqEzPsvPS5cuyU8hVUCrRJatWTZZyuVov/nNb6SOnkWqXb161ZviIzmwGqAXcHtj5dNZAvqFVAlbJKAF2TFVECe7+9evVbr7QqMEtLlDyLqJCpBHqA9Azij3S8nzpj5H77BZ7VPAyd4W0Pfmxl9dv/pvl/f19a14eN3WD2dtucPsh1vXhhV2nJ6zpYuLU+/0r3t4hZQv/9vVm/ZNLNjixcWrI/2PrTQb7n9w9VNDE/O2OMa92bEtax+83xx15WM7xitHzTzd0rEw8YZ9pn1/s3LdwMHwGc0OPdrX9/DWc/d0VRnv7+vrP7W4eH7ryr6HtsZm9po78sTyvp8dbIenBADdT9alOPvyKyxMjQ8NrF0/7HwWmPrrVv6NuQQu/9u1qR8ThvmJoadWh6c7OOVeGO/NnZOr6I8eXN63dij74zbl1DkfNC2kNQJa+jlRlywvGT0W7T7Vxo2Lp1Qoy4JVyAlC4ywE/tn+ltxl5cbFj6sQ0NL30z6k7XyGhdrrcwW0LrgdTu3EvlDUw2wZCGgAaHPUKVvBXIRWRkA3nRy57HJ45ETWIGjhUsYIaKOfMwS0bI2mb3aXI2SvPQHqpqNTyHKWswboHdzeWPkslYAue5shCXvVpp/928Uz7hiQRKK+u1eemorsjrvv64H/1fPqDYBL1PXXfn9qpELOVj/BiayAPlk5r18tKZeDIc+x262MQdAF9LaAPveHlX2rto4Hr/250f6VfSu3ng82RJzfuvL+tUOT5q5/7sP+lfevP6KV31q//KH1B4PyhcmhtfcvX/9WoDFuHVl//0PrhycW7hlzO/TT5cufOJJUrnLe5T8dMi7h3tzYwMpKnYzTLSGmiR7eNDIVeI+FqZFfyapK50BA9/Wt/uOE2WQJBfTiwshTcd08+fLqZPMCdBa3JkZeXL96y7hdVao1j1NHNv5oeV/fih+/eC54X0ETyL4UZ11+FyaP9P9UflOGtfsqTnHixZV9j76s6je42qdex8x/sK0cGJuT092bktOt/MM5u2VxYVzO8g/Pj13N/G1nnTrzg6a1tEZAe5gOWDC8d31GF0U6TlEHKSullPTsxVMfW7tsBHSaPA4NtT/e+dTFi3WOgJY+WxUC2umvaj9Tn2DUa11aENAA0OaoU7aCuQitjIBuBbv2Hs6ZCVrRyaDtSoLIDqtxlhL5KYW6mhTQsjwwMCCb7HowktpdFXRmD/0pq9EpZBkBDeD2xspnqQR0CnELnCRrFLMQ08RFx1GiEceGtF3kfkCO6R5ZSty7Gre+OyAlSezhZaCPR2pG9xLeLn5J8JiTJzUP0rkJKfbgUrmnBfS5rQ/1bToeSYG5I0/0PVSxBoZzf3io75kxuxIo18AOmJqPOOLVVAssxtxb6/v+/uXKhvNyhvUJA23O2/+hXVm8PrQ2lFMZp1s6rr68um/1y5N2zbAwsqlveaCYAwF9/3Jj1qZ0mxAJaDXO0SBo46NTXTzUw5fX7/7r/rt//6v/039rk+xIc0mjSdPZRizJrfEdvwgsszDgCmhjHh966shsJDp/NRZeU1LN4+zBnz7U/+HC4r2plx99yKrMqZGhU7w5Gkn2pTjz8js7vH7tlpGJW1O5F165lPkfE4a5I+v7fly5Ep7qX35//3jwXxELo5uWP9Q/lvqnMCEZp878oGkxrRbQ4f+vmz6M9FKCDk9ePyqoUMo1p3Dj4sfBEGbjlk999lm+gDZIxVJ+uZCw81leQNsGCbZKE3kdUa+k9SCgAaDNUadsBXMRWhkB3USmZ27q/BuHR07YogR35r+VajpbtC1K41IwWbNOwaHDnwUpDPxzioA+EGBXAlRJR05Z+jrvvvuu/PQEtHv8iGgvgN7B7Y2VT6cIaO1YJ32rktS1JdHDuvH+kjF5ZL1P8EgtVJKnqMTRvkZAOyI4eV6vxAz8cR6nS46pT6e3R0DHMXf7ce/gK+DxAc89Wc794aHlaeXGeoQaooKjPAIiaVv2dC1jdnhtTOLECAT0wMEjTyxf/tOD4YN2BPTiwtivQulsZHRcZEPdjJxZ8K8qpJpIA9qmLMOpraufenl8amHMe1ea/5IJPbLwoXkH6OYM8zi+9W/s21/e4PrGP/jTH/PuaC7RpTjz8huR/z9/GQL6VOX3bqicxdR3JXIu+afO/qBpMq0T0IF6jro3kW8VtDcVWWbTCyqXgv7hbGXSjVMXbxRPwaHDpb/47KNg0LQ/ItqhWFJXL6ClUFpAfkqzJFvgBalT+HybCQK6DDdu3h4/c2HkvVMkijSINIttoAxot2TKtBt4qFO2grkIrYyAbhanz17etffwvkPH3z8Rm7LRRWfn0DqpQ6R1JLJa4NQR0FrNE9AHDhyIxjK7SP2NGzdKZbse4Ano5F4AvYnbGyufJRTQ5r4i0Xt2U+lDB4b0jUjyymrcvXpy1nTNE0fz4yhXfSTqvs8Eo55zRHDkmjMfv/PY9H4p/WYgrn2NgHZOl/oUouOYu45cZWwqZOjpFBDQEVOemBDKGeH5sf6HHuo/lZRZC2PPPPTQwLi/oXME9Pjm5X2PDmXoEBXQ44vXDzp/GB63OeaZrtx6fs4Mf35qpBrbBwV8ef2ud4kgNaTqcdDJd2VSQN//fLA5yzzOHXkiNgJ67q31jySFJjQS51Jcn4A2MzXdv/Zg8iMzU0CbAdcbt7y8fpUZPb9i1aahSzkXwlwBnflB03RaIaAD8ZrqVZNxBzubzljdfZho5o2sKTgivtCvHwwFtNnDn/G53BzQqtqzsz5NQKc82dzRGy0GAV3IjZu3R8dOz8wu9dxqbYY0iDRLjkul3VIpbDdIok7ZCuYitDICulmcPns5Rz0r0zM3d+09bFdyiexwvoCWClItxyPLLt6IZgQ0QCpub6x8llBAK0nDawj65VF/+swuc7MRmV9B7k/cvdIPElHUO6/YXmegjZ4reeSoshzQ3AkkVHj0IHW5cvBkEgI6csF6Xvf4WiIYqR2//XBPGmHOq/vqTV0ilV0Q0Io/a6dSxggHf2Wf9mfRC6cyJnHuIAEtD6BQQC8uTr2+tu/+TSNmpKdnc6RxHlr+o0dW9q1++aotgobwr/sR0A2INKNt0NIk3pUL45vNnMJm6udgCo7wMpJtHt05oOdHNv3o+cR/UkEjiV2KaxXQ5vdueHDj0bQrYqaANsc30+gHZ5RL5fK8mf1zBHTmB00LaIWADpHuUNZkGimbcjVusmuUwRefxeaA/ix9WLOp4494PnXxi4sf22WXYgEthL1T7XNa1xwWRv1AfRbRQtQbtCCgO4rxMxewqKlIs0jj2JUEtFsW+e0GSdQpW8FchFZGQDeL5gnot956a2BgQMcyq1AWDhw4oPZZFuw+Gchesq9abMEV0HqoJFFlgN7B7Y2Vz5IL6NSus9xjJG8bXAHtGWq/O+6R3zs/ubhejux0913cEmN+vVua4MiV2yHH5Epl3THzscW1rxXQ4YLdK/7I0+/K4k2RQtrTj+5kDPFH0qsE9/aqkGIUG+GpfWuXP9w/npzfc8p8V1X6aLUOEtBlRkAL9yZeXtX30DNjC0mbc+vgur6+lGHgUB/M+9yQSDPaBi1NyrtyYXzrj9RO9j34RPQlhGXM48LYM6uXZExrD+FdimsV0MrC5MH1D9k/+AiVdLB7roCuTDm9OPHy3/etHZ4NKgTELrCZp878oGkJLRbQ3pvUTawXFPR/JKldoFinMZeKVP7YfKWg+V5B45pvXPzYaOQbF0+ZfypDngPqHwEthN2zqgS0qRz0WqM2iaX8X781AQR0ISPvxa414JLTOLRbDjROVahTtoK5CK2MgG4W0zM3dfbnnORP0AEAS4jbGyufpRfQQa/a7TGbe4+0DrR3LxEZXsGXvOE9SU7cfd84maJo5fixXRyz7D4M8+B1kyejQ6oT0PEbD8GeLnhGUnI9cXzZMfZckoYaAV2C7Hv72YM/zTPCwcA69yv4QubH+x9evnZfckPA7MEsAZ1/utZTYg7o8OGd37qyb+Xzp0cSNsc8uyybAzWDgG5IGiCgzR9PrFj7x3Nz92R5duRXK8Mp0TPMo4NcQFY/M7Zwa6zfjJJesfqpI4n/A4P6SF6KMy+/EXkCWpj44yN9lVnvQ04/vzxHQFeOn3/w9K2ZHzStosUCOqUnExDbVKKn5/bWsjG+2LXJNQjoJDUIaNvfKyOg3eeV1sdbKhDQheAKc0BA1waNUxXqlK1gLkIrI6CbiH4JYX5sVQBoM9zeWPm0g4AWrMYNutFZwzf8PrdDpuRVsnvn5rxyuqiCcz+jB0weOfkwpI48eDlC6mMwW8Nj+okLaPP9h1IYPH33vLIpSxDLg4k1V/D4/Tu3tKePgHbJv7c/94eH+iqTFwd2IFJIWWOcdTaPvDG/5m/zNx2PjchTn5F3uiXhauLLA82Mt8tVl8vDc0ycmYig7+GVKxHQLYEpOBqSBkzBEZjHsUgczx1Z3/dI8JYpMo8L48//yExcMz6wYtM7c4v35saeeSicSx0aQfqlOPPyG5JugSPSBXTl9x5wqn+5nQp87uDP+la/Gn3AmP+HyP4tp506549pWkWLBbT3JnVjezhBx0a7MVI/tYOX02nMxgyG/uwL8zMFR0BXanx2sfYR0GHvSx+q/DQdv7DPpv1AV0BHjaDP1+r4sH5WO7QSBHQhuMIcENC1QeNUhTplK5iL0MoIaACAFNzeWPm0iYAW9JYj1eEqOfcSSU0cIzKwwYIrW+WYUXlqxz155OTDiO4KSh7BEte+3p2D3UsemNRJ1cpCqjhOFuqzTqTyLFKP0ztk3NvP7ltr/zJ68uXVfWt3nDe+IPj6qfCP6DPHOGfN5hFj4o+r+x7dcU6Oem9uzJ3ZM+t0S4ZqZTuNwOLC1MivVvatennCPDtPQOt3ZJm/KUdAtwC+hLAhacCXEAZzL1QEdOU7CQvM47k/PBKsyvvIDsiVyw7vlMaReSnOvPxaPAu8MPar5ct/cXBKPyWuj2x6OPrOVZeFkaeWP/TUkVk5XWwq8MWF08+b/+MMJsEPZmLR6fJTSQjo/D+maRUtFtApHZ6A1E3ae0xNVqcxxuzFU9YlK599sahTQqeNgA4rm2minRHQoW6OmetCB23HQIQdS+n4uUJZcQW0+3TkWdu+ZVQ/WMjrDDcfBHQhuMIcENC1QeNUhTplK5iL0MoIaACAFNzeWPksuYCWDrfeJ2inWXrhupqUuTkCOud2xeD15k+aOTdixCu4FAjoQA3bMci6nDC5NQvoWDsEB489ffcxB8ta38YdFp397Cy9LaCNS0oyMG7GuD0zpnVmP9y69m+XS/GKh9ft+NSqamOokzw6NBvN7Blj7dD1qaGf9K3YEnqre7NjW9Y+eL9sWrHysR3nHB+RerolZWFi36bVwUPq+5uV6wYOTthHmxDQUvX4JqmHgG4NI2cWYm98UmWkAW1TVoMvoBfGn394eTgFhxGafQ9vPRdIzzzzODf2/FN2FC0joJtC5qU47/IbkLTAEwcH1q38G7P/8r9d2//GRPrrZn5i6KnV5hsn73/Qm00lvKovf/AfNh3M+zpW/9SZHzR2e4topYCuFq/7FJHTaczAqORTxipnC2hbM1qNGefQOZcdAR31D81DDf6WzvTE4n226Fm4AjrWsYzXz2qN1oCALgRXmAMCujZonKpQp2wFcxFaGQENAJCC2xsrn6US0JFgzRnnYh1B6FKT9xLRQVzfGo1HLkzlaNmK1u3lR0c2j9lVzw62jlMeu08QdEfvAaQJ6PRhPnpk5yAmadY7z8gHVFqv5Cih3sIMXVz3BiYI2p0vr9/91/13mQ+6qkhzSaPVMPZZ8QW0MDu29bGVxjz2rVj9ix1jjh0sZR6ZAxram9YI6ErHryhuDydnr+r6NrMXT1nFrAI6JBoi7Uplz0fHKCegpecpnbeg/ykP9YVg/g3p6JpHHnTqok6a9iG9EdBCpbub6IsuFQjoQnCFOSCga4PGqQp1ylYwF6GVEdAAACm4vbHyWSoBDdDWzI31/8SOYQQAAOhlWiOgodPpbgF97NixZcuWrVixYnLS/VqM6sAV5oCArg0apyrUKVvBXIRWRkADAKTg9sbKBwENAAAAAFkgoKEMXSygt23btmzZMvm5atWqDRs22NLqaaArHB8w051VvrCk80FA10Y9jbNu3bofxZESu605DAwM3Bdg10O0ULba9aahTtkK5iK0MgIaACAFtzdWPghoAAAAAMgCAQ1l6FYBrfZZ2LBhg46Dthuqp8gVjvfrPPUlsAL6+qz5ItxgVijva2zHB8JDXR9amy2pUyaVWiLKCWhpov7Kw5WnFj54bZB0zFcCZDes+Sbhss3ehtQjoO+7777ROA888IDd1hwQ0C2iNRdHAOhl3N5Y+SCgAQAAACALBDSUoSsFtNrnY8eOTU5OBhbajIO226qn0BVmjWhO/z5SF+NhZ4cerYjULAFd7lBLQDkBHfji6BFmCmjz9de5OI1jS+K0fFz5vTJfS3E3ZXLAagX0wMCADnZ+IECXI+677z671JzR0KOjo/IAkqJZC2WrXW8a6pStYC5CKyOgAQBScHtj5YOABgAAAIAsENBQhu4T0JF9luXJyckVK1bUY5+FpCscetQKz0wCE+qNbhakJGXArwpZM6Q3jcDVVg7lmty4vF4Sygpo69blAdunFUefRTRQOv68Yk/Zjoxe+6g3dNrI68zB1M3h3qf7B7fsHslv/+sju7cMvvbxvF0NqVZA7wlQv6wLgizodBy68MADD8hCC3Rw61GnbAVzEVoZAQ0AkILbGysfBDQAAAAAZIGAhjJ0mYBuuH0W0gR0rvYNBy/nCWhjUZ1ZKUJyRkCvfTRvELR3opZRXkBXUOEekBgBbcxyNv3jTruZeUiCJjILaY3ZdL6fHnlpcHDb/rO+Xg75fuLQtsHBl0amEgOlqxXQirpmWVi3bp2OR5afOuRZrbSp1I2oU7aCuQitjIAGAEjB7Y2VDwIaAAAAALJAQEMZuklAN8M+C/UIaPWmSn/w9YNqis2mgfFAQ9tNSp6A7tgR0IEgdubHyBPQJUZAV4jGUy+FfVbmz+7fNji4dzxNQc+fHd6WpacR0FWhTtkK5iK0MgIaACAFtzdWPghoAAAAAMgCAQ1l6BoB3ST7LKS6Qk8uxwhtacUaB6rUmFbrUmOC1ZWwpQR0jA4Q0Ab36ZQS0PbpWZz6DtFzN/NvVEi31U0jmGRj9/FpuxoyfXz34OC2gxcW7HqczhLQevDk8bVQH1JTUadsBXMRWhkBDQCQgtsbKx8ENAAAAABkgYCGMnSHgG6efRZqc4XCbGXG51BAq3uND+kNJGxCuVYwmtVx2e1FdQLat+cOpkEiAV0eabelG/4cEgyDjg111oHRSSsd0VkCWs5yX4BdD9FCfSRNRZ2yFcxFaGUENABACm5vrHwQ0AAAAACQBQIaytAFAnpycvIHP/hBk+yzkHSF2bI4wlhRZ3hvNORZx+rGhi3HR0CHy/ER0EF5fJxvhaUcBF2dgE4su89dy8ezhpaHyj5v7Lm0xRJpejPeOfpCwmBM9LbhzKmhhc4S0Hrw5PG1UB9SU1GnbAVzEVoZAQ0AkILbGysfBDQAAAAAZIGAhjJ0h4BetmyZLjTcPgs5rrAyMDnuiwMi6SyM91tNbEY6h5LUDvitSNhT/bGJkisHrBwqZmxjR1saqhfQ5jGnCHchGhjuNaYZN501zFmOtvQjoANujb0afCHhbDD4+aWR6e/thlQ6S0AvOeqUrWAuQisjoAEAUnB7Y+WDgAYAAACALBDQUIYuENA6/4bScPssZLvCihdO+OI+M2DZtcmBQrWjd7Xc7hIKWU+zxg4Ym5tifCAYDmyO6cropaGsgLZu3TxZ15i7Ajo2zYh5dqZtzZOttEOFcLJsK6BNw6ZVayk674aQ8cWDLgjoqlCnbAVzEVoZAQ0AkILbGysfBDQAAAAAZIGAhjJ0gYA+duzYtoDJyUlb1FAyXKGZECMmTGO+eO3OHYFODTSxYSCY+tl4ZMc4D7xrhOxAv8rWLIxdDSegEIyTtTjCeokoJaCDJ96v3jyTaJB4QNRuyVk1YubdUfPmLPmnaD7X33/txdfez/5VRiCgq0KdshXMRWhlBDQAQApub6x8ENAAAAAAkAUCGsrQBQK62SRdYWA6PflrtHKFR4fetUN0Q6x9Vmzl/qPBdxIKjm9N8P/Z8L/IoSrHd0Y9GwluWSLxWkZAh6OVXXWeYP0ToaMPcIYz22HjhrVDR8NmjFosPvBZTuEL67akswT06OionEjP6KKFstWuNw11ylYwF6GVEdAAACm4vbHyQUADAAAAQBYIaChDFwjoycnJYyWwtaunNlfYI5QR0JCkZgGtwlcW1q1bJwvyU5ZVEDdPQMvB7wuw6yFaKFvtetNQp2wFcxFaGQENAJCC2xsrHwQ0AAAAAGSBgIYydIGAXrVq1YoiNmzYYGtXDyI1BwR0bdTWOKqbs2ieCEZAt4iGXxwBADzc3lj5IKABAAAAIAsENJShCwR0s0Gk5oCArg0apyrUKVvBXIRWRkC3iDvz354+e3niyjVZsEUA0Ma4vbHyQUADAAAAQBYIaCgDAroQXGEOCOjaoHGqQp2yFcxFaGUEdCuYnrm5a+/hfYeOayauXLMbAKBdcXtj5YOABgAAAIAssgT0nTt35OYcAQ0KAroQXGEOCOjaoHGqQp2yFcxFaGUEdCvYd+j4+yc+lQUdBy2rWg4AbYvbGysfBDQAAAAApKL2Wfj+++/v3buHgIYsENCF4ApzQEDXBo1TFeqUrWAuQisjoFvBrr2Ho5k3ZEFWp2du6moZpF+yc+fOS5cu2fUALRRkwRbFORBgV7KROnpk+bkmA+/UAL2A2xsrHwQ0AAAAACSx7jkAAQ35IKALwRXmgICuDRqnKtQpW8FchFZGQDeRfYeO79p7WGOLAqLyktNxSBdky5Yt33zzjV0P7fNoiC2NE9Wx6xm4AjpHZwP0Gm5vrHwQ0AAAAADdhzXHjSCYfiMmoOfn5+/cufP1118joEFBQBeCK8wBAV0bNE5VqFO2grkIrYyAbhYTV64dHjkxPXNT4n3xoKxqeeF0HCqR7TjkgNHRUSncs2eP9Eu0TqCg0y3zN998MzAwkDp+2Tvyxo0b3333XQQ0QITbGyuf+gX0pYkvCCGEEEIIIT0bBHQhuMIcENC1QeNUhTplK5iL0MoI6GZx+uxlnfc5h+ngywntSjbRIGVhenp648aNVhsHyOqePXuyZtuQ8hytrBraHQH92Wef2eOGDAwMuIOvAXoEtzdWPvULaAAAAABoN+zo5UZQZgS0PSv0KgjoQsbPXJiZre5uq0eQZpHGsSsJaLcs8tsNkqhTtoK5CK2MgG4WOrp54so1b/iziwpoqSMLtijBN998s3Pnzo8//ljtcJZNHh0dTTpoHQG9JnsSZ9XZroDWg7tiGqA3cXtj5YOABgAAAIAkVj8HeAI6OQe03Qd6FQR0ITdu3h4dO41L9ZAGkWaRxrHrCWi3VArbDZKoU7aCuQitjIBuFnfmvz08cmLfoeOS02cv29I4Wkeya+/hrDpqliM7LKs6MFmIBLH0UbxJohWpMDAwoPI6VVtLBTnO73//e6ng2m0ENIDbGysfBDQAAAAApGL1MwIaikBAl+HGzdvjZy6MvHeKRJEGKbSotFsyZdoNPNQpW8FchFZGQDcdHQqdM8ZZuDP/7a69h1PrHDhwQHWzoLNt6IzP8vPSpUvyU0gV0CqRZWuWTZZyOdpvfvMbqaNnkWpXr171pvhIDqwG6AXc3lj5IKABAAAAIItIQAsIaMgCAQ0AbY46ZSuYi9DKCOimkyOXXQ6PnMgaBC1cyhgBbfRzhoCWrdH0ze5yhOy1J0DddHQKWc5y1gC9g9sbKx8ENAAAAABkkSWg5U5Nbs4R0KAgoAGgzVGnbAVzEVoZAd0Kdu09nDMTtKKTQduVBJEdVuMsJfJTCnU1KaBleWBgQDbZ9WAktbsq6Mwe+lNWo1PIMgIawO2NlQ8CGgAAAACyQEBDGRDQANDmqFO2grkIrYyAbiLTMzd1/o3DIydsUYI7899KNZ0t2halcSmYrFmn4NDhz4IUBv45RUAfCLArAaqkI6csfZ13331XfnoC2j1+RLQXQO/g9sbKBwENAAAAAFkgoKEMCGgAaHPUKVvBXIRWRkA3i9NnL+/ae3jfoePvn/jUFiXQ2Tm0TuoQaR2JrBY4dQS0VvME9IEDB6KxzC5Sf+PGjV6HxhPQyb0AehO3N1Y+CGgAAAAAyAIBDWVAQANAm6NO2QrmIrQyArpZnD57OUc9K9MzN3ftPWxXconscL6AlgpSLccjyy7eiGYENEAqbm+sfBDQAAAAAJAFAhrKgIAGgDZHnbIVzEVoZQR0s2iegH7rrbcGBgZ0LLMKZeHAgQNqn2XB7pOB7CX7qsUWXAGth0oSVQboHdzeWPkgoAEAAAAgCwQ0lAEBDQBtjjplK5iL0MoI6GYxPXNTZ3/OSf4EHQCwhLi9sfJBQAMAAABAFghoKAMCGgDaHHXKVjAXoZUR0E1Ev4QwP7YqALQZbm+sfBDQAAAAAJAFAhrKgIAGgDZHnbIVzEVoZQQ0AEAKbm+sfBDQAAAAAJAFAhrKgIAGgDZHnbIVzEVoZQQ0AEAKbm+sfBDQAAAAAJAFAhrKgIAuw42bt8fPXBh57xSJIg0izWIbKAPaLZky7QYe6pStYC5CKyOgAQBScHtj5YOABgAAAIAsENBQBgR0ITdu3h4dOz0zW90NV9cjDSLNkuNSabdUCtsNkqhTtoK5CK2MgAYASMHtjZUPAhoAAAAAskBAQxkQ0IWMn7mARU1FmkUax64koN2yyG83SKJO2QrmIrQyAhoAIAW3N1Y+CGgAAAAAyAIBDWVAQBcy8t4puwQJchqHdsuBxqkKdcpWMBehlRHQAAApuL2x8kFAAwAAAEAWCGgoAwK6EFxhDgjo2qBxqkKdshXMRWhlBDQAQApub6x8ENAAAAAAkAUCGsqAgC4EV5gDAro2aJyqUKdsBXMRWhkBDQCQgtsbKx8ENAAAAABkgYCGMiCgC8EV5oCArg0apyrUKVvBXIRWRkADAKTg9sbKp40E9LXF9f+0eMaupHP9zcUf7rLLLm/8dvGFk3Y5yZldiz/87eJ1u5bBycUf/pPJG9dsgZI8shxt/Zt2OSK1MEbRs3shOLtGDiXnjVajpDzH4LD2MQdPIXkK8/QTh/JT2D4AAADQkyyVgM7q9RmC/o/fmUnE69Rl88VnH3302Rd2JcCUeEURsu3UxRvhYgoZ+8VxnoJ0/MyTDVejvpwUavfS3eq2SakubqtAQBeCK8wBAV0bNE5VqFO2grkIrYyABgBIwe2NlU9nCegXUiVskYAWZMdUQZzs7l+/VunuC40S0OYOIesmKkAeoT4AOaPcLyXPm/ocvcNmtU8BJ3tbQN+bG391/eq/Xd7X17fi4XVbP5y15Q6zH25dG1bYcXrOli4uTr3Tv+7hFVK+/G9Xb9o3sWCLFxevjvQ/ttJsuP/B1U8NTczb4hj3Zse2rH3wfnPUlY/tGK8cNfN0S8fCxBv2mfb9zcp1AwfDZzQ79Ghf38Nbz93TVWW8v6+vXzrD57eu7Hto66e2NGDuyBPL+352sB2eEgB0P1mX4uzLr7AwNT40sHb9sPNZYOqvW/k35hK4/G/Xpn5MGOYnhp5aHZ7u4JR7Ybw3d06uoj96cHnf2qHsj9uUU+d80LSQ1gho6edEXbK8ZPRYtPtUGzcunlKhLAtWIScIjbMQ+Gf7W3KXlRsXP65CQEvfT/uQtvMZFmqvzxXQuuB2OLUT+0JRD7NlIKALwRXmgICuDRqnKtQpW8FchFbuVAE9d2eeEEKaF7c3Vj5LJaDL3mZIwl616Wf/dvGMOwYkkajv7pWnpiK74+77euB/9bx6A+ASdf21358aqZCz1U9wIiugT1bO61dLyuVgyHPsditjEHQBvS2gz/1hZd+qrePBa39utH9l38qt54MNEee3rrx/7dCkueuf+7B/5f3rj2jlt9Yvf2j9waB8YXJo7f3L178VaIxbR9bf/9D64YmFe8bcDv10+fInjiSVq5x3+U+HjEu4Nzc2sLJSJ+N0S4hpooc3jUwF3mNhauRXsqrSORDQfX2r/zhhNllCAb24MPJUXDdPvrw62bwAncWtiZEX16/eMm5XlWrN49SRjT9a3te34scvngveV9AEsi/FWZffhckj/T+V35Rh7b6KU5x4cWXfoy+r+g2u9qnXMfMfbCsHxubkdPem5HQr/3DObllcGJez/MPzY1czf9tZp878oGktrRHQHqYDFgzvXZ/RRZGOU9RBykopJT178dTH1i4bAZ0mj0ND7Y93PnXxYp0joKXPVoWAdvqr2s/UJxj1WpeW7hbQx44dW7Zs2YoVKyYnJ21R9eAKc0BA1waNUxXqlK1gLkIrI6AJISQlbm+sfJZKQKcQt8BJskYxCzFNXHQcJRpxbEjbRe4H5JjukaXEvatx67sDUpLEHl4G+nikZnQv4e3ilwSPOXlS8yCdm5BiDy6Ve1pAn9v6UN+m45EUmDvyRN9DFWtgOPeHh/qeGbMrgXIN7ICp+YgjXk21wGLMvbW+7+9frmw4L2dYnzDQ5rz9H9qVxetDa0M5lXG6pePqy6v7Vr/s3m0tjGzqWx4o5kBA37/cmLUp3SZEAlqNczQI2vjoVBcP9fDl9bv/uv/u3//q//Tf2iQ70lzSaNJ0thFLcmt8xy8CyywMuALamMeHnjoyG4nOX42F15RU8zh78KcP9X+4sHhv6uVHH7Iqc2pk6BRvjkaSfSnOvPzODq9fu2Vk4tZU7oVXLmX+x4Rh7sj6vh9XroSn+pff3z8e/FfEwuim5Q/1j6X+KUxIxqkzP2haTKsFdPj/66YPI72UoMOT148KKpRyzSncuPhxMITZuOVTn32WL6ANUrGUXy4k7HyWF9C2QYKt0kReR9QraT1dLKC3bdu2bNky+blq1aoNGzbY0urBFeaAgK6Nehpn3bp1P4ojJXZbcxgYGLgvwK6HaKFstetNQ52yFcxFaGUENCGEpMTtjZVPpwho7VgnfauS1LUl0cO68f6SMXlkvU/wSC1UkqeoxNG+RkA7Ijh5Xq/EDPxxHqdLjqlPp7dHQMcxd/tx7+Ar4PEBzz1Zzv3hoeVp5cZ6hBqigqM8AiJpW/Z0LWN2eG1M4sQIBPTAwSNPLF/+04Phg3YE9OLC2K9C6WxkdFxkQ92MnFnwryqkmkgD2qYsw6mtq596eXxqYcx7V5r/kgk9svCheQfo5gzzOL71b+zbX97g+sY/+NMf8+5oLtGlOPPyG5H/P38ZAvpU5fduqJzF1Hclci75p87+oGkyrRPQgXqOujeRbxW0NxVZZtMLKpeC/uFsZdKNUxdvFE/BocOlv/jso2DQtD8i2qFYUlcvoKVQWkB+SrMkW+AFqVP4fJtJtwpotc/Chg0bdBy03VA9SVdounkJKlckubDIW95cTyoEl4jx/keHoivF+ED4v2j73IoxomNKnXBZrn7BVctcviLcy2NLKS2gzUU7nUqbVNpHnm/QYkGXNWJJu9aNpR4Bfd99943GeeCBB+y25oCAbhFycfRUESGENDZub6x8llBAm/uKRO/ZTaUPHRjSNyLJK6tx9+rJWdM1TxzNj6Nc9ZGo+z4TjHrOEcGRa858/M5j0/ul9JuBuPY1Ato5XepTiI5j7jpylbGpkKGnU0BAR0x5YkIoZ4Tnx/ofeqj/VFJmLYw989BDA+P+hs4R0OOblzsdeo+gN29ujQ46fxgetznmma7cen7ODH9+aqQa2wcFfHn9rneJIDWk6nHQyXdlUkDf/3ywOcs8zh15IjYCeu6t9Y8khSY0EudSXJ+ANjM13b/2YPIjM1NAmwHXG7e8vH6VGT2/YtWmoUs5F8K8U2d/0DSdVgjoQLymetVk3MHOpjNWdx8mmnkjawqOiC/06wdDAW328Gd8LjcHtKr27KxPE9ApTzZ39EaL6UoBrfb52LFjk5OTgYU246DtturJcoXysRJ/4ztq2PSyhtb6OrUiWN19w60+kXQ2n18+/eN6lqDi0KMdIaCdi22FsE3M5ddn7b7xylOrPN824l6ZzshdbzyLoVoBPTAwoIOdHwjQ5Yj77rvPLjVnNPTo6Kg8gKRo1kLZatebhjplK5iL0MoIaEIISYnbGyufJRTQStLwGoJ+edSfPrPL3GxE5leQ+xN3r/SDRBT1ziu21xloo+dKHjmqLAc0dwIJFR49SF2uHDyZhICOXLCe1z2+lghGasdvP9yTRpjz6r56U5dIZRcEtOLP2qmUMcLBX9mn/Vn0wqmMSZwzDUiZ07UU8wAKBfTi4tTra/vu3zRiRnp6Nkca56HlP3pkZd/ql6/aImgI/7ofAd2ASDPaBi1N4l25ML7ZzClspn4OpuAILyPZ5tGdA3p+ZNOPnk/8JxU0ktiluFYBHYqbBzceTbsiZgpoc3wzjX5wRrlULs+b2T/91AGZHzQtoBUCOkS6Q1mTaaRsytW4ya5RBl98FpsD+rP0Yc2mjj/i+dTFLy5+bJddigW0EPZOtc9pXXNYGPUD9VlEC1Fv0IKAbiaRfZblycnJFStW1GOfhXRXGPnlihgNHasroINlT0B7n0eFAjq+HD+LQS5BnS+g48thmzhPrfJ824V7n+4f3LJbPyYyuT6ye8vgax/7f1RVrYDeE6B+WRcEWdDpOHThgQcekIUW6ODWo07ZCuYitDICmhBCUuL2xspnyQV0atdZ7jGStw2ugPYMtd8d98jvnZ9cXC9Hdrr7Lm6JMb/eLU1w5MrtkGNypbLumPnY4trXCuhwwe4Vf+Tpd2Xxpkgh7elHdzKG+CPpVYJ7e1VIMXwdkDTCU/vWLn+4fzw5v+eU+a6q9NFqHSSgy4yAFu5NvLyq76FnxhYqzyXk1sF1fX0pw8ChPpj3uSGRZrQNWpqUd+XC+NYfqZ3se/CJ6EsIzXuhyDwujD2zeknGtPYQ3qW4VgGtLEweXP+Q/YOPUEkHu58yh6m8LOICujLl9OLEy3/ft3Z4NqgQELvAZp4684OmJbRYQHtvUjexXlDQ/5GkdoFincZcKlL5Y/OVguZ7BY1rvnHxY6ORb1w8Zf6pDHkOqH8EtBB2z6oS0KZy0GuN2iSW8n/91gS6TEA33D4Laa5QLhGVK5JcVYLLkRSWENAJkVpSQOu1JyA8SwX38thSGiyg7dMxBG0SdFkjlrRrncL30yMvDQ5u23826yL//cShbYODL41MJf7TvFoBrahrloV169bpeGT5qUOe1UqbSt2IOmUrmIvQyghoQghJidsbK5+lF9BBr9rtMZt7j7QOtHcvERlewZe84T1JTtx93ziZomjl+LFdHLPsPgzz4HWTJ6NDqhPQ8RsPwZ4ueEZScj1xfNkx9lyShhoBXYLse/vZgz/NM8LBwDr3K/hC5sf7H16+dl9yQ8DswSwBnX+61lNiDujw4Z3furJv5fOnR8LnEmGeXeodEdQDArohaYCANn88sWLtH8/N3ZPl2ZFfrQynRA/e10nz6CAXkNXPjC3cGus3o6RXrH7qSOL/wKA+kpfizMtvRJ6AFib++EhfZdb7kNPPL88R0JXj5x88fWvmB02raLGATunJBMQ2lejpub21bIwvdm1yDQI6SQ0C2vb3ygho93ml9fGWim4S0M2wz0KKK4zJX0WuJHLdKCGg9QgOJQV0uBw/i0EuQd0ioMPlsE2cp1Z5vu3E/Nn92wYH96b+P+P82eFtWXoaAV0V6pStYC5CKyOgCSEkJW5vrHzaQUALVuMG3eis4Rt+n9shU/Iq2b1zc145XVTBuZ/RAyaPnHwYUkcevBwh9TGYreEx/cQFtPn+QykMnr57XtmUJYjlwcSaK3j8/p1b2tNHQLvk39uf+8NDfZXJiwM7ECmkrDHOOptH3phf87f5m47HRuSpz8g73ZJwNfHlgWbG2+XB3Yt5eE4n3kxE0PfwypUI6JbAFBwNSQOm4AjM41gkjueOrO97JHjLFJnHhfHnf2QmrhkfWLHpnbnFe3NjzzwUzqUOjSD9Upx5+Q1J/KbipAvoyu894FT/cjsV+NzBn/WtfjX6gDH/D5H9W047dc4f07SKFgto703qxvZwgo6NdmOkfmoHL6fTmI0ZDP3ZF+ZnCo6ArtT47GLtI6DD3pc+VPlpOn5hn037ga6AjhpBn6/V8WH9rHZoJV0joJtkn4VyrnB29nq+gB5KSmv9WwrZalcTuALaFhk6VEBn4ApoW2ToDAEtBJNs7D7uX0unj+8eHNx28EL6p0BnCWg9ePL4WqgPqamoU7aCuQitjIAmhJCUuL2x8mkTAS3oLUeqw1Vy7iWSmjhGZGCDBVe2yjGj8tSOe/LIyYcR3RWUPIIlrn29Owe7lzwwqZOqlYVUcZws1GedSOVZpB6nd8i4tzcddO3ITr68um/tjvPGFwRfPxX+EX3mGOes2TxiTPxxdd+jO87JUe/Njbkze2adbslQrWynEVhcmBr51cq+VS9PmGdnXEmsE2++I8v09RHQLYAvIWxIGvAlhHIr6wroyncSFpjHc394JFit3BWHA7WgIWReijMvvxbPAi+M/Wr58l8cnNJPiesjmx6OvnPVZWHkqeUPPXVkVk4Xmwp8ceH08+b/OINJ8IOZWHS6/FS8U+d80LSUFgvolA5PQOom7T2mJqvTGGP24inrkpXPvljUKaHTRkCHlc000c4I6FA3x8x1oYO2YyDCjqV0/FyhrLgC2n068qxt3zKqHyzkdYabT3cI6ObZZyHHFconi9N3ShfQcnEIPyZ0hK8/DjrrQ0TKXQEdLsfPYnAsbcupRkB34wjogGAYdGyosw6MTlrpiM4S0HKW+wLseogW6iNpKuqUrWAuQisjoAkhJCVub6x8llxAS4db7xO00yy9cF1NytwcAZ1zu2LwevMnzZwbMeIVXAoEdKCG7RhkXU6Y3JoFdKwdgoPHnr77mINlrW/jDovOfnaW3hbQxiUlGRg3Y9yeGdM6sx9uXfu3y6V4xcPrdnxqVbX0aLVuDOnvmvF0SaTXOzX0k74VW8Iu773ZsS1rH7xfNq1Y+diOc46PSD3dkrIwsW/T6uAh9f3NynUDByfsozWuxOvELxzfJPUQ0K1h5MxC7I1Pqow0oG3KavAF9ML48w8vD6fgMEKz7+Gt5wLpmWce58aef8qOomUEdFPIvBTnXX4DkhZ44uDAupV/Y/Zf/rdr+9+YSH/dzE8MPbXafOPk/Q96s6mEV/XlD/7DpoN5X8fqnzrzg8ZubxGtFNDV4nWfInI6jRkYlXzKWOVsAW1rRqsx4xw657IjoKP+oXmowd/SmZ5YvM8WPQtXQMc6lvH6Wa3RGrpAQE9OTv7gBz9okn0Wkq4wrRcql6kUAT0eiNRQp1rBGtfWkWz1kfICAV2hiwW0fYaGdhXQghnvHH0hYTAmettw5tTQQmcJaD148vhaqA+pqahTtoK5CK2MgCaEkJS4vbHyWSoBHQnWnHEu1hGELjV5LxEdxPWt0XjkwlSOlq1o3V5+dGTzmF317GDrOOWx+wRBd/QeQJqATh/mo0d2DmKSZr3zjHxApfVKjhLqLczQxXVvYIKg3fny+t1/3X+X+aCrijSXNFoNY58VX0ALs2NbH1tpzGPfitW/2DHm3P6XMo/MAQ3tTWsEdKXjVxS3h5OzV3V9m9mLp6xiVgEdEg2RdqWy56NjlBPQ0vOUzlvQ/5SH+kIw/4Z0dM0jDzp1USdN+5DeCGih0t1N9EWXiu4Q0MuWLdOFhttnIccVxlVyXEBrkVHVkR0OBasOjtYyebUWCOi4hLX0D1X2kgqdL6BjPt0SzFsS7tXGI6ADbo29Gnwh4Www+Pmlkenv7YZUOktALznqlK1gLkIrI6BryeyNGxMTkzmZnPzc2yU/r7z62qZf/efp6zNeeZTx02fyKxBCGhu3N1Y+SyWgAdqaubH+n9gxjAAAAL1MawQ0dDpdIKB1/g2l4fZZKC2gQyqqNLCr5g87VBDHRvhGfxVRJKCV2aFH+8cDGR1a6Ug6d4WAVoIZS0wDRlY6ks7tLqDDeTeEjC8edEFAV4U6ZSuYi9DKCOiqMzn5ufQM5nKRCl9+OeXtqLlx8+stL2xdvfo/lskrr76me8nC0aNvZ+0rm6Lje7l0eXLHzl2yo1ceRY48fvpMtCrLcoqc+oT0SNzeWPkgoAEAAAAgCwQ0lKELBPSxY8e2BUxOul++3DDyBXRERRZbVRrJ4nDIczgph4rUyEGbhQzCYzqHMiZ37dC+UNEaOkVAZxA9kcg7a5sMDDnPuhMEtHD9/ddefO39Er8LBHRVqFO2grkIrYyArjoTE5NWM+diqiX2rS2eRB4/fSYS06qkXYPspSoBrUfz7HZ0LkJ6Km5vrHwQ0AAAAACQBQIaytAFArrZJF1hZU6MuBKNfHT/KbPsj2s+ZRxscrBz4QjoxDjr2WA0tC4E56vI6FZTjYDOHQEdn5bEoKOhg4XgSXqN0Nl0loAeHR2VE+kZXbRQttr1pqFO2QrmIrQyArrqXL169csvv/ziC5PLly/rgrcqSDVvRy/jp894qjfK+p//4tJl669v3Px6x85dsjp9fWbTr/7z0aNvSyIp7A1YzjmmGznOF19e81yzHlkWIh8tJ5VHEq0S0lNxe2Plg4AGAAAAgCwQ0FCGLhDQk5OTx0pga1dPba6wRygtoCFGzQJaha8srFu3ThbkpyyrIG6egJaD3xdg10O0ULba9aahTtkK5iK0MgK66nw5dS112Vv1NiXjueMo09dnfvu75yMBrV5YF9Q7y4LuqAOW8wVx/gho9wiqm5/77e9URkuhLrj1CemduL2x8kFAAwAAAEAWCGgoQxcI6FWrVq0oYsOGDbZ29SBSc0BA10ZtjaO6OYvmiWAEdIuQi6OnilqZBgpoHXqcjDsC+pVXX9PC6EsIjx59WyvomGjdqqZYhbKW5CRy1iqdpUTOIkdwD+I+BkJ6MG5vrHwQ0AAAAACQBQIaytAFArrZIFJzQEDXBo1TFeqUrWAuQisjoKvOlStffDl1TXPx4qVo2VuVat6ONedGOAuHrh4NJspQWaxbc8ZBy145I6D1ULKvCmjPR8tCZL0J6bW4vbHyQUADAAAAQBYIaCgDAroQXGEOCOjaoHGqQp2yFcxFaGUEdNX5su4R0O7I5ZxsyZhn45VXX5MSiarhS5cnf/u752VZa3oHycrRo2/LLnocPbgcNjnqWTZpZbeQkF6I2xsrHwQ0AAAAAGSBgIYyIKALwRXmgICuDRqnKtQpW8FchFZGQFedhghod5bn1IyHM0SrAtas//kvzp47L+VHg/mg1QtHC8lI+Y6du9zR0250R/np2m1CiMbtjZUPAhoAAAAAskBAQxkQ0IXgCnNAQNcGjVMV6pStYC5CKyOgq86VK19MX5/RTEyYiZhTV3Om4JCtKqBlITkUOvLOuqC76OjmV159TfaSXXRfOcibb76VNUuGymVZkMreEGk5uCzLVimMBHS01UuW3Saku+P2xsoHAQ0AAAAAWSCgoQwI6EJwhTkgoGuDxqkKdcpWMBehlRHQVaexAtobCh1552jBtcZS4ejRt7VcK0flXl4Jvrow2qQ1oxk2rn4xpeUST0B7R5OtCGjSm3F7Y+WDgAYAAACALBDQUAYEdCG4whwQ0LVB41SFOmUrmIvQygjoqtPAKThkIX8EtFRwpbDW11XZXb8w0BsBLVul8MOPTng2WffVg0eFEgQ0Ialxe2Plg4AGAAAAgCwQ0FAGBHQhuMIcENC1QeNUhTplK5iL0MoI6KozfX3m5i3rcLMEtFRwpbAX2ZQ1AjrKeHwKDokK4leCWTXk52pnTLQuuxUim6w1o0NF2jrSylJBj6O7yCYvCGjSm3F7Y+WDgAYAAACALBDQUAYEdCHjZy7MzFZ3t9UjSLNI49iVBLRbFvntBknUKVvBXIRWRkBXnZu3vv5y6prmypUvomV3Ncc+S3K8cySIk+ZXlbTsKz8joazRvdz6Uk3HVqtczoknoL36shUBTXozbm+sfBDQAAAAAJAFAhrKgIAu5MbN26Njp3GpHtIg0izSOHY9Ae2WSmG7QRJ1ylYwF6GVEdCEEJIStzdWPghoAAAAAMgCAQ1lQECX4cbN2+NnLoy8d4pEkQYptKi0WzJl2g081ClbwVyEVkZAE0JIStzeWPkgoAEAAAAgCwQ0lAEBDQBtjjplK5iL0MoIaEIISYnbGysfBDQAAAAAZIGAhjIgoAGgzVGnbAVzEVoZAU0IISlxe2Plg4AGAAAAgCwQ0FAGBDQAtDnqlK1gLkIrI6AJISQlbm+sfBDQAAAAAJBFloC+c+eO3JwjoEFBQANAm6NO2QrmIrQyApoQQlLi9sbKBwENAAAAAKmofRa+//77e/fuIaAhCwQ0ALQ56pStYC5CKyOgCSEkJW5vrHwQ0AAAAACQxLrnAAQ05IOABoA2R52yFcxFaGUENCGEpMTtjZUPAhoAAACg+7DmuBEE02/EBPT8/PydO3e+/vprBDQoCGgAaHPUKVvBXIRWRkATQkhK3N5Y+dQvoC9NfEEIIYQQQgjp2SCgAaDNUadsBXMRWhkBTQghKXF7Y+VTv4D+05/+9G8AAAAAANCNSG9/fHw8GgvvzsTyzTff3A5mYkFAA0Cbo07ZCuYitDICmhBCUuL2xsqnfgFte6YAAAAAANCN7Nu3b3x8HAENAJ2LOmUrmIvQyghoQghJidsbKx8ENAAAAAAA5LBv377h4eGkgI6+ixIBDQBtjjplK5iL0MqdKqD10QMANAm3N1Y+CGgAAAAAAMhiX4AKaPe7KBHQANBBqDaxgrkIrYyABgBIwe2NlQ8CGgAAAAAAUlH7LOgUHAhoAOhQVJtYwVyEVkZAAwCk4PbGyqd+Ac2XEAIAAAAAtBvWHNfN8PBwNAG0K6Dn5+fv3Lnz9ddf37hxAwENAG2OahMrmIvQyghoAIAU3N5Y+dQvoAEAAGAJ+ffvFmZmbl37aqbHI40gTWEbJc5HFxZ/+q+LP/znxR/+U6Pzz+bIcvxUbty8PX7mwsh7p5oRObIc354pTleeV9KDT7lTIo2AgAaANke1iRXMRWhlBDQAQApub6x8ENAAAACdy79/t3Dtq5nbc/P//t3dHo80gjRF0kF/dGHxR08lxHFDI8dPOugbN2+Pjp2ema2uc1UeObIcPylGu/W8Qg8+5U5BGgEBDQBtjmoTK5iL0MpdKKB37NhhlwAAssm/Vri9sfJBQAMAAHQuMzO3sM9RpCmkQWzThJixzwll3PDIWTzGz1xotpqU48tZ7EpIF59X6MGn3CkgoAGgzVFtYgVzEVq52wT0jgC7AgCQTf7lwu2NlQ8CGgAAoHMJxvz6HraXIw1imyakKTNvJPPP9nQRI++dskvNJHmW7j6v0INPuSNAQANAm6PaxArmIrRyVwlo1UmCXQcAyMZeLzKuGG5vrHwQ0AAAAJ0LAtpLioD2THHT4tHdVnQJbWwPPuWOAAENAG2OahMrmIvQyt0joK1JCrBFAADZ2OtFgC1ycHtj5YOABgAA6FwQ0F4Q0F1vY3vwKXcECGgAaHNUm1jBXIRWZgQ0APQo9nrBCGgAAAAIQEB7QUB3vY3twafcESCgAaDNUW1iBXMRWpk5oAGgR8m/XLi9sfJBQAMAAHQuCGgvCOiut7E9+JQ7go4Q0G/8dvGNa3b5hcRb2GaXrWA4GV9tBnIK7wGEWf+mrQIADUG1iRXMRWjlbhPQAgIaAMqQf61we2Plg4AGAADoXBDQXhDQXW9je/ApdwQdIaCvv2neqi+ctKuKFGaq3iYI6DO7YtcN98G8kHhsANBAVJtYwVyEVu5CAQ0AUD9ub6x8ENAAAACdCwLaCwK6621sDz7ljqAjBLTh5OIPf7t43a4YXvinyrBon6SATgxYztw3lzO7EtY78cAAoLGoNrGCuQitjIAGAEjB7Y2VDwIaAACgc2mQgP76y4sXJme8wsxMnz/10akL04nyqjN94eRH5Sh9OgR019vYznvK14fW9pVk7VB1AnK83+5YSP+43cXn2rVrf/7zn//617/a9VppfwFthj+HNvmN3/rvXzdnpEZCNEuMa45r4jx5nYsroNMnA0FGAzQa1SZWMBehlRHQAAApuL2x8kFAAwAAdC4NENB3vjo/fvKjj05+8vkdf1NGGiagU3Llk49OnZ/2CqtI/QL6/zi8eGZ28daEX14Yj6qs6NQ7/eseXtHX17f8b1dv2jexYIuLqdPGzn64Vc/bd/+Da7eMzd6z5YXUed4K57eu7Otbu2/WrpagzlOPPWOeboWBLDHr07CnLJzqzzHC9TE79GhffzWP68SJEz/5yU9+97vfffPNN7aoJjpAQF8LVK8rdq8trk/TyhWccuuamyOg/YNkPR4H16cDQBlUm1jBXIRWRkADAKTg9sbKBwENAADQudQpoOdvTH5y8qOPToyf/fJrb1NOmieg6z9yPQL6//jz4pfzdq9vPve3FsajvJ2ce2v98ofWH5w02nlhcmjt/cvXvzWnmwqpy4pe2rGyb+3LwXkXFyaGfrp85R/OBRuKaYyNvTfx8iojgVsooI2fXTtcxekiGvOUleYJ6JqO/Mknn/yn//SffvGLX3z55Ze2qHraX0Arb/y2Ms/yC84X/ZmpmRM+10heR0DbkdFNE9CVQgQ0QBNQbWIFcxFaGQENAJCC2xsrHwQ0AABA51KPgL755bmPT3z00anPrtz4d29TfhoroM3Rcvnkc3+XnNQjoP/rxOI3f1l8bf/imX9vpYCeO/JE3yN/nLBri4vn/vBQ3xNHShroBlrRheOb+h7aWtJAN+S8E39cvfypl3c82koBfe7/397//8h93Yf9r/8UQf+CfrjIDxYEXLi/BUg/SYPbFCjkAFdA4oq5n9sKrZpPWjV20PZTtxu6+UAhZF0qn6SSWtEOBZG2lFiiGZP6TkskTdGkRK8lijS/LCmuJIqiLEr3zJwzs2dm3jNz3rMzZ3e5jwdeYGfe897Z1dvU4uiZ0/c8+pvtNgj3zeUfOZlvgO682yQll/fSpUvf/OY3/+W//Jc/+9nP0qGWtkqATn7a+Xc21t5+ku406MHsm0feCQF68g09Bqb3tQI01BezSQrM08STt2qATo8AFiNfjZWPAA0AW9esAfrG+XeOde+78YtL14demj7NyXjWJN15txPvDh3szaXwYrUA3Z+6AXrYz/9/v/kbG3FfiNoB+tzeHV/94+c/6G5Jrhegjy7d9Xv/czk9aWUO/8h9nWS8Y8f9LW4AMkl4t/v3jruCR3eWXt4bN2488sgj3/jGN/7u7/7uiy++SEeLbY0AHe+58VznX9j+zuV8T3QM0/2nnSRdEKBnMHOA7vxII798ptZqIIhNOQXmaeLJAjRAg3w1Vj4CNABsXbME6OtX3z3xxuuv//TY27/6aOilspn/DugsQC+feP2npy71nm6/AH391aXf/M2lN0rvAj23KvrBq0u//Rvl96ZY7/f9/Nze//2e7p1G6gbozucB/t4ff2vHP/rqxt32OugG6L0X40cIrnsr9GCAXnl6R961ywN0cOvWrWefffYb3/jG448/fvNm+a3IO7ZGgM7Dbrc1H48Bult1O2F6sOSGl/JMvOgAvZbCxwfoPjugoa3YlFNgniaeLEADNMhXY+UjQAPA1tU6QH9w7uTR1jd9HpoJAbp5c3Sz9GGDAnTm5tGdv/MbxfffCOZQRXs3cPhH33q+Wo1d2b/jnv/9h90sWjdAn/vhH//hf4632/7y4qH//Nt31b7tddS55qk7H90Zrv2Ovf3W2Pufo0S6l8j8AnQUbwn9X/7Lf/nggxb/abAlAnQebfsJOGbf73Y3Pnf2F/erbv8jCnuP5xug4++N8DOkN8m/nQANCxCbcgrM08STBWiABvlqrHwEaADYutoG6JV3jr3++uvH3rl0feSl8ln0DuisOG+vAH3u6R2/8dtLR3sfhFhiblX05i9++G9/s7x9r+v7fvD8H391x95z8UnlW3AM+PDv/7jyba+TLEB3dKNz20y8ZiRA5281Q4D+4osv/v7v//4P//APDxw4kA4V2BIBem2LcVZ748F+j/5u797QncLbr8DzC9D99Nx5t0zn+4afoemlRgI0tBWbcgrM08STBWiABvlqrHwEaADYulrvgP702vs/P/r666+/+fNzV4dfKp1FBuh3f9bbGd2dbRSgb76x9DtrWbbUPKvo8v/8vbt2xG3JU63n+x59+DfiBt4B4+9iPGSe/8hDIXiixX7fzr1Bsn3QrQwE6E7Qzz9lsW2A/vWvf/3EE0/8wR/8wd69e8PjdLTAFgjQg9G5X29TRB7adJzvRw76r4YHg//itw3QozopuVe9O7rfYu0pMCexKafAPE08WYAGaJCvxspHgAaArat9gA5zY+XdtzqfQHj09LmPhl4qmsUF6M7jrt5dOLZNgO58It/vlN/6uW+eVbRWgB5kB/S65QG6885dvbtwtArQH3/88V/8xV/80R/90ZEjR9p+DuEWCNDdsJtvLv5u71/e0R3H+Q064jmNd2eeYQf0gJizmzYyh++rQcN8xaacAvM08WQBGqBBvhorHwEaALaumQJ0Z65feOdYJ0IfP3PpxtBLU2e+Abo/3foctz+/+7OBDN1itmSAvn608wGAT7fc/Ny1nip68+X//Btf/eMfnutW789XDv2fLW4/Pb8aWzVAd/6Rf/s/H4r/yJ3PXbzr60/+ovvKdPP7R553gO7r1ufu9ufOVc0zdIn333//T/7kT/71v/7Xv/zlL9OhNrZAgAa2t9iUU2CeJp4sQAM0yFdj5SNAA8DWNXOA7kz8QMLX3zjx7tVWt4See4BOG5+H37Oz/bltht6KAbrzqXGjym5Jsb4qevMXzy498Nv3dL7dV//Rjp0//EXx7afnV2Mr74DO/pH/n7/zwF8d/bDW5y4OmHuAThufh9+z+wmH0zP0F198ceTIkT/6oz9q+8GDOQEa2ORiU06BeZp4sgAN0CBfjZWPAA0AW9e6AnSY6ytnfvbT1yffEvqXJzoZuMiJ5aGvnTy9d56YmLsZOvuUwskzlwA92wyZvU62Mc8q2sZGfd/gdvhHnleA7tw5enpi7mTo8f/3jF//+td79+79gz/4g0ceeeTGjRvpaHsCNLDJxaacAvM08WQBGqBBvhorHwEaALau9Qbozlw/93bnbhzH3rk28tLWGwH69v6+wTb8R16oH//4x3/4h3/47LPP3rp1Kx2aiQANbHKxKafAPE08WYAGaJCvxspHgAaArWseATrMjWtXr127PnRwS44AfdvX2G34j7xQv/71rz/++OO2Hzk4SoAGNrnYlFNgniaeLEADNMhXY+UjQAPA1jWnAH37jAB929fYbfiPvCUI0MAmF5tyCszTxJMFaIAG+WqsfARoANi6BOihEaBv+xq7Df+RtwQBGtjkYlNOgXmaeLIADdAgX42VjwANAFuXAD00AvRtX2O34T/yliBAA5tcbMopME8TTxagARrkq7HyEaABYOsSoIdGgL7ta+w2/EfeEgRoYJOLTTkF5mniyQI0QIN8NVY+AjQAbF0C9NAI0Ld9jd2G/8hbggANbHKxKafAPE08WYAGaJCvxspHgAaArUuAHhoB+ravsdvwH3lLEKCBTS425RSYp4knC9AADfLVWPkI0ACwdQnQQ9MQoP9suBQvZP4sfbu+27uKbmCN3Yb/yFuCAA1scrEpp8A8TTxZgAZokK/Gymf9AfrbzxtjjDFmY+ZPn7nxZz/47D8997kJEy5FuCBDl+hr//nL/8e/X/iE7zL0fR94YmX0h5nvhPcP32Xo4G38fcNsw3/krTICNLDJxaacAvM08WQBGqBBvhorn/UHaGOMMcYYY4xpRYAGaopNOQXmaeLJAjRAg3w1Vj7rCdBDGx+MMcYYU3/+03Of/+kzN/7909e3+YSLEC7F0MWJ8//9X9190A8Nb1uewzzUeefw/kPfMc439336wBMrOx771SImvHN4/6HvGOe2/L5htuE/8laZ/iVqRYAGaopNOQXmaeLJAjRAg3w1Vj7rCdAAAAAzEKCBmmJTToF5mniyAA3QIF+NlY8ADQAAVCZAAzXFppwC8zTxZAEaoEG+GisfARoAAKhMgAZqik05BeZp4skCNECDfDVWPgI0AABQmQAN1BSbcgrM08STBWiABvlqrHwEaAAAoDIBGqgpNuUUmKeJJwvQAA3y1Vj5CNAAAEBlAjRQU2zKKTBPE08WoAEa5Kux8hGgAQCAytYfoN/55TljjCmc2JRTYJ4mnixAAzTIV2PlI0ADAACVrT9Af/jRdWOMKZzYlFNgniaeLEADNMhXY+UjQAMAAJUJ0MaYmhObcgrM08STBWiABvlqrHwEaAAAoDIB2hhTc2JTToF5mniyAA3QIF+NlY8ADQAAVCZAG2NqTmzKKTBPE08WoAEa5Kux8hGgAQCAygRoY0zNiU05BeZp4skCNECDfDVWPgI0AABQmQBtjKk5sSmnwDxNPFmABmiQr8bKR4AGAAAqE6CNMTUnNuUUmKeJJwvQAA3y1Vj5CNAAAEBlArQxpubEppwC8zTxZAEaoEG+GisfARoAAKhMgDbG1JzYlFNgniaeLEADNMhXY+UjQAMAAJUJ0MaYmhObcgrM08STBWiABvlqrHwEaAAAoDIB2hhTc2JTToF5mniyAA3QIF+NlY8ADQAAVCZAG2NqTmzKKTBPE08WoAEa5Kux8hGgAQCAygRoY0zNiU05BeZp4skCNECDfDVWPgI0AABQ2UYE6J/t+frOA2f7j3//68Pz/WMD518/tuf3l358oX/+nuMDr6Y5/v2R9+nOdw6ey8/Jnxpjqk9syikwTxNPFqABGuSrsfIRoAEAgMo2QYAezM1nDy4NB+js/IKCfO7HO7++52dDR1K/FqCNKZxzJ5/7ydu/Wh05ns/qlZM/+Yefnhs5PnFiU06BeZp4sgAN0CBfjZWPAA0AAFRWOUAf2zO0N7lgB/RaNb5w4DtDZ/ZmLSuHc/p1O40AbUzrufz23+/5wd7Xzn0wdHxtVpdfe/7RPYdOXh46PmViU06BeZp4sgAN0CBfjZWPAA0AAFS20Tugp04nOsd83Nna3M3H2R05RqazgTpv052WLUAbM8N88O6be5989u/fujJ0PM6v3jr0+JPPv/Lu6tDxqRObcgrM08STBWiABvlqrHwEaAAAoLINDdDZ9udOF853Q/c2QR/v3Nm5k487ZTll6wkBOry0dofoXm4WoI2ZbcZV5sltevLEppwC8zTxZAEaoEG+GisfARoAAKhsowL0nj07l358cE/MwWcPLqUAHbtz/0HnfhpL3R3QeVkeuI9Hd9JL6X3Saf3uLEAbM+uk+2z87FJ28NLUu3NMmtiUU2CeJp4sQAM0yFdj5SNAAwAAldUP0DEfd4vwlB3QnXtu7PnZ6H7n0SNx8kid7bMWoI1Zx6xe+dkLzz767Mn0gYQfnHvlmR88/sK0zyccP7Epp8A8TTxZgAZokK/GykeABgAAKqscoLuNeC0Nr03nDhu922705tiezpHSAB3jcroH9PcPdON1fEmANmZd043O3S3Pq++89Oyjz7y5/MHIOcUTm3IKzNPEkwVogAb5aqx8BGgAAKCy+jug+3uTj43cSWNgevm4MEAf27MWtTtbp7PGLUAbs97p3Hbj2R/86B8eH7odR/uJTTkF5mniyQI0QIN8NVY+AjQAAFDZBgbowSPd6NxUhxsD9ECqTjf06J9w4UD3ttH9IwK0Meuf7gcPNnwgYduJTTkF5mniyQI0QIN8NVY+AjQAAFDZxgfoePON/p8jgbhwB3R/Onm6t3t6eARoY9Yzs973OZ/YlFNgniaeLEADNMhXY+UjQAMAAJVtbIDuxOJYhPv3gO7exDn7LMFWAXp47/PwCNDGbPTEppwC8zTxZAEaoEG+GisfARoAAKisboDuBOLOTTO+kz4tcC009wN0d9bCdHmAHinXa3P8+2Nu1mGMqT2xKafAPE08WYAGaJCvxspHgAYAACrbiB3QxpjtO7Epp8A8TTxZgAZokK/GykeABgAAKhOgjTE1JzblFJiniScL0AAN8tVY+QjQAABAZQK0MabmxKacAvM08WQBGqBBvhorHwEaAACoTIA2xtSc2JRTYJ4mnixAAzTIV2PlI0ADAACVCdDGmJoTm3IKzNPEkwVogAb5aqx8BGgAAKAyAdoYU3NiU06BeZp4sgAN0CBfjZWPAA0AAFQmQBtjak5syikwTxNPFqABGuSrsfIRoAEAgMoEaGNMzYlNOQXmaeLJAjRAg3w1Vj4CNAAAUJkAbYypObEpp8A8TTxZgAZokK/GykeABgAAKhOgjTE1JzblFJiniScL0AAN8tVY+QjQAABAZQK0MabmxKacAvM08WQBGqBBvhorHwEaAACoTIA2xtSc2JRTYJ4mnixAAzTIV2PlI0ADAACVrT9Av/PLc8YYUzixKafAPE08WYAGaJCvxspHgAYAACpbf4BObwRQIDblFJiniScL0AAN8tVY+QjQAABAZQI0UFNsyikwTxNPFqABGuSrsfIRoAEAgMoEaKCm2JRTYJ4mnixAAzTIV2PlI0ADAACVCdBATbEpp8A8TTxZgAZokK/GykeABgAAKhOggZpiU06BeZp4sgAN0CBfjZWPAA0AAFQmQAM1xaacAvM08WQBGqBBvhorHwEaAACoTIAGaopNOQXmaeLJAjRAg3w1Vj4CNAAAUJkADdQUm3IKzNPEkwVogAb5aqx8BGgAAKCy9Qfod355zhhjCic25RSYp4knC9AADfLVWPkI0AAAQGXrD9AffnTdGGMKJzblFJiniScL0AAN8tVY+QjQAABAZQK0MabmxKacAvM08WQBGqBBvhorHwEaAACoTIA2xtSc2JRTYJ4mnixAAzTIV2PlI0ADAACVCdDGmJoTm3IKzNPEkwVogAb5aqx8BGgAAKAyAdoYU3NiU06BeZp4sgAN0CBfjZWPAA0AAFQmQBuzdedy+Jd35drby+feP3956KVNO7Epp8A8TTxZgAZokK/GykeABgAAKhOgjdlyc3nl2olT7x5+7eQPXziSzwuHjx05dia8OnT+pprYlFNgniaeLEADNMhXY+UjQAMAAJUJ0MZsrTlx6t2Ymw+/djI8fnv5XNwEfeTYmZikXzh8LBwf+qrNM7Epp8A8TTxZgAZokK/GykeABgAAKhOgjdkqc3nlWj8xj9vmXHLOxk5syikwTxNPFqABGuSrsfIRoAEAgMoEaGO2ysSyPHV38+XuDTriFumhlzbDxKacAvM08WQBGqBBvhorHwEaAACoTIA2ZkvM28vnJtfnoTtvTD1/oyY25RSYp4knC9AADfLVWPkI0AAAQGUCtDGbfy6vXJu6o3lof3S8F8cmvBFHbMopME8TTxagARrkq7HyEaABAIDKBGhjNv8cOXbmhy8cef/85aHj+cTiPNSgp2br+hObcgrM08STBWiABvlqrHwEaAAAoLKNCNA/2/P1nQfO9h///teH5/vHBs6/fmzP7y/9+EL//D3HB15Nc/z7I+/Tne8cPJefs/b0woHvjLzVwAkDs/YznD24NPQt4oz5QmPWPy8cPnbk2Jn4+O3lc+Fx48QAnTfouAk6Pt4kE5tyCszTxJMFaIAG+WqsfARoAACgsk0QoAdzcyfvDgXo7Pzxgbg/53688+t7fjZ0JLXjqQG6e3Doyzsz+acKU/CDGTPz/PCFI0d6AfrEqXdfOHxs8uQnh6+Nj+cwqyNH2k9syikwTxNPFqABGuSrsfIRoAEAgMoqB+hje4a2DHd2NK8dSTOYetfabrcOD5/cnYGsnHXh7kwN0AM/1eCMnpDtxRagTY2JHycY/hw6XjLvn78cvnbyvTsK54N339z75POvvLs6dLztxKacAvM08WQBGqBBvhorHwEaAACobKN3QE+dTiaOzbeztbkbebM7cozM8P0xOi17NEAPFufv72l+w16hbtj+HCb8U2QHwzuP7ps2Zh4TA/RsETneBnq2eD0wl97++z3P/uBH//D4nkM/uzTyapuJTTkF5mniyQI0QIN8NVY+AjQAAFDZhgbobPtzpwtnT/tt93jnzs6dOtypwClbTwjQ4aW1u2r0cnPJDujuCWuxO5/BWt17/8Eq3YnjArRZzKxnF3OM15dXrg0dbzcfnHvlmR88/tIvP/hodfm15x995s3lD0bOKZ7YlFNgniaeLEADNMhXY+UjQAMAAJVtVIDes2fn0o8P7ok5+OzBpRSgY9LtP7hw4Ds7l7pROC/LQ0V4IAqv9eW17jw1QKcZeHV4epG6d0SANrUm7mLuf65gvK3z5OmffOTYmfA0Pp5xVq/87IVn16Lz6srRZ3/w+Atv/2rW+0HHppwC8zTxZAEaoEG+GisfARoAAKisfoCO+bgbc6fsgI5Vd7j8jrbg7HgWlDuZO+6YnhCgO99rz8H0oHF6WXntm3bS88hpYQRos7A5/NrJMPFxP0AfOXZm3PTvuREev3D4WHw803S3PA/ddqNzO44f7H3t3Af9I20mNuUUmKeJJwvQAA3y1Vj5CNAAAEBllQN0txGvpeG1GdxQHOfYns6R0gAd43Kqw98/kG1JHg3Q4R1iNe4H6+EtzFmq7p+cJp42sttagDaLm8OvnXzh8LH+XThig55aluPW6SPHzgwdL59fvXXo8aYPHux+IOGzf//WlaHjJRObcgrM08STBWiABvlqrHwEaAAAoLL6O6D7e5OHw+7Q9HpuYYA+tmctandycNa4J+yAXrt3x0ATb7gZ9PA3HXir7FsYs4CJKTkvziUN+vBrJ8M5s908OszkyjyuTU+d2JRTYJ4mnixAAzTIV2PlI0ADAACVbWCAHjzSjc5Z0u1PY4AeSNXphh79E4bzcUGAvtDbOt050nn/kZ9kcoAe/SGNme/EjxPs39w5THj8wuFj4z5gMBbq/r04Ws/lqffZSHfnOHl56PiUiU05BeZp4skCNECDfDVWPgI0AABQ2cYH6Hjzjf6fU8vvtNrbycfj7oYxLkCvTUrhI8d73/T499O3FqBN9Yk34sgb9LiJ9bl/2+hZ5tzJ534y7ZMGV6+c/Mk//PTcyPGJE5tyCszTxJMFaIAG+WqsfARoAACgso0N0J1YHDNuDNDpwUD/HW2742tvw60zBmZCgO5+31567ryU38SjdyTbGR3eKsvcArSpMJdXrsW7akzY+Nw/Z131eZETm3IKzNPEkwVogAb5aqx8BGgAAKCyugE6y7hDobkfoLuzFqbLA/RIuV6b49/vfNPuxC/s3iQ6PE0fcph+pKGv6u6G7r1h+MmzaN57t+HxOYRm8RN3N79w+Njh104eOXbm7eVz75+/HP4Mx2N6DlOyS3qjJjblFJiniScL0AAN8tVY+QjQAABAZRuxA9oYs665vHLtyLEz/dzcnxcOHwvHx22O3iQTm3IKzNPEkwVogAb5aqx8BGgAAKAyAdqYrTuXV67F7c/hz6GXNu3EppwC8zTxZAEaoEG+GisfARoAAKhMgDbG1JzYlFNgniaeLEADNMhXY+UjQAMAAJUJ0MaYmhObcgrM08STBWiABvlqrHwEaAAAoDIB2hhTc2JTToF5mniyAA3QIF+NlY8ADQAAVCZAG2NqTmzKKTBPE08WoAEa5Kux8hGgAQCAygRoY0zNiU05BeZp4skCNECDfDVWPgI0AABQmQBtjKk5sSmnwDxNPFmABmiQr8bKR4AGAAAqE6CNMTUnNuUUmKeJJwvQAA3y1Vj5CNAAAEBlArQxpubEppwC8zTxZAEaoEG+GisfARoAAKhMgDbG1JzYlFNgniaeLEADNMhXY+UjQAMAAJUJ0MaYmhObcgrM08STBWiABvlqrHwEaAAAoLL1B+h3fnnOGGMKJzblFJiniScL0AAN8tVY+QjQAABAZesP0OmNAArEppwC8zTxZAEaoEG+GisfARoAAKhMgAZqik05BeZp4skCNECDfDVWPgI0AABQmQAN1BSbcgrM08STBWiABvlqrHwEaAAAoDIBGqgpNuUUmKeJJwvQAA3y1Vj5CNAAAEBlAjRQU2zKKTBPE08WoAEa5Kux8hGgAQCAygRooKbYlFNgniaeLEADNMhXY+UjQAMAAJUJ0EBNsSmnwDxNPFmABmiQr8bKR4AGAAAqE6CBmmJTToF5mniyAA3QIF+NlY8ADQAAVCZAAzXFppwC8zTxZAEaoEG+GisfARoAAKhMgAZqik05BeZp4skCNECDfDVWPgI0AABQmQAN1BSbcgrM08STBWiABvlqrHwEaAAAoDIBGqgpNuUUmKeJJwvQAA3y1Vj5CNAAAEBlAjRQU2zKKTBPE08WoAEa5Kux8hGgAQCAygRooKbYlFNgniaeLEADNMhXY+UjQAMAAJUJ0EBNsSmnwDxNPFmABmiQr8bKR4AGAAAqE6A3p1d+/uV3f/jlv9395e//ty9/98++/CffmtuEdwvvGd45vH/4LlBZbMopME8TTxagARrkq7HyEaABAIDKBOhN5ZNPv3ziQCcQD1XjxU34XuE7hu8LdcSmnALzNPFkARqgQb4aKx8BGgAAqEyA3jxeeHPe6fmbX4T5nW/e+vPv3/rx0S/OXvri08++vPXFlxc/+OLAm7e+/dSt3//2F/HM8H3Dd4cKYlNOgXmaeLIADdAgX42VjwANAABUJkBvEt/94WA7Xv900/PfPH9r9Xr6Fo1e/fmtb/zFrfgl4WeARYtNOQXmaeLJAjRAg3w1Vj4CNAAAUJkAvRn8+d8OtuP1zze/eOCRW2+f+yJ9g2n+x/Ofxy8MPwksVGzKKTBPE08WoAEa5Kux8hGgAQCAygToDbeIvc9/+je3Pv0svX+hN97+/P/1Z507ctgHzULFppwC8zTxZAEaoEG+GisfARoAAKhMgN5YL7w5ko/XOd29z23rc/TG22kftPtBszixKafAPE08WYAGaJCvxspHgAYAACoToDfQJ5/O/1MHf+ebLe68MepvfvRZeJ/wU4Wfjdve6ofXXzpy6ql9Lz53cPr/zSGc+eiTz4c/0/NZxaacAvM08WQBGqBBvhorHwEaAACoTIDeQE8cGCnI65xvfvE3z99K7z6rb/z3zj7o8LNx23vu4JtLjzzz0pFTJ069lw6Nd/b8Sv/8dGgmsSmnwDxNPFmABmiQr8bKR4AGAAAq2/AAfWbffffdt/9MejbF6qsP37dv0rnh3R5+dTU96Z7fe3pm/30Pv3K1+3C89OVXX3m4+Edaj0Vsf169nt58Zq+c/HV4t/Czcdt79Mnnn9r3YnoyIm55Tk96wvmjB1uJTTkF5mniyQI0QIN8NVY+AjQAAFDZZtgB3WnQu15Zy8aTrL6y674JDboXoLunjTP9y7ule8EN+pWfjxTkdc43v/jz7693+3P09f/S2QQdfkJub5MDdHh16ZFn0pMeAbrUXH45AkyQr8bKR4AGAAAqqxugJ3bhIbteWe3sRC6xtrV5Pjugu8LXLrRAf/eHIwV5ffM737z146Oz3/0593/+z5vhDcNPyO1tQoA+ceq9pUeeGb03tABdquUvR4DW8tVY+QjQAABAZRu0A3r1lV1NOfjM/oF9x0W3wkhlubONOrP/1THxurPVuk0Hn3jHj/X4t7uHC/K6pnv/jbOX5hOgX/hpJ0CHn5Db24QAHW/3vPrh8C1dBOhSs/5yBCiVr8bKR4AGAAAq26AAPbxVOepE5Ibg28nSzYZv3NE5M71tY7wOr0+810e2Y3rh5n8D6D/9/NPP0puv04Wrt8J7ug307W31w+uNe5yj8FJjm37pyKnR+3K0EptyCszTxJMFaIAG+WqsfARoAACgso0K0E2BOO1lLtHd79zUl++77+Fd3Q8qHHf7jmkBenFbnof87p+NROT1TDdAp7det1u3Ou8ZfkJuV/EOG48++fzZ8yvpUCa+Gv5MzzOrH14PXzXuC0vEppwC8zTxZAEaoEG+GisfARoAAKhswwJ0NyLn241L42+3LDfdmKNzW4+Hux9R2Hnnffsn7YBuzNPhpWlbpOdoEQF6XjugP/n0i/CeAvRtrB+gR2+yETy178XwauNL4WB8VYCeYj2/HAFK5Kux8hGgAQCAyjYwQHcrcG/Lc2fzclNVHta5fXPjebFfr0Xtwh3QQ8W581UlP8YcLOIWHPO6B/SJ5c/Ce7oFx+1twi04xh0Pxt0bulxsyikwTxNPFqABGuSrsfIRoAEAgMo2MkAHne788CtnshKd6d5no0wnPXfC8dCu6q7wPcbf2WN4y/PEk+dq/h9C+Kef//jN+dyF46//7kZ4Tx9CeNt7tOlDCCfcfyPwIYSl1vvLEWCafDVWPgI0AABQ2QYH6Lhzuf/JgdON3QEd9QJ0J2yPlRfn4QA9mLBHXp2j7/5wJCKvZ775xe9889bS936d3n19/j//1yfhPcNPyO2tMUCHg0vjP2ZQgC61/l+OAJPlq7HyEaABAIDKNjJAx7tkdApv7MUlW48LA/Sazjbqffv3j+vIo4m587Okn2Shn0n4ys9HIvJ6phugf/s/fLb68XrvwnHt41u/86e/Du8ZfkJub6MBesJ9OSIButS6fjkCFMhXY+UjQAMAAJVtSICOu56Hb/rcu2vzxN3QbQJ0fMNYkLuPG74wpu+eeEKnWXcadOe1Cd9r/RZwG+hf//WP1rsJ+r/+r4/Du7kB9Hbw1L4XRwP0cwffnPABg48++fyEPF0iNuUUmKeJJwvQAA3y1Vj5CNAAAEBllQP0t77x1eD3/s2f/2VPeqHr0qVL4Ug856vf+FZ4vGfPnvhSNwrf97u/+7tf/eq/6LzQc/DgwXhC9MR/+s3Om3/rX3Te4Z91vs1bb72VXuu+yde+9rXwzulbBN/4Vvim6eWu+La9EzrfK72wAE8cGInI65nubaB/+z/cfPv9W+kbtHf67GfhHcK7hZ+N295LR07F/c4TinPfiVPv9c9Ph2YSm3Lsy1PFkwVogAb5aqx8BGgAAKCyygE65t1ceqErBuhcP0BHb731Vnqh5+BggA5P0ws9eYAOwhumF3oaA3QuvbAAn3w6503Qv/PNzt0z/uVf3rxxc5YbcYSv+n//17T9Ofxs3PZWP7z+0pFTT+17MfyZDo1XfuZksSl38/J08WQBGqBBvhorHwEaAACorHKAZsgLbw5H5HVN2gT92X/4vz9t26DD+f/q4Q/j+4SfChYkNuUUmKeJJwvQAA3y1Vj5CNAAAEBlAvSG++4PByPyOqd3I45/+Zc33n7/8/Q9pjl99rM/WFoNXxveIfw8sDixKafAPE08WYAGaJCvxspHgAYAACoToDeDP//bkY4883zzi+6NODoN+n/799f/77/7dPXjSVuhr31866+e/egf/7uP4peHnwQWKjblFJiniScL0AAN8tVY+QjQAABAZQL0JjHPfdADDfqTf/zvPvqv/+v6Cz/99L2Ln8f7coQ/37v46xd+euPbT67+1p+s/vZ/+Cx+ob3PVBCbcgrM08STBWiABvlqrHwEaAAAoDIBevN44c35fSbhWoP+7Lcf+rSboT/+x3/y4W/9H9d+6//4IPz5j//dR//bQzfCCfH88H3d95k6YlNOgXmaeLIADdAgX42VjwANAABUJkBvKp98+uUTB+aXoQsmfK/wHcP3hTpiU06BeZp4sgAN0CBfjZWPAA0AAFQmQG9Or/y8c0OMf7u7E4h/98+Gq/F6JrxbeM/wzuH9w3eBymJTToF5mniyAA3QIF+NlY8ADQAAVCZAAzXFppwC8zTxZAEaoEG+GisfARoAAKhMgAZqik05BeZp4skCNECDfDVWPgI0AABQmQAN1BSbcgrM08STBWiABvlqrHwEaAAAoDIBGqgpNuUUmKeJJwvQAA3y1Vj5CNAAAEBlAjRQU2zKKTBPE08WoAEa5Kux8hGgAQCAygRooKbYlFNgniaeLEADNMhXY+UjQAMAAJUJ0EBNsSmnwDxNPFmABmiQr8bKR4AGAAAqE6CBmmJTToF5mniyAA3QIF+NlY8ADQAAVCZAAzXFppwC8zTxZAEaoEG+GisfARoAAKhMgAZqik05BeZp4skCNECDfDVWPgI0AABQmQAN1BSbcgrM08STBWiABvlqrHwEaAAAoDIBGqgpNuUUmKeJJwvQAA3y1Vj5CNAAAEBlAjRQU2zKKTBPE08WoAEa5Kux8hGgAQCAygRooKbYlFNgniaeLEADNMhXY+UjQAMAAJUJ0EBNsSmnwDxNPFmABmiQr8bKR4AGAAAqE6A30JWrq0ePnz704hvGLGLC367wdyz9bds0YlNOgXmaeLIADdAgX42VjwANAABUJkBvlCtXV19+9djlFf/px6KEv13h79hma9CxKafAPE08WYAGaJCvxspHgAYAACoToDfK0eOn1WcWLfwdC3/T0pPNITblFJiniScL0AAN8tVY+QjQAABAZQL0Rjn04hvpESzSZvubFptyCszTxJMFaIAG+WqsfARoAACgMgF6owjQ1CFAbwy/HIFFy1dj5SNAAwAAlQnQG0WApg4BemP45QgsWr4aKx8BGgAAqEyA3igCNHUI0BvDL0dg0fLVWPkI0AAAQGUC9EYRoKlDgN4YfjkCi5avxspHgAYAACoToDeKAE0dAvTG8MsRWLR8NVY+AjQAAFCZAL1RBGjqmPA3bfXD6y8dOfXUvhefO/hmOjReOPPRJ58Pf6bns4pNOQXmaeLJAjRAg3w1Vj4CNAAAUJkAvVEEaOqY8DftuYNvLj3yzEtHTp049V46NN7Z8yv989OhmcSmnALzNPFkARqgQb4aKx8BGgAAqKxygD6z775S+850v2L1lV3pQLNdr6x2zwvvvT8+vvrKw/ft73xxeBCPnNmfnZYJx8d7+NWGr5gjAZo6JvxNe/TJ55/a92J6MiJueU5PesL5owdbiU05BeZp4skCNECDfDVWPgI0AABQ2SbbAd3Jzd143Dd6JDNYls/s656ZAvTaF6bjo8aF6fBdX314YwL0xb077kqWBGrmYeYAHV5deuSZ9KRHgC4171+OAMPy1Vj5CNAAAEBlWyxA93c3R8MF+cz+fWfSOWf29wryyD7ntLe64ZXcRgTolb07967Eh28s3XXX0tH4GNZhtgB94tR7S488M3pvaAG61Lx/OQIMy1dj5SNAAwAAlW1EgG7ovr2oPHuAXn314fReufBqOKdXnDvn9OtzkH35kA3bAd3X2Qq9Y+/F9AxmNluAjrd7Xv3wenreI0CXmumXI0AL+WqsfARoAACgsg0K0HlkzhPzOndAd+628fC+/Q/f9/ArV9OBTuzOIvVAVu6+OM7GBuiVp3fctdMGaOZg3N+01Q+vN+5xjsJLjW36pSOnRu/L0UpsyikwTxNPFqABGuSrsfIRoAEAgMpumwAdP96w81rnnMy+/b1vN/rmG6k5C/buAb3j6XQrDlinxr9p8Q4bjz75/NnzDX/T4qvhz/Q8s/rh9fBV476wRGzKKTBPE08WoAEa5Kux8hGgAQCAyrZYgM6Kc8fQ0yAcGY7M/XcIr6Wd0bFWFxl6//mZvgPaPaCZh8kBevQmG8FT+14Mrza+FA7GVwXoKWb65QjQQr4aKx8BGgAAqGxrBegUjvtROAvQjU05fmG89XPnz8GaPHhL6LU8HQy+tBCTA3TnAwnvtw+aORj3N23CLTjGHQ/G3Ru6XGzKKTBPE08WoAEa5Kux8hGgAQCAyjYoQA8rCtDde2vs35ftes4CdDBQjQdu1pG+4+A7d8+fYBME6KXJp0CBCX/THm36EMIJ998IfAhhqZl+OQK0kK/GykeABgAAKtsEO6BzowG6rxuR950Zis5BrzvnlbnzPvmnCHb3Rw+/8abbAX1x71Jvy7NbcDAvbQN0OLg0/mMGBehSM/1yBGghX42VjwANAABUthEBeoIxATp+rmDsziMB+sy+0dY8sH851uf94c+1L+x8owLjQvkcNGbBbneO1Gfmo1WAnnBfjkiALjXvX44Aw/LVWPkI0AAAQGWbLEAPbEPuyvc1dw0H6KxZZ+d2b68RHsTQHF/vPh6M15nRb71YE7IgzNGEv2lP7XtxNEA/d/DNCR8w+OiTz0/I0yViU06BeZp4sgAN0CBfjZWPAA0AAFS2KQJ0CsddWSCO92heS8/JyObl7pd0tzk3xevBO2l0Ttt3tGz7c9fYYL1eAjR1TPib9tKRU3G/84Ti3Hfi1Hv989OhmcSmnALzNPFkARqgQb4aKx8BGgAAqKxygP7LEemFrkuXLqWjPXv27Emvdb311lvphZ6DBw+m17rC0/RCT/iS9FpXeMP0Qk/4pum1rnQ0k16YNwGaOib8TVv98PpLR049te/F8Gc6NF75mZPFptzNy9PFkwVogAb5aqx8BGgAAKAyAVqA5va22f6mxabczcvTxZMFaIAG+WqsfARoAACgssoBmj4BmjoE6I3hlyOwaPlqrHwEaAAAoDIBeqMI0NQhQG8MvxyBRctXY+UjQAMAAJUJ0BtFgKYOAXpj+OUILFq+GisfARoAAKhMgN4oAjR1CNAbwy9HYNHy1Vj5CNAAAEBlAvRGEaCpQ4DeGH45AouWr8bKR4AGAAAqE6A3igBNHQL0xvDLEVi0fDVWPgI0AABQmQC9UY4eP315xX/3sVjh71j4m5aebA6xKafAPE08WYAGaJCvxspHgAYAACoToDfKlaurL796TINmccLfrvB3LPxNS883h9iUU2CeJp4sQAM0yFdj5SNAAwAAlQnQG+jK1dWjx08fevENYxYx4W/XZqvPQWzKKTBPE08WoAEa5Kux8hGgAQCAygRooKbYlFNgniaeLEADNMhXY+UjQAMAAJUJ0EBNsSmnwDxNPFmABmiQr8bKR4AGAAAqE6CBmmJTToF5mniyAA3QIF+NlY8ADQAAVCZAAzXFppwC8zTxZAEaoEG+GisfARoAAKhMgAZqik05BeZp4skCNECDfDVWPgI0AABQmQAN1BSbcgrM08STBWiABvlqrHwEaAAAoDIBGqgpNuUUmKeJJwvQAA3y1Vj5CNAAAEBlAjRQU2zKKTBPE08WoAEa5Kux8hGgAQCAygRooKbYlFNgniaeLEADNMhXY+UjQAMAAJUJ0EBNsSmnwDxNPFmABmiQr8bKR4AGAAAqE6CBmmJTToF5mniyAA3QIF+NlY8ADQAAVCZAAzXFppwC8zTxZAEaoEG+GisfARoAAKhMgAZqik05BeZp4skCNECDfDVWPgI0AABQmQAN1BSbcgrM08STBWiABvlqrHwEaAAAoDIBGqgpNuUUmKeJJwvQAA3y1Vj5CNAAAEBl2zBAX7m6evT46UMvvmH6Ey5IuCzpAo3huo1OyXVjSGzKKTBPE08WoAEa5Kux8hGgAQCAyrZbgL5ydfXlV49dXvEfXAPCBQmXZUJLdd0aTb1ujIpNOQXmaeLJAjRAg3w1Vj4CNAAAUNl2C9BHj59WURuFyxIuTnoywnUbZ/J1Y1RsyikwTxNPFqABGuSrsfIRoAEAgMq2W4A+9OIb6REjJlwc120CF6eV2JRTYJ4mnixAAzTIV2PlI0ADAACVCdD0CdCzcXFaiU05BeZp4skCNECDfDVWPgI0AABQmQBNnwA9GxenldiUU2CeJp4sQAM0yFdj5SNAAwAAlQnQ9AnQs3FxWolNOQXmaeLJAjRAg3w1Vj4CNAAAUJkATZ8APRsXp5XYlFNgniaeLEADNMhXY+UjQAMAAJUJ0PQJ0LNxcVqJTTkF5mniyQI0QIN8NVY+AjQAAFDZFgrQBw4cuOOOO+65557l5eV0qD2tcAIBejYuTiuxKafAPE08WYAGaJCvxspHgAYAACrbKgF69+7dd9xxR/jz3nvvfeihh9LR9rTCCQTo2azn4jzwwAP/dFA4kl5bjJ07d97ZlZ73xIPh1fR8YWJTToF5mniyAA3QIF+NlY8ADQAAVLYlAnSsz8FDDz0U90GnF9qb2gpXnt6x4+mV9GTNyt7775pk59F04lY2Q4AOl2vcP3t4aWngi44u3bU0cmr/YHgwavT8zWg9AfrOO+98edDdd9+dXlsMAbqSOr8cge0sX42VjwANAABUtvkDdKzPBw4cWF5e7lbozj7o9Fp7o61wSlnuGMmgF/fuuC2K85AZAnQwJtmPBuiGWj1y5OjS/Xt779UYrBfo88/Sg0k++zw9yLQN0Dt37oybne/uio/77rzzzvRoMbuhX3755fADjIbmeDC8mp4vTGzKKTBPE08WoAEa5Kux8hGgAQCAyjZ5gO7X5/B4eXn5nnvuWU99Dia3wk5LvX/Hjp1LS8NFddoO6LVsuoUVBeiLe3ekf+Zxduy92DmxF6DHXLpwxfK3ihcwHMkDdMWr+vmJZ3Y98vih7k8+1sVDjz+y63tvXk9Pe9oG6D1dsS/HB0F4EG/HER/cfffd4UGFHFxfbMopME8TTxagARrkq7HyEaABAIDKNnOAnnt9Dsa3wk4n3fH0SqdBd/8c25TfWLo9brgxqihADwvXrWmHeOrKd911/9LS/SlJZzpx+R923jW0RXoDA/SXty4cemLXrt3PnBzOyz23fvF3u3fteuLQuZGN0m0DdBRbc3jwwAMPxP3I4c+45TlW6c5Jt6PYlFNgniaeLEADNMhXY+UjQAMAAJVt2gC9iPocNLbCozvvyvftphtKdCtqfNzp0VPVrKWLMbcA3dXbAd3TEO7XNkevXfP+ZRyI0VVcP/nM7l27/vZoU4K+fnL/7nF5WoBuJTblFJiniScL0AAN8tVY+QjQAABAZZszQC+oPgejrXDHXXct7Wz6ALw1/Q28jbE1HBzd4bslzT9AP92/Wfa4qzTxQwjrN/3uTTYeP3whPe25cPjxXbt2//D0zfR80NYK0PHNR98/How/0jrduHEzzLkLVz649nE6lIlNOQXmaeLJAjRAg3w1Vj4CNAAAUNkmDNCLq89Bcyt8YyntwB00sIf3jQmRensF6O6G8fFicY6Xq1OQm8pyR7xog580mO+Srr8Duqu7DXpgq3PcGD1apfu2VoAO3+XOrvS8Jx6MP8lsbty4+Yt3L7x+7J0f/eRoPodeO3ni9NnwajwtNuUUmKeJJwvQAA3y1Vj5CNAAAEBlmy1ALy8vf+UrX1lQfQ7GBegURUfEAN1Jrp0wOlhLEzugR65JtyNn+X7wEvUq82DI7r7JUIDuP66rs9+5/4GE3T3Ru/ePvTV0sLUCdHzz0fePB+OPNINfvHsh5ubXj70THp+7cCVugj5x+mxM0odeOxmOhzNjU06BeZp4sgAN0CBfjZWPAA0AAFS2CQP0HXfcER/MvT4H4wL09B3QHZM38255cwvQXf2r1w3N/XPCNcwv18Qd0BsUoL/88oNXn+p+IOFKd/PzE4cu3EovNNpaAXrubty42U/M/W3OQ/JzYlNOgXmaeLIADdAgX42VjwANAABUttkCdLz/RjT3+hyMC9AxJI8aCdCjsdUO6CkBumut3Tdd0qNL8W4b+f8lII/R9cX7bgRjPngwt80DdCzLcXfzBDe6N+gIZ8amnALzNPFkARqgQb4aKx8BGgAAqGyzBegDBw7s7lpeXk6H5mq2VtizVlEHCdANmgL0jr1Pd//ftbLcO969gOFLNkuADi6+9L2/+t5LBf/LbucAfe7Clcn1uX/njSicH5tyCszTxJMFaIAG+WqsfARoAACgss0WoBdttBXu6ATQyfp9OW7XHbK9dkBP+QTC6D/+RfeqhssSLk73yNB162w57x7pfdLgytNj/nfY2AZdZmsF6Jdffjl8o/gdc/FgeDU9L3Djxs0fdW/6nJ43GdofHb4kNuUUmKeJJwvQAA3y1Vj5CNAAAEBlmy1ALy8vHyiQzm5vtla4TZQEaEbNHKBj8A0PHnjggfAg/Bkex0C8uAAd3vzOrvS8Jx4Mr6bnBU6cPvujnxz94NrH6XmT/t2f+w06NuUUmKeJJwvQAA3y1Vj5CNAAAEBlmy1A33vvvfdM89BDD6Wz2xNSJxCgZzPbxYm5eZxWIbiVOQboQ6+dPHH6bHx87sKV8LhxYoDuN+jYlFNgniaeLEADNMhXY+UjQAMAAJVttgC9aELqBAL0bLbtxfnRT46e6AXoX7x74dBrJydPPDk25RSYp4knC9AADfLVWPkI0AAAQGUCNH0C9Gy258WJHz8Y/kzPi8WmnALzNPFkARqgQb4aKx8BGgAAqEyApk+Ans12DtCTbwDdKDblFJiniScL0AAN8tVY+QjQAABAZQI0fQL0bLbnxfng2scC9CRb7pcjsOXkq7HyEaABAIDKBGj6BOjZbM+Lc+PGzf7nCgbhQXg6eXwIIcA85aux8hGgAQCAygRo+gTo2Wzbi/P6sXfCxMf9AH3i9NlxE28YHZtyCszTxJMFaIAG+WqsfARoAACgMgGaPgF6Nts5QB967WT/LhyxQYcj8ek4sSmnwDxNPFmABmiQr8bKR4AGAAAq224B+ujx05dX/NdWg3BZwsVJT0a4buNMvm63t3gXjrw4lzTo2JRTYJ4mnixAAzTIV2PlI0ADAACVbbcAfeXq6suvHtNSh4QLEi5LuDjp+QjXrdHU63bbO3fhyo+yO0EH4fGh107euHEzPR8UXo1NOQXmaeLJAjRAg3w1Vj4CNAAAUNl2C9DBlaurR4+fPvTiG6Y/4YJMraiu2+iUXLfbXrwRR96gx4n7o2NTToF5mniyAA3QIF+NlY8ADQAAVLYNAzQwRzdu3Hz92DvxzhvjNj73zwl/xqacAvM08WQBGqBBvhorHwEaAACoTIAG1i/ubj702snXj71z4vTZcxeufHDt4/BnOB7Tc5i4Szo25RSYp4knC9AADfLVWPkI0AAAQGUCNDAXN27cPHH6bD839+fQayfD8f7m6NiUU2CeJp4sQAM0yFdj5SNAAwAAlQnQwHzduHEzbn8Of6ZDmdiUU2CeJp4sQAM0yFdj5SNAAwAAlQnQQE2xKafAPE08WYAGaJCvxspHgAYAACoToIGaYlNOgXmaeLIADdAgX42VjwANAABUJkADNcWmnALzNPFkARqgQb4aKx8BGgAAqEyABmqKTTkF5mniyQI0QIN8NVY+AjQAAFCZALMIYcsAAEiTSURBVA3UFJtyCszTxJMFaIAG+WqsfARoAACgMgEaqCk25RSYp4knC9AADfLVWPkI0AAAQGXbMEBfubp69PjpQy++YfoTLki4LOkCjeG6jU7JdWNIbMopME8TTxagARrkq7HyEaABAIDKtluAvnJ19eVXj11e8R9cA8IFCZdlQkt13RpNvW6Mik05BeZp4skCNECDfDVWPgI0AABQ2XYL0EePn1ZRG4XLEi5OejLCdRtn8nVjVGzKKTBPE08WoAEa5Kux8hGgAQCAyrZbgD704hvpESMmXBzXbQIXp5XYlFNgniaeLEADNMhXY+UjQAMAAJUJ0PQJ0LNxcVqJTTkF5mniyQI0QIN8NVY+AjQAAFCZAE2fAD0bF6eV2JRTYJ4mnixAAzTIV2PlI0ADAACVCdD0CdCzcXFaiU05BeZp4skCNECDfDVWPgI0AABQmQBNnwA9GxenldiUU2CeJp4sQAM0yFdj5SNAAwAAlQnQ9AnQs3FxWolNOQXmaeLJAjRAg3w1Vj4CNAAAUNkWCtAHDhy444477rnnnuXl5XSoPa1wAgF6Ni5OK7Epp8A8TTxZgAZokK/GykeABgAAKtsqAXr37t133HFH+PPee+996KGH0tH2tMIJBOjZrOfiPPDAA/90UDiSXluMnTt33tmVnvfEg+HV9HxhYlNOgXmaeLIADdAgX42VjwANAABUtiUCdKzPwUMPPRT3QacX2mtuhW8s3bXzaHrccXTprruWRk5ceXpHOhjOH7aUf/0WNUOADtdk8NKtWbtcSbiqo1epf7BzzUdsjau6ngB95513vjzo7rvvTq8thgBdSZ1fjsB2lq/GykeABgAAKtv8ATrW5wMHDiwvL3crdGcfdHqtvaZWuLL3/h17L3755cW9O1L3HJQCazit10MbgvU2DdDBytM7djy9kp5kRgJ0Q60eOXJ06f69vfeqfVU//yw9mOSzz9ODTNsAvXPnzrjZ+e6u+LjvzjvvTI8Wsxv65ZdfDj/AaGiOB8Or6fnCxKacAvM08WQBGqBBvhorHwEaAACobJMH6H59Do+Xl5fvueee9dTnoKEVvrGU+unFvTvW6mdPtzUf3ZladNeOvU9v4x3Q4zL9mm7NXwvQK3vvTy8MCJc6f6t45Qf+J8hj9MJ9fuKZXY88fqj7k4918dDjj+z63pvX09OetgF6T1fsy/FBEB7E23HEB3fffXd4UCEH1xebcgrM08STBWiABvlqrHwEaAAAoLLNHKDnXp+D0VYY9zUf3XnXjp1LE3ZAj9vnezspCtDDso3hfQNleWkpbjAf0InL/7Bz5D4nGxegv7x14dATu3btfubkcF7uufWLv9u9a9cTh86NbJRuG6Cj2JrDgwceeCDuRw5/xi3PsUp3TrodxaacAvM08WQBGqBBvhorHwEaAACobNMG6EXU52C0FaZUuvNo8w7opJtZ0503Gu9W3L9TxxY2twDdNXwLjuH7lgRrm6MbNqFP+p9jMa6ffGb3rl1/e7QpQV8/uX/3uDwtQLcSm3IKzNPEkwVogAb5aqx8BGgAAKCyzRmgF1Sfg6ZWuLL36W4Y7RTPpaXR+0Xcv3clxtN+Qh1uo3X36i7M/AP003t3pOgcThvdBx1M/BDC+le1e5ONxw9fSE97Lhx+fNeu3T88fTM9H7S1AnR889H3jwfjj7RQsSm3IkADNMhXY+UjQAMAAJVtwgC9uPocjLbCzufgdXVqaSdALx1NQXntz7d753Tt2PvGyH2Qt1OAHrwj9ohYnN/o9uR4AbuHR8QePfhJg/ku6fo7oLu626AHtjrHjdGjVbpvawXo8F3u7ErPe+LB+JMsVIrKbQjQAA3y1Vj5CNAAAEBlmy1ALy8vf+UrX1lQfQ5GW2HnLhD9Zrpzb3c/73CAThnUDugGTTuguxcquwXH4Pbn3mUcDNndNxkK0P3HdXX2O/c/kLC7J3r3/rG3hg62VoCObz76/vFg/JEWKkXlNgRogAb5aqx8BGgAAKCyTRig77jjjvhg7vU5mNAKux8zeLR/V+I1vbg8sFc6PuoToEf0A3Q3NPfPObqU9j5HE3dAb1CA/vLLD159qvuBhCvdzc9PHLpwK73QaGsF6A2XonIbAjRAg3w1Vj4CNAAAUNlmC9Dx/hvR3Otz0NgKe1txd+y9GHPq0A7ov/mbbpXecf+OsTugw8tbv0EvKEB3rd2IY+CTCTvH+xe8E6DTpxF2H6/F6PrifTeCMR88mBOgW0lRuQ0BGqBBvhorHwEaAACobLMF6AMHDuzuWl5eTofmarQV7ohJ9I2lbkFuDNC9stxPop0AvWNgE3T/nK1s8QF6x96nu//vWlnuHe/uie5uQt8cATq4+NL3/up7L61t1h5LgG4lReU2BGiABvlqrHwEaAAAoLLNFqAXbVwrPLoz7swdyKlpZ3Q/g8YkGv68664dO49mxTmL1FtZSYAevHHzGP/xL7p1Pu4o7x7J77MRdK5h90hvL3n/9ibDNrZBl9laAfrll18O3yh+x1w8GF5NzxcmReU2BGiABvlqrHwEaAAAoLLNFqCXl5cPFEhntzdbK9wmSgI0o2YO0DH4hgcPPPBAeBD+DI9jIF5cgA5vfmdXet4TD4ZX0/OFSVG5DQEaoEG+GisfARoAAKhsswXoe++9955pHnrooXR2e0LqBAL0bGa7ODE3j7O4ECxAVzL3X44AQ/LVWPkI0AAAQGWbLUAvmpA6gQA9GxenlRSV2xCgARrkq7HyEaABAIDKBGj6BOjZuDitpKjchgAN0CBfjZWPAA0AAFQmQNMnQM/GxWklReU2BGiABvlqrHwEaAAAoDIBmj4BejYuTispKrchQAM0yFdj5SNAAwAAlQnQ9AnQs3FxWklRuQ0BGqBBvhorHwEaAACoTICmT4CejYvTSorKbQjQAA3y1Vj5CNAAAEBlAjR9AvRsXJxWUlRuQ4AGaJCvxspHgAYAACrbbgH66PHTl1f811aDcFnCxUlPRrhu40y+boxKUbkNARqgQb4aKx8BGgAAqGy7BegrV1dffvWYljokXJBwWcLFSc9HuG6Npl43RqWo3IYADdAgX42VjwANAABUtt0CdHDl6urR46cPvfiG6U+4IFMrqus2OiXXjSEpKrchQAM0yFdj5SNAAwAAlW3DAA1soBSV2xCgARrkq7HyEaABAIDKBGigphSV2xCgARrkq7HyEaABAIDKBGigphSV2xCgARrkq7HyEaABAIDKBGigphSV2xCgARrkq7HyEaABAIDKBGigphSV2xCgARrkq7HyEaABAIDKBGigphSV2xCgARrkq7HyEaABAIDKBGigphSV2xCgARrkq7HyEaABAIDKBGigphSV2xCgARrkq7HyEaABAIDKBGigphSV2xCgARrkq7HyEaABAIDKBGigphSV2xCgARrkq7HyEaABAIDKtmGAvnJ19ejx04defMP0J1yQcFnSBRrDdRudkuvGkBSV2xCgARrkq7HyEaABAIDKtluAvnJ19eVXj11e8R9cA8IFCZdlQkt13RpNvW6MSlG5DQEaoEG+GisfARoAAKhsuwXoo8dPq6iNwmUJFyc9GeG6jTP5ujEqReU2BGiABvlqrHwEaAAAoLLtFqAPvfhGesSICRfHdZvAxWklReU2BGiABvlqrHwEaAAAoDIBmj4BejYuTispKrchQAM0yFdj5SNAAwAAlQnQ9AnQs3FxWklRuQ0BGqBBvhorHwEaAACoTICmT4CejYvTSorKbQjQAA3y1Vj5CNAAAEBlAjR9AvRsXJxWUlRuQ4AGaJCvxspHgAYAACoToOkToGfj4rSSonIbAjRAg3w1Vj4CNAAAUNkWCtAHDhy444477rnnnuXl5XSoPa1wAgF6Ni5OKykqtyFAAzTIV2PlI0ADAACVbZUAvXv37jvuuCP8ee+99z700EPpaHta4QQC9GzWc3EeeOCBfzooHEmvLcbOnTvv7ErPe+LB8Gp6vjApKrchQAM0yFdj5SNAAwAAlW2JAB3rc/DQQw/FfdDphfYaWuEbS3dFO48OPO6/Gh5f3LsjvXDXUv8NOicv9c67HcwQoFee3rF2rQaFl9auVcfRpYbL1T8YHozaGpd3PQH6zjvvfHnQ3XffnV5bDAG6kjq/HIHtLF+NlY8ADQAAVLb5A3SszwcOHFheXu5W6M4+6PRae80BOqbn7p87nl4ZOtL58+LeHffvXflyZe/9O/ZejF92dOmuHUs7x+bXrWiGAB2sPL2jc9FGjATohlo9cuToUuc69x7XDdCff5YeTPLZ5+lBpm2A3rlzZ9zsfHdXfNx35513pkeL2Q398ssvhx9gNDTHg+HV9HxhUlRuQ4AGaJCvxspHgAYAACrb5AG6X5/D4+Xl5XvuuWc99TlYV4BOGTrobNeN1fXozvTgNlAUoLPN4GOkRt8L0Ct7708vDIjXMz3pPo1vngfotccL9/mJZ3Y98vih9H9dGOPioccf2fW9N6+npz1tA/SertiX44MgPIi344gP7r777vCgQg6uL0XlNgRogAb5aqx8BGgAAKCyzRyg516fg/UE6KOxqHazaR6dj+7s9dMtrihAD1vZe//IPuWBsry0tLZtvK8Tl/9hZ3Y/k2jjAvSXty4cemLXrt3PnBzOyz23fvF3u3fteuLQuZGN0m0DdBRbc3jwwAMPxP3I4c+45TlW6c5Jt6MUldsQoAEa5Kux8hGgAQCAyjZtgF5EfQ7WE6D3doJpZ+/z0s6h+xXv2Pv00m3QoOcWoLuGb8ERr+SAtc3RKejnAXogRldx/eQzu3ft+tujTQn6+sn9u8flaQG6lRSV2xCgARrkq7HyEaABAIDKNmeAXlB9DkZbYSqgI3bc3709cRags1twRGPb6xY1/wD99N4dKTqH00b3QQf9Gz13yv6w+k2/e5ONxw9fSE97Lhx+fNeu3T88fTM9H7S1AnR889H3jwfjj7RQKSq3IUADNMhXY+UjQAMAAJVtwgC9uPocNLTCwf3OE3ZAr3TuttHd7Nxk+G4SW1BhgO7ccmSCcLmCcN2CzkVrKssdsUf3A3RXvNpR/R3QXd1t0ANbnePG6NEq3be1AnT4Lnd2pec98WD8SRYqReU2BGiABvlqrHwEaAAAoLLNFqCXl5e/8pWvLKg+B3MI0GvbeO2ADpouQveiZbfgGNz+HC/pcMjuvknvpY5wzfuP6+rsd+5/IGF3T/Tu/WNvDR1srQAd33z0/ePB+CMtVIrKbQjQAA3y1Vj5CNAAAEBlmzBA33HHHfHB3Otz0Big+9F55ekdYwN0zKRxT27qpLG91v2svEWaW4Du6gfobmjun3N0Ke19jibugO4/ru2DV5/qfiDhSnfz8xOHLtxKLzTaWgF6w6Wo3IYADdAgX42VjwANAABUttkCdLz/RjT3+hyMtsLUSbvp82jnYwYHM2g/QPcr89rjXnsN5+QVdctaUIDuWrsRR3YwiAG6F/Hj/zEgyv9XqC/edyMY88GDOQG6lRSV2xCgARrkq7HyEaABAIDKNluAPnDgwO6u5eXldGiuRlthujtEJ3fuzR6PC9D5jt2svW5sLZ2TxQfo3h20165V73h3T3TagR5t+CW9+NL3/up7L61t1h5LgG4lReU2BGiABvlqrHwEaAAAoLLNFqAXbbQV7ujeeaMTQe/fcVd3E3TncbwRR1fncb4DumNl7/3d1wYObnklAXrKJxBG//Evuncs2bH3Yu9CDe0Q71zb7pHehY3/EzTYCll/awXol19+OXyj+B1z8WB4NT1fmBSV2xCgARrkq7HyEaABAIDKNluAXl5ePlAgnd3ebK1wmygJ0IyaOUDH4BsePPDAA+FB+DM8joF4cQE6vPmdXel5TzwYXk3PFyZF5TYEaIAG+WqsfARoAACgss0WoO+99957pnnooYfS2e0JqRMI0LOZ7eLE3DzO4kKwAF3J3H85AgzJV2PlI0ADAACVbbYAvWhC6gQC9GxcnFZSVG5DgAZokK/GykeABgAAKhOg6ROgZ+PitJKichsCNECDfDVWPgI0AABQmQBNnwA9GxenlRSV2xCgARrkq7HyEaABAIDKBGj6BOjZuDitpKjchgAN0CBfjZWPAA0AAFQmQNMnQM/GxWklReU2BGiABvlqrHwEaAAAoDIBmj4BejYuTispKrchQAM0yFdj5SNAAwAAlQnQ9AnQs3FxWklRuQ0BGqBBvhorHwEaAACobLsF6KPHT19e8V9bDcJlCRcnPRnhuo0z+boxKkXlNgRogAb5aqx8BGgAAKCy7Ragr1xdffnVY1rqkHBBwmUJFyc9H+G6NZp63RiVonIbAjRAg3w1Vj4CNAAAUNl2C9DBlaurR4+fPvTiG6Y/4YJMraiu2+iUXDeGpKjchgAN0CBfjZWPAA0AAFS2DQM0sIFSVG5DgAZokK/GykeABgAAKhOggZpSVG5DgAZokK/GykeABgAAKhOggZpSVG5DgAZokK/GykeABgAAKhOggZpSVG5DgAZokK/GykeABgAAKhOggZpSVG5DgAZokK/GykeABgAAKhOggZpSVG5DgAZokK/GykeABgAAKhOggZpSVG5DgAZokK/GykeABgAAKhOggZpSVG5DgAZokK/GykeABgAAKhOggZpSVG5DgAZokK/GykeABgAAKhOggZpSVG5DgAZokK/GykeABgAAKhOggZpSVG5DgAZokK/GykeABgAAKhOggZpSVG5DgAZokK/GykeABgAAKhOggZpSVG5DgAZokK/GykeABgAAKhOggZpSVG5DgAZokK/GykeABgAAKhOggZpSVG5DgAZokK/GykeABgAAKhOggZpSVG5DgAZokK/GykeABgAAKhOggZpSVG5DgAZokK/GykeABgAAKhOggZpSVG5DgAZokK/GykeABgAAKhOggZpSVG5DgAZokK/GykeABgAAKhOggZpSVG5DgAZokK/GykeABgAAKhOggZpSVG5DgAZokK/GykeABgAAKqsfoJ/9718+ez49/u63vvwnjfM/0gkdPx18ugjhWwz9AL354+fSKcBcpKjchgAN0CBfjZWPAA0AAFRWP0BffK4Tdr/70/Q0CgfHpt4FBOjj/2OgMuc/zHdHfjZgjlJUbkOABmiQr8bKR4AGAAAqqx+gO3765T/5719eTE86vvuttW3Rw0YD9MiG5bFfO9Hx/zFSvUd+MGC+UlRuQ4AGaJCvxspHgAYAACqrHKA72597NfnZ/z7ckfM5Hs4YCc1hOq15MBNPitcT5QG6+WYgYjTMW4rKbQjQAA3y1Vj5CNAAAEBltQP0+W7qzcPu+S//uCkrr8mOp9a8mAA9/Cbjfp5M3tOBEikqtyFAAzTIV2PlI0ADAACVVQ7Q0bP/fe0+y9/NPuivc2vmkZ7bibxZgE47oxcWoNcOCtCwACkqtyFAAzTIV2PlI0ADAACVbUiATn7auc1FrL39JN1p0IPZN4+8EwL05Bt6DEzvawVoqC9F5TYEaIAG+WqsfARoAACgsg0I0PGeG891WnB/53K+JzqG6f7TTpIuCNAzmDlAd36koagdZlqtBoIUldsQoAEa5Kux8hGgAQCAyjYgQOdht9uaj8cA3a26nTA9WHLDS3kmXnSAXkvh4wN0nx3Q0FaKym0I0AAN8tVY+QjQAABAZfUDdB5t+wk4Zt/vdjc+d/YX96tu/yMKe4/nG6Dj5uXwM6Q3yb+dAA0LkKJyGwI0QIN8NVY+AjQAAFBZ/QC9tsU4q73xYL9Hf7d3b+hO4e1X4PkF6H567rxbpvN9w8/Q9FIjARraSlG5DQEaoEG+GisfARoAAKisdoAejM79epsi8tCm43w/ctB/NTyIt13uTdsAPaqTknvVu6P7LdaeAnOSonIbAjRAg3w1Vj4CNAAAUFntAN0Nu/nm4u/2IvLojuP8Bh3xnMa7M8+wA3pAzNlNG5nD99WgYb5SVG5DgAZokK/GykeABgAAKqsdoIHtLUXlNgRogAb5aqx8BGgAAKAyARqoKUXlNgRogAb5aqx8BGgAAKAyARqoKUXlNgRogAb5aqx8BGgAAKAyARqoKUXlNgRogAb5aqx8BGgAAKAyARqoKUXlNgRogAb5aqx8BGgAAKAyARqoKUXlNgRogAb5aqx8BGgAAKAyARqoKUXlNgRogAb5aqx8BGgAAKAyARqoKUXlNgRogAb5aqx8BGgAAKAyARqoKUXlNgRogAb5aqx8BGgAAKAyARqoKUXlNgRogAb5aqx8BGgAAKAyARqoKUXlNgRogAb5aqx8BGgAAKAyARqoKUXlNgRogAb5aqx8BGgAAKAyARqoKUXlNgRogAb5aqx8BGgAAKAyARqoKUXlNgRogAb5aqx8BGgAAKAyARqoKUXlNgRogAb5aqx8BGgAAKAyARqoKUXlNgRogAb5aqx8BGgAAKAyARqoKUXlNgRogAb5aqx8BGgAAKAyARqoKUXlNgRogAb5aqx8BGgAAKAyARqoKUXlNgRogAb5aqx8BGgAAKAyARqoKUXlNgRogAb5aqx8BGgAAKAyARqoKUXlNgRogAb5aqx8BGgAAKCy9Qfod355zhhjCidF5TYEaIAG+WqsfARoAACgsvUH6A8/um6MMYWTonIbAjRAg3w1Vj4CNAAAUJkAbYypOSkqtyFAAzTIV2PlI0ADAACVCdDGmJqTonIbAjRAg3w1Vj4CNAAAUJkAbYypOSkqtyFAAzTIV2PlI0ADAACVCdDGmJqTonIbAjRAg3w1Vj4CNAAAUJkAbczWncvhX96Va28vn3v//OWhlzbtpKjchgAN0CBfjZWPAA0AAFQmQBuz5ebyyrUTp949/NrJH75wJJ8XDh87cuxMeHXo/E01KSq3IUADNMhXY+UjQAMAAJUJ0MZsrTlx6t2Ymw+/djI8fnv5XNwEfeTYmZikXzh8LBwf+qrNMykqtyFAAzTIV2PlI0ADAACVCdDGbJW5vHKtn5jHbXMuOWdjJ0XlNgRogAb5aqx8BGgAAKAyAdqYrTKxLE/d3Xy5e4OOuEV66KXNMCkqtyFAAzTIV2PlI0ADAACVCdDGbIl5e/nc5Po8dOeNqedv1KSo3IYADdAgX42VjwANAABUJkAbs/nn8sq1qTuah/ZHx3txbMIbcaSo3IYADdAgX42VjwANAABUJkAbs/nnyLEzP3zhyPvnLw8dzycW56EGPTVb158UldsQoAEa5Kux8hGgAQCAyjYiQP9sz9d3Hjjbf/z7Xx+e7x8bOP/6sT2/v/TjC/3z9xwfeHVgjn//6985eC49/dmetcedOban/33DXDjwnZG3GvjygVn7Gc4eXBr+gbsz5guNWf+8cPjYkWNn4uO3l8+Fx40TA3TeoOMm6Ph4k0yKym0I0AAN8tVY+QjQAABAZZsgQA/m5k7eHQrQ2fnjA3GawRPO/Xhn/2n38fePTQ7Q3YNf3/OzwYPTfqowU38wY9YxP3zhyJFegD5x6t0XDh+bPPnJ4Wvj4znM6siR9pOichsCNECDfDVWPgI0AABQWeUAfWzP0Jbhzo7mtSNpBlPvWtvt1uHhk7vTj7/DITh8STcTh+PDBXktQA/8VIMzekK2F1uANjUmfpxg+HPoeMm8f/5y+NrJ9+4onA/efXPvk8+/8u7q0PG2k6JyGwI0QIN8NVY+AjQAAFDZRu+AnjqdTBybb387c3ZHjrUZishLPz7YlLY7E7528OTv72l6w7VC3bD9OUz4p8gOHv9+w75pY+YxMUDPFpHjbaBni9cDc+ntv9/z7A9+9A+P7zn0s0sjr7aZFJXbEKABGuSrsfIRoAEAgMo2NEBn2587ZTl72m+7nZ3L3TrcqcApWzcG6Dj5PTemzcAO6O4brsXufIbSdrprx2CV7nxfAdosZtaziznG68sr14aOt5sPzr3yzA8ef+mXH3y0uvza848+8+byByPnFE+Kym0I0AAN8tVY+QjQAABAZRsVoPfs2dnZpBxj8dmDSylAx6Tbf3DhwHd2LnWj8LE9vfI7UoTXonC3IM8QoNNMvI3GcPUWoE2tibuY+58rGG/rPHn6Jx85diY8jY9nnNUrP3vh2bXovLpy9NkfPP7C27+a9X7QKSq3IUADNMhXY+UjQAMAAJXVD9AxH3dj7pQd0LHqDpff0Rbcn+526TgDZbl5urU6nLznYHrQOL2svPZNO+l55LQwArRZ2Bx+7WSY+LgfoI8cOzNu+vfcCI9fOHwsPp5pulueh2670bkdxw/2vnbug/6RNpOichsCNECDfDVWPgI0AABQWeUAfayzkbmzA3r4HtCDG4rjHNvTOVIcoLs7mvfEXcydPdQHfrxzuBF3Jr1nfNrv1MNbmLPd0P2T08TT0q7tMV9uzFzn8GsnXzh8rH8Xjtigp5bluHX6yLEzQ8fL51dvHXq86YMHux9I+Ozfv3Vl6HjJpKjchgAN0CBfjZWPAA0AAFRWfwd0/x7Qw2F3aEa3HvemMUB3EvB3Dp6beBuNwcluwdHJ33kT77w05ZsOfqPw3ZuauDHzmZiS8+Jc0qAPv3YynDPbzaPDTK7M49r01ElRuQ0BGqBBvhorHwEaAACobAMD9OCRbnRuaseNAXogVXdv6HFsT/c9ZwzQF871bqwRjnTef+RNJgfo0R/SmPlO/DjB/s2dw4THLxw+Nu4DBmOh7t+Lo/VcnnqfjXR3jpOXh45PmRSV2xCgARrkq7HyEaABAIDKNj5Ax5tv9P+cWn4n197ZAvTapBQ+crz3TY9/P31rAdpUn3gjjrxBj5tYn/u3jZ5lzp187ifTPmlw9crJn/zDT8+NHJ84KSq3IUADNMhXY+UjQAMAAJVtbIA+1t9rHAN0ejDQfysF6O737aXnzktfH7kpR2e3df/NwzfKbvosQJsKc3nlWryrxoSNz/1z1lWfFzkpKrchQAM0yFdj5SNAAwAAldUN0FnGHQrN/QDdnbUwPWOA7n2jxvnOwZ+nzyfMPpCwIVt3dkP3fsLwhlk077/V0PgcQrP4ibubXzh87PBrJ48cO/P28rn3z18Of4bjMT2HKdklvVGTonIbAjRAg3w1Vj4CNAAAUNlG7IA2xqxrLq9cO3LsTD839+eFw8fC8XGbozfJpKjchgAN0CBfjZWPAA0AAFQmQBuzdefyyrW4/Tn8OfTSpp0UldsQoAEa5Kux8hGgAQCAygRoY0zNSVG5DQEaoEG+GisfARoAAKhMgDbG1JwUldsQoAEa5Kux8hGgAQCAygRoY0zNSVG5DQEaoEG+GisfARoAAKhMgDbG1JwUldsQoAEa5Kux8hGgAQCAygRoY0zNSVG5DQEaoEG+GisfARoAAKhMgDbG1JwUldsQoAEa5Kux8hGgAQCAygRoY0zNSVG5DQEaoEG+GisfARoAAKhMgDbG1JwUldsQoAEa5Kux8hGgAQCAygRoY0zNSVG5DQEaoEG+GisfARoAAKhMgDbG1JwUldsQoAEa5Kux8hGgAQCAytYfoN/55TljjCmcFJXbEKABGuSrsfIRoAEAgMrWH6DTGwEUSFG5DQEaoEG+GisfARoAAKhMgAZqSlG5DQEaoEG+GisfARoAAKhMgAZqSlG5DQEaoEG+GisfARoAAKhMgAZqSlG5DQEaoEG+GisfARoAAKhMgAZqSlG5DQEaoEG+GisfARoAAKhMgAZqSlG5DQEaoEG+GisfARoAAKhMgAZqSlG5DQEaoEG+GisfARoAAKhMgAZqSlG5jfUE6M+uf5oeNfjs+vXP0sNRE1+czi9HYNHy1Vj5CNAAAEBlAjRQU4rKbcwYoC+//lf//l/dF/zb7+w/Ofyb6vLx//Xfui/+q//29Mnr6WDPyvGn/mt68amjl9PBlvxyBBYtX42VjwANAABUJkADNaWo3MZMAfrcgf/UScjJv/ofx/PKfPnwd9ILXX/104EXDw28+J1DF9MLrfjlCCxavhorHwEaAACoTIAGakpRuY1ZAvTqqw+ngJzsP5NeCVZf2ZWOJvuyFz89/ng6mjx+fJZbcfjlCCxavhorHwEaAACoTIAGakpRuY1ZAvRnP9/bvYlGz3cO5bfSeO+5b6bjXd85PPDi3w28+M2/ey+90IpfjsCi5aux8hGgAQCAygRooKYUlduY7R7Qq8ef6N2E419958B7g7uYPz2zP97lObz4X/efGfygws/O7I/3h+7cBPoHZ2b7KEK/HIFFy1dj5SNAAwAAlQnQQE0pKrcx44cQBtd/debkz99bbU7In62+d/LkhBd/fvK9q7PF5w6/HIFFy1dj5SNAAwAAlQnQQE0pKrcxe4DeQH45AouWr8bKR4AGAAAqE6A3p5s3P/vo40+uXfv4ytXVy+F/oLlOeM/wzuH9w3dJ3w9qSVG5DQEaoEG+GisfARoAAKhMgN5Uvvjiy4+v31hEdB434XuF7xi+L9SRonIbAjRAg3w1Vj4CNAAAUJkAvXnc+PRmPz2vrFy7du2jTz759PPPPw8vffHFF7/+9a+vf3Lj6ger5391+VcXVi5cvHLx0tVLlz/op+Q20/2qyx+E7xKPhO8bvnv8MWChUlRuQ4AGaJCvxspHgAYAACoToDeJjz7+JLXgK6ufTmzBt27dWl396Nz5SzFDX7r8wawZujeX04PwM6TvAQuTonIbAjRAg3w1Vj4CNAAAUJkAvRl8+NH1tgn45s3PLl5aOf+ry+vbCj084SdJ3wAWI0XlNgRogAb5aqx8BGgAAKAyAXrDxb3PK1eutf1IwC+++OLy5avnzl+aV4MOP0P40z5oFipF5TYEaIAG+WqsfARoAACgMgF6Y9349GaMv23rc/TFF19cuLAyxwYdx/2gWZwUldsQoAEa5Kux8hGgAQCAygToDfTFF1/GTx1cz6bjTz+9+d7ZX8UGPa8AHX6q8LNx21v98PpLR049te/F5w6+mQ6NF8589Mnnw5/p+axSVG5DgAZokK/GykeABgAAKhOgN9DH1290au+V1fR8VlevXjv7/oXzv7o8n03Q3c8kDD9benduX88dfHPpkWdeOnLqxKn30qHxzp5f6Z+fDs0kReU2BGiABvlqrHwEaAAAoLIND9Bn9t133337z6RnU6y++vB9+yadG97t4VfXem44v/f0zP77Hn7lavfheOnLr77ycPGPtB5x+/On677fxeeff/7Ld8+dO39xvpug07tz+3r0yeef2vdiejIibnlOT3rC+aMHW0lRuQ0BGqBBvhorHwEaAACobDPsgO406F2vlPXO1Vd23TehQfcCdPe0caZ/ebd0L7hB37z52eWVaysr19Lz9bl4aWWOm6DDTxX+nO221GwhkwN0eHXpkWfSkx4ButRcfjkCTJCvxspHgAYAACqrG6AnduEhu15Z7exELrG2tXk+O6C7wtcutEB/9PEnl1euXbs2n0i1+uFH7753fm53gu6+w3ruTM2WMCFAnzj13tIjz4zeG1qALtXylyNAa/lqrHwEaAAAoLIN2gG9+squphx8Zv/AvuOiW2GkstzZRp3Z/+qYeN3Zat2mg0+848d6XLv28eWVa5988ml6vj43b95c/uX775+7MMe7cISfML07t6kJATre7nn1w+vpeY8AXWrWX44ApfLVWPkI0AAAQGUbFKCHtypHnYjcEHw7WbrZ8I07Omemt22M1+H1iff6yHZML1y8AfTnn3+enq/PrVu3zvzivbPvX/jVhZWLl67mHXmm6SRst4G+va1+eL1xj3MUXmps0y8dOTV6X45WUlRuQ4AGaJCvxspHgAYAACrbqADdFIjTXuYS3f3OTX35vvse3tX9oMJxt++YFqAXt+V5SEy96ck8vHPm3f5toHsdeb2T3prbTrzDxqNPPn/2/Eo6lImvhj/T88zqh9fDV437whIpKrchQAM0yFdj5SNAAwAAlW1YgO5G5Hy7cWn87ZblphtzdG7r8XD3Iwo777xv/6Qd0I15Orw0bYv0HMXC+8UXX6Tn63Pr1q13zrz73tlfzetzCOOkd+e20w/QozfZCJ7a92J4tfGlcDC+KkBPsZ5fjgAl8tVY+QjQAABAZRsYoLsVuLflubN5uakqD+vcvrnxvNiv16J24Q7ooeLc+aqSH2MO4i04bt78LD1fn09v3swDdB6RZxq34Lj9TbgFx7jjwbh7Q5dLUbkNARqgQb4aKx8BGgAAqGwjA3TQ6c4Pv3ImK9GZ7n02ynTScyccD+2q7grfY/ydPYa3PE88ea7ihxB++OF8Pujv2uqH8RYcc7oHdGd8COFt79GmDyGccP+NwIcQllrvL0eAafLVWPkI0AAAQGUbHKDjzuX+JwdON3YHdNQL0J2wPVZenIcD9GDCHnl1jj76+JPLK9dWVubzn37nz1/4xfLZ9891AvQc7r/RfYfwE6Z35zbVGKDDwaXxHzMoQJda/y9HgMny1Vj5CNAAAEBlGxmg410yOoU39uKSrceFAXpNZxv1vv37x3Xk0cTc+VnST7LQzyS8efOzmHpv3bqVDs3q888/P3X6F8u/fP/c+YsXLl5Zf4Be6f45r9uDsGmNBugJ9+WIBOhS6/rlCFAgX42VjwANAABUtiEBOu56Hr7pc++uzRN3Q7cJ0PENY0HuPm74wpi+e+IJnWbdadCd1yZ8r/WLt4G++sGEf94ily6tzP0TCN0Aejt4at+LowH6uYNvTviAwUeffH5Cni6RonIbAjRAg3w1Vj4CNAAAUFnlAP2tb3w1+L1/8+d/2ZNe6Lp06VI4Es/56je+FR7v2bMnvtSNwvf97u/+7le/+i86L/QcPHgwnhA98Z9+s/Pm3/oXnXf4Z51v89Zbb6XXum/yta99Lbxz+hbBN74Vvml6uSu+be+EzvdKLyzAx9dvXF65dvHi1fXsNf7kkxtx+3O8/8YcbgB9ufNn+NnSN+D29dKRU3G/84Ti3Hfi1Hv989OhmaSo3IYADdAgX42VjwANAABUVjlAx7ybSy90xQCd6wfo6K233kov9AwF6PA0vdCTB+ggvGF6oacxQOfSCwvwxRdpE/TFS1e+CE/au3Xr1vIvz8btz+fOX5rL/TfChJ9qph+HLWb1w+svHTn11L4Xw5/p0HjlZ06WonIbAjRAg3w1Vj4CNAAAUFnlAM2QG5/ejM330uXWDfrWrVtnz557+51f/vLdc+fOX5zP9ufuhJ8qfQ+YtxSV2xCgARrkq7HyEaABAIDKBOgN99HHn1xeubZy5drFSyufFpffTz65sfzLs7E+92++sc7tz+FnCH+Gnyd9D1iAFJXbEKABGuSrsfIRoAEAgMoE6M3gw4+uxwR87vylq1evff755+mFJuHVS5dWTp3+xTtn3o31eY6fPRh+kvRtYDFSVG5DgAZokK/GykeABgAAKhOgN4m4DzrMxYtXz75/4eKlldUPP7p58+atW7fCq+HPT2/evLb64fnzF2J6Xv7l+937Pqc7b6yrPnc/dTCMvc9UkKJyGwI0QIN8NVY+AjQAAFCZAL153Pj0ZvxMwjCXLl09d+7ie2d/9Yvl9945825/frF8Nqbn989dOHf+0qz1uXv+5Q9WekfC93XfZ+pIUbkNARqgQb4aKx8BGgAAqEyA3lS++OLLj6/f6GfoChO+V/iOLT/+EGaXonIbAjRAg3w1Vj4CNAAAUJkAvTndvPnZRx9/cu3ax4uI0eE9wzuH9w/fJX0/qCVF5TYEaIAG+WqsfARoAACgMgEaqClF5TYEaIAG+WqsfARoAACgMgEaqClF5TYEaIAG+WqsfARoAACgMgEaqClF5TYEaIAG+WqsfARoAACgMgEaqClF5TYEaIAG+WqsfARoAACgMgEaqClF5TYEaIAG+WqsfARoAACgMgEaqClF5TYEaIAG+WqsfARoAACgMgEaqClF5TYEaIAG+WqsfARoAACgMgEaqClF5TYEaIAG+WqsfARoAACgMgEaqClF5TYWEqBXug4fPnzq1Kl0aK78cgQWLV+NlY8ADQAAVCZAAzWlqNzGPAP0ysrKM8888+1vf/u+QQ8++OBjjz0WXk3nrZtfjsCi5aux8hGgAQCAygRooKYUlduYW4B+5plnYm7+9re/HR4fPnw4boJ+7LHHYpJ+8MEHw/F09vr45QgsWr4aKx8BGgAAqEyABmpKUbmNOQTolZWVfmIet825f074c/1bof1yBBYtX42VjwANAABUJkADNaWo3MYcAnQsy0O7m0+dOhX3QafnvRt0xAadDs3KL0dg0fLVWPkI0AAAQGUCNFBTisptrDdAHz58eKg+r6ysPPjgg+FgNLQtevT8GfjlCCxavhorHwEaAACoTIAGakpRuY11BeiVlZX7RnY09zdE97c8P/jgg+m13r04Jtyso4RfjsCi5aux8hGgAQCAygToDXTl6urR46cPvfiGMYuY8Lcr/B1Lf9s2jRSV21hXgH7sscfuu+++U6dOpee9Dc7heHre+3DC/JzGbN2KX47AouWrsfIRoAEAgMoE6I1y5erqy68eu7ziP/1YlPC3K/wd22wNOkXlNtYVoB988MG8NQenTp2677778t3NMUnnN4MO4ibo9KQ9vxyBRctXY+UjQAMAAJUJ0Bvl6PHT6jOLFv6Ohb9p6cnmkKJyG+sK0EObnRvFO3KkJz1xW3R60p5fjsCi5aux8hGgAQCAygTojXLoxTfSI1ikzfY3LUXlNmYP0I1bm4fE+jx6Ttwond+XoxW/HIFFy1dj5SNAAwAAlQnQG0WApg4BelJEjtucw5/peSbeBnpyvJ7AL0dg0fLVWPkI0AAAQGUC9EYRoKljWwfoqbuYw6vjPmkwxuv8VtGt+OUILFq+GisfARoAAKhMgN4oAjR1bOsAHXcxN25wDmKeHrfH+bHHHguvpift+eUILFq+GisfARoAAKhMgN4oAjR1bOsAHXy7Kz0ZNHl/9GOPPfbggw+mJ+355QgsWr4aKx8BGgAAqEyA3igCNHUI0N9+8MEHGyvzysrKuO3Pcev0Y489lp6355cjsGj5aqx8BGgAAKAyAXqjCNDUsd0DdEzJ4/Yyf/zxx+nRoG9/+9vhq2a+AXTglyOwaPlqrHwEaAAAoDIBeqMI0NQx4W/a6ofXXzpy6ql9Lz538M10aLxw5qNPPh/+TM9nlaJyG+sK0EH8OMHRO0F/73vfC8fDn+l5TzgzHB+3ObqQX47AouWrsfIRoAEAgMoE6I0iQFPHhL9pzx18c+mRZ146curEqffSofHOnl/pn58OzSRF5TbWG6CDeCOOoQb96KOP3nfffeHP9Lwr1udxt40u55cjsGj5aqx8BGgAAKCyygH6zL77Su070/2K1Vd2pQPNdr2y2j0vvPf++PjqKw/ft7/zxeFBPHJmf3ZaJhwf7+FXG75ijpqz4MW9O+5KlgRq5mFCgH70yeef2vdiejIibnlOT3rC+aMHW0lRuY05BOiVlZVYlh988MH+jTU++eSTI0eOhD/j03A83nlj/fU5aPvLEaCtfDVWPgI0AABQ2SbbAd3Jzd143Dd6JDNYls/s656ZAvTaF6bjo8aF6fBdX314IwL0yt6de1Mae2PprruWjsbHsA4zB+jw6tIjw3et2KoBOuo36G9/+9uPPfbY4cOHT506Ff4Mx2N6DoZ2Sc9s3r8cAYblq7HyEaABAIDKtliA7u9ujoYL8pn9+86kc87s7xXkkX3OaW91wyu5jdkB3dfZCr1j78X0DGY2W4A+ceq9pUeeGb039NYO0MHKyspjjz3Wz8198QYd6/nUwSHz/uUIMCxfjZWPAA0AAFS2EQG6ofv2ovLsAXr11YfTe+XCq+GcXnHunNOvz0H25UM2aAf0mpWnd9y10wZo5mC2AB1v97z64fX0vGfLB+i+lZWVuP05/JkOzdVMvxwBWshXY+UjQAMAAJVtUIDOI3OemNe5A7pzt42H9+1/+L6HX7maDnRidxapB7Jy98VxNiZA9+4BvePpuW3EZJsbF6BXP7zeuMc5Ci81tumXjpwavS9HKykqt7GQAL1oM/1yBGghX42VjwANAABUdtsE6Pjxhp3XOudk9u3vfbvRN99I03dAuwc089D4Ny3eYePRJ58/e77h/9QRXw1/pueZ1Q+vh68a94UlUlRuQ4AGaJCvxspHgAYAACrbYgE6K84dQ0+DcGQ4MvffIbyWdkbHWl1k6P3nZ3KA7nwg4f32QTMHkwP06E02gqf2vRhebXwpHIyvCtBTzPTLEaCFfDVWPgI0AABQ2dYK0Ckc96NwFqAbm3L8wnjr586fgzV58JbQa3k6GHxpIUoC9NLkU6DAuL9pE27BMe54MO7e0OVSVG5DgAZokK/GykeABgAAKtugAD2sKEB3762xf1+26zkL0MFANR64WUf6joPv3D1/gvoB+uLepd6WZ7fgYF4m/J86Hm36EMIJ998Ibp8PIVy0mX45ArSQr8bKR4AGAAAq2wQ7oHOjAbqvG5H3nRmKzkGvO+eVufM++acIdvdHD7/xJtwB3e3OkfrMfLQN0OHg0viPGRSgS830yxGghXw1Vj4CNAAAUNlGBOgJxgTo+LmCsTuPBOgz+0Zb88D+5Vif94c/176w840KjAvlczAhC8IctQrQE+7LEQnQpeb9yxFgWL4aKx8BGgAAqGyTBeiBbchd+b7mruEAnTXr7Nzu7TXCgxia4+vdx4PxOjP6rRdLgKaOCX/Tntr34miAfu7gmxM+YPDRJ5+fkKdLpKjchgAN0CBfjZWPAA0AAFRWOUD/5YjO0RSO7/vn//yff/Wf/Zs/T6/85Z//m9/72te+tpaev/zyrbfe6hz+Z1/t+83f/M3YlLvbnB/+y30H0xd3fOtffPWrv/vwc+mLu/6vB7/21W/8Sf4O4ZvG7x6lo33/7N+MCdbrJUBTx4S/aS8dORX3O08ozn0nTr3XPz8dmkmKym0I0AAN8tVY+QjQAABAZZsiQPdcunQpHe3Zs2dPeq2rG6AHHDx4ML3WFZ6mF3rCl6TXusIbphd6wjdNr3Wlo5n0wrwJ0NQx4W/a6ofXXzpy6ql9L4Y/06Hxys+cLEXlNgRogAb5aqx8BGgAAKCyygGaPgGaOjbb37QUldsQoAEa5Kux8hGgAQCAygTojSJAU4cAvTH8cgQWLV+NlY8ADQAAVCZAbxQBmjoE6I3hlyOwaPlqrHwEaAAAoDIBeqMI0NQhQG8MvxyBRctXY+UjQAMAAJUJ0BtFgKYOAXpj+OUILFq+GisfARoAAKhMgN4oAjR1CNAbwy9HYNHy1Vj5CNAAAEBlAvRGEaCpQ4DeGH45AouWr8bKR4AGAAAqE6A3ytHjpy+v+O8+Fiv8HQt/09KTzSFF5TYEaIAG+WqsfARoAACgMgF6o1y5uvryq8c0aBYn/O0Kf8fC37T0fHNIUbkNARqgQb4aKx8BGgAAqEyA3kBXrq4ePX760ItvGLOICX+7Nlt9DlJUbkOABmiQr8bKR4AGAAAqE6CBmlJUbkOABmiQr8bKR4AGAAAqE6CBmlJUbkOABmiQr8bKR4AGAAAqE6CBmlJUbkOABmiQr8bKR4AGAAAqE6CBmlJUbkOABmiQr8bKR4AGAAAqE6CBmlJUbkOABmiQr8bKR4AGAAAqE6CBmlJUbkOABmiQr8bKR4AGAAAqE6CBmlJUbkOABmiQr8bKR4AGAAAqE6CBmlJUbkOABmiQr8bKR4AGAAAqE6CB+bpx42aYcxeufHDt43Qok6JyGwI0QIN8NVY+AjQAAFCZAA3MxY0bN3/x7oXXj73zo58czefQaydPnD4bXo2npajchgAN0CBfjZWPAA0AAFQmQAPr94t3L8Tc/Pqxd8LjcxeuxE3QJ06fjUn60Gsnw/FwZorKbQjQAA3y1Vj5CNAAAEBlAjSwHjdu3Own5v425yH5OSkqtyFAAzTIV2PlI0ADAACVCdDAesSyHHc3T3Cje4OOcGaKym0I0AAN8tVY+QjQAABAZQI0MLNzF65Mrs/9O29E4fwUldsQoAEa5Kux8hGgAQCAygRoYDY3btz8Ufemz+l5k6H90eFLUlRuQ4AGaJCvxspHgAYAACrbhgH6ytXVo8dPH3rxDdOfcEHCZUkXaAzXbXRKrttt7MTpsz/6ydEPrn2cnjfp3/2536BTVG5jPgF69cPrLx05VT4nTr2XvnImW/GXI7C15Kux8hGgAQCAyrZbgL5ydfXlV49dXvEfXAPCBQmXZUJLdd0aTb1ut7dDr508cfpsfHzuwpXwuHFigO436BSV25hDgD57fuXRJ58fSsyT57mDbz6178X09e1tuV+OwJaTr8bKR4AGAAAq224B+ujx0ypqo3BZwsVJT0a4buNMvm63tx/95OiJXoD+xbsXDr12cvLEk1NUbmMOAfq5g2/OsKP5pXXsg95yvxyBLSdfjZWPAA0AAFS23QL0oRffSI8YMeHiuG4TbM+LEz9+MPyZnhdLUbmNOQTop/a9ePb8SnpSLG6FTk9a2nK/HIEtJ1+NlY8ADQAAVCZA0ydAz2Y7B+jJN4BulKJyG+sK0PHWz48++fxzB9+MQXnq9FN1fBoft7XlfjkCW06+GisfARoAAKhMgKZPgJ7N9rw4H1z7eGsE6KVHnumX5cJ59MnnY4OOT+P7tLXlfjkCW06+GisfARoAAKhMgKZPgJ7N9rw4N27c7H+uYBAehKeTZwM+hPDEqfdmKMhnz6/Ejx8UoIHNLF+NlY8ADQAAVCZA0ydAz2bbXpzXj70TJj7uB+gTp8+Om3jD6BSV2xCgARrkq7HyEaABAIDKBGj6BOjZbOcAfei1k/27cMQGHY7Ep+OkqNzGfAJ0fNyfCZ9JKEADW0K+GisfARoAAKhsCwXoAwcO3HHHHffcc8/y8nI61J6QOoEAPZtte3HiXTjy4lzSoFNUbmM+AfqpfS/m94MOL8XjowRoYEvIV2PlI0ADAACVbZUAvXv37jvuuCP8ee+99z700EPpaHtC6gQC9GzWc3EeeOCBfzooHEmvLcbOnTvv7ErPe+LB8Gp6XubchSs/yu4EHYTHh147eePGzfR8UHg1ReU25hmg4+PJBGhgS8hXY+UjQAMAAJVtiQAd63Pw0EMPxX3Q6YX2xrXCozvvumvn0fQk0zl+/97O/1f9i3t3xAfBG0t33bWUzu483rH3Ynyytc0QoFee3tF43YLw0tLAFx1d6l+0Nf2D4cGo0fM3o/UE6DvvvPPlQXfffXd6bTHmG6CDeCOOvEGPE/dHp6jcxqIC9NnzKzExhwlnrn54vX9cgAY2v3w1Vj4CNAAAUNnmD9CxPh84cGB5eblboTv7oNNr7Y22wr33p9jZs3T04t4d6fFdawm1F6A7ybXJYGzdkmYI0EG4IDuebrib7kiAbqjVI0eOLvUrf3OwXqDPP0sPJvns8/Qg0zZA79y5M252vrsrPu67884706PF7IZ++eWXww8wGprjwfBqel7sxo2brx97J955Y9zG5/454c8UlduY/y044v03wp/hyKNPPv/cwTfjg3imAA1sCflqrHwEaAAAoLJNHqD79Tk8Xl5evueee9ZTn4OGVnhx745eA00tNd/s3NXZB50s7e101aN7O8k11tKVvU8fDSdslwCd1fkx0n7wXoBeGUn8XeHS5W8VL/jAlc9j9MJ9fuKZXY88fmjyTvaLhx5/ZNf33kzbZPvaBug9XbEvxwdBeBBvxxEf3H333eHBDDl4o8TdzYdeO/n6sXdOnD577sKVD659HP4Mx2N6DhN3Saeo3MZiA3R8nO+PFqCBLSFfjZWPAA0AAFS2mQP03Otz0NgKU3d+Yyntxh0J0B29g7Grdv/sFNK9O3fsfWNl7/YJ0MNW9t4/sk95oCwvLd0/eouSzqX7h9GLtnEB+stbFw49sWvX7mdODuflnlu/+Lvdu3Y9cejcyEbptgE6iq05PHjggQfifuTwZ9zyHKt056Qt5caNmydOn+3n5v4ceu1kON7fHJ2ichuLugXHaICOd+EQoIEtIV+NlY8ADQAAVLZpA/Qi6nMw2gpTJ80sPT28ybfTSbMAnY4OEqCH9HZA9/T7/pq1zdHpJh55gB6I0VVcP/nM7l27/vZoU4K+fnL/7nF5WoAecuPGzbj9OfyZDmVSVG5DgAZokK/GykeABgAAKtucAXpB9TkY2wrfWFq7kXHWmkcP3sbmH6Cf7t/eJJzW+FGNEz+EsP4F795k4/HDw5+nd+Hw47t27f7h6eYbHG+tAB3ffPT948H4Iy1UisptzP8WHGHOnl8pCdDx1Rks6JcjQF++GisfARoAAKhsEwboxdXnYLQVjnTP7ocQdrPpmAC9OVLpAhQG6OyO2E1icX6je5E6l6XpcnXEHj34SYP5LukNKv7dbdADW53jxujRKt23tQJ0+C53dqXnPfFg/EkWKkXlNuYToOPj/oSnqx9eDw/Onu/8NYuv9gP0o08+H572k/QMFvHLESCXr8bKR4AGAAAq22wBenl5+Stf+cqC6nMwthXmO6B7GXRsgB4Ko7fL5ujCAD2oaQd09wJmt+AY3P7cu7yDIbv7JkMBuv+4rs5+5/4HEnb3RO/eP/bW0MHWCtDxzUffPx6MP9JCpajcxnwCdLl+gE7PZzL3X44AQ/LVWPkI0AAAQGWbMEDfcccd8cHc63Mw2gpXnt7RiZ6dAL037sbtd+fhAB1D6RvbfQf0oIm34Oh+UTc0988JVy+/F8fEHdAbFKC//PKDV5/qfiDhSnfz8xOHLtxKLzTaWgF6w6Wo3MYGBOh4C471mPsvR4Ah+WqsfARoAACgss0WoOP9N6K51+dgtBWmdhx3QHf3Mu/dmQppP0DHvbq9/bx2QOemB+iutWo/8MmEKUD3LmnTPvSNEe+7EYz54MGcAN1KisptzB6gz55fmSFAnzj13nMH30xPZjX3X44AQ/LVWPkI0AAAQGWbLUAfOHBgd9fy8nI6NFdjW2E/fWY1eWAH9Bo7oHOtAvSOvU93/9+1stw7Plj8OzY2QAcXX/reX33vpbXN2mMJ0K2kqNzG7AF69cPrjz75/HMH32w14UtOzPrZg31z/+UIMCRfjZWPAA0AAFS22QL0ojW0wrV7a3SeHe1tfw7GBuhtvAN6yicQRv/xL7qXNFzJlb33d4/k99kI3lhKR3qXLlzqeN6wjW3QZbZWgH755ZfDN4rfMRcPhlfT84VJUbmN2QN0sPrh9ROn3ms1M3/wYG7L/XIEtpx8NVY+AjQAAFDZZgvQy8vLBwqks9ubrRVuEyUBmlEzB+gYfMODBx54IDwIf4bHMRAvLkCHN7+zKz3viQfDq+n5wqSo3Ma6AvRGmfsvR4Ah+WqsfARoAACgss0WoO+99957pnnooYfS2e0JqRMI0LOZ7eLE3DzO4kKwAF3J3H85AgzJV2PlI0ADAACVbbYAvWhC6gQC9GxcnFZSVG5DgAZokK/GykeABgAAKhOg6ROgZ+PitJKichsCNECDfDVWPgI0AABQmQBNnwA9GxenlRSV2xCgARrkq7HyEaABAIDKBGj6BOjZuDitpKjc81tN0ms9AjRAg3w1Vj4CNAAAUJkATZ8APRsXp5UUlTOpOvekoxkBGqBBvhorHwEaAACoTICmT4CejYvTSorKg1J7bqrPgQAN0CBfjbUaARoAAKgpD9BD/3lSOOmNtgitcAIBejYuTispKo8YV58DARqgQb4aazUCNAAAUNN2C9BHj5++vOK/thqEyxIuTnoywnUbZ/J1Y1SKym0I0AAN8tVYqxGgAQCAmrZbgL5ydfXlV49pqUPCBQmXJVyc9HyE69Zo6nVjVIrKbQjQAA3y1Vir6Qfoi5evpfcCAABYmPCfHtsqQAdXrq4ePX760ItvmP6ECzK1orpuo1Ny3RiSonIbAjRAg3w11mpigL50ZVWABgAAKgj/6RH+A2RbBWhgA6Wo3IYADdAgX421mrDmyzdB/+ri1V9dunr+4hVjjDHGGGOMmeOE/9AI/7mRb38WoIEKUlRuQ4AGaJCvxtpODNCdTdDdBn3h0gdhOiXaGGOMMcYYY+Yx8b8yYn1e5/bnMOm/ggAKpKjchgAN0CBfjbWduPWg06BXVmOGvtSdi5fDAtEYY4wxxhhj1jXpvy+66Tn8R8c6tz+HSf8VBFAgReU2BGiABvlqbIbpNejOWjCVaGOMMcYYY4yZ38T/1gj/0bHO+hwmJSKAAu+0J0ADNMhXY7NNXAUaY4wxxhhjzKJn6D9G2k6qSgAFUlRuQ4AGaJCvxtY5Q0tDY4wxxhhjjJnLDP2nx8yTqlIbB4EtK/1rPKsUldsQoAEa5KsxY4wxxhhjjLmNJ1WlNlLHArag9K/xrFJUbkOABmiQr8aMMcYYY4wx5jaeVJXaSB0L2ILSv8azSlG5DQEaoEG+GjPGGGOMMcaY23hSVWry13/91+nRoNSxgC0o/Ws83m/91m+lR01SVG5DgAZokK/GjDHGGGOMMeY2nlSVRvx1V3oyKHUsYAtK/xqP91td6cmIFJXbEKABGuSrMWOMMcYYY4y5jSdVpUGxPgfp+aDUsYAtKP1rPF4M0EF6PihF5TYEaIAG+WrMGGOMMcYYY27jSVUpk9pzVzo0KHUsYAtK/xqPl/JzVzqUSVG5DQEaoEG+GjPGGGOMMcaY23hSVRqU8rMADbed9K/xeKk92wGdHgEsRr4aM8YYY4wxxpjbeFJVGiFAw20p/Ws83oT6HKSo3IYADdAgX40ZY4wxxhhjzG08qSo1EaDh9pP+NR5vQn0OUlRuQ4AGaJCvxowxxhhjjDHmNp5UldpIHQvYgtK/xrNKUbkNARqgQb4aM8YYY4wxxpjbeFJVaiN1LGALSv8azypF5TYEaIAG+WrMGGOMMcYYY27jSVWpjdSxgC0o/Ws8qxSV2xCgARrkqzFjjDHGGGOMuY0nVSWAAikqtyFAAzTIV2PGGGOMMcYYcxtPqkoABVJULvfOO/9/wJkp754pOgkAAAAASUVORK5CYII=;" parent="1" vertex="1">
          <mxGeometry y="210" width="1920" height="1019" as="geometry" />
        </mxCell>
        <mxCell id="Gz7mONX1Y6kYklGqSFqY-2" value="" style="shape=image;verticalLabelPosition=bottom;labelBackgroundColor=default;verticalAlign=top;aspect=fixed;imageAspect=0;image=data:image/png,iVBORw0KGgoAAAANSUhEUgAAB4AAAABKCAIAAADVFN7NAAAABGdBTUEAALGPC/xhBQAAAAlwSFlzAAAOxAAADsQBlSsOGwAAHwVJREFUeF7t3d9vE1fex/H9n/q39Iar3vTmQUVccYO0ElJlraqIblQhhEpVlRZV6BEqpEIP7C5sV2y3LA0OtkNINjQk1LAEsk1Isk2Jgs5z5syZX2d++MxPx8P7pa+QPR6bM8c+4/HHJ+PfCQAAAAAAAAAAakAADQAAAAAAAACoBQE0AAAAAAAAAKAWBNAAAAAAAAAAgFoQQAMAAAAAAAAAakEADQAAAAAAAACoBQE0AAAAAAAAAKAWBNAAAAAAAAAAgFoQQAMAAAAAAAAAakEADQAAAAAAAACoBQE0AAAAAAAAAKAWBNAAAAAAAAAAgFoQQAMAAAAAAAAAakEADQAAkOq31/tra//uDZYGD5b//o85qkCNvevuzs6vPB7qZxQAAABAswigAQAAkv32en/wYHlx6fH29q5ehPz+/o+57Z29MdbLjVeLS6s//LOvGwQAAACgQQTQAAAAyR6vPl1ceqyvoKixB9BuLS6tMg8aGJfhcNjv92cPGdkk2TDdRGVS2mlDvoX9eG/e/1uQiS65IXJz9IZZowcu3hL/84l498M2lNwQuTl58RpoUw80WYy4YiMuGwE0AABAst5g6dUr5j6XJY/jjSx4LPVy49Xd2XndJgANWlxcXFtb29vb09cPDdkk2TDZPPfqpLTTRn9++dFPT3799Td9fcLJDZGbIzdKX7dAD/z+gpkotaDkRtnjNdCyHmgSI86tXCNuJAJoAACAZIMHOY47keaQBNCyZEt0mwA0ZTgcrq2t6SuHkmyebOSktFNfyfR49emjn57oKy0iN8pyTiI9cPGWGSS1pixnZfIaaGsPNIkRJ6vCedAE0AAAAMnIKytBAA28zfr9/iGcUxwmmycbOSnt1Fcy/XhvvpVzHuVGyU3TVzLRA605D0C85KbZ4DXQ1h5oEiNOluWIs0EADQAAkIy8shIE0MDbbHZ2Vl86xNxTLesrh5hlI1u8r7PcNHrAiJBaVjZ4DbS4B5rEiJNVFQJoAACAZBy7V0J2oxEEj6t4QoHmTUqwOynt1JcytXhfZ7lp9ICRH7WsbPAaaHEPNIkRJ6sqBNAAAADJOHavhOxGIwgeV/GEAs2blGB3UtqpL2Vq8b7OctPoASM/alnZ4DXQ4h5oEiNOVlUaDKBXxflLum6v6mW5vRYrCyL11+ifiZv3xf4bfS3D+qP0BynmuRju6IvJ9sTgrui61Rf7eikAADi8OHavhOxGIwgeV/GEAs2blGB3UtqpL2Vq8b7OctPoASM/alnZ4DXQ4h5oEiNOVlUaDKC7QevPd/WyHPZE9xtxvOPc/eQNvcxw/Yx6/I44+Xl6xr0lvlZnB48/yOBaEJEn17Wk2Pq16F4SRz4UR86Idb0oyTNx0tv8dz/JWnO97+XUSTVQv3u8PzSXR4qAGwCAKnDsXgnZjUYQPK7iCQWaNynB7qS0U1/K1OJ9neWm0QM6eWhp2eA10OIeaBIjTlZVqgygR6SiV4PWn7oauzVUbsZq2hHnp4JHiEfY6zecFFiv0EnJuF+JKRVhJz7I9ZE/W5kUHM9MByukJeMO6wA6uxnufyE31lgeqczHBwAAljh2r4TsRiMIHlfxhALNm5Rgd1LaqS9lavG+znLT6AEzImhX2eA10OIeaBIjTlZVqgygR6Si1pUW4+73xfuh1S6H5ziviOOhmzJmWBs59fVQ2F0sgDb+65nE9FwigAYAYNJw7F4J2Y1GEDyu4gkFmjcpwe6ktFNfytTifZ3lptEDZkTQrrLBa6DFPdAkRpysqhz2AHr3fuQkGJ3T3jpfRpafCk2Ofvd05KaZ+/qhfHc+D1Z2zpvhnTP6vD85+iNxNvQInT96y1OC3aXL3gqy/iiGiSehzh9Ah+eJn/U33AigT4ub/uRxf445ATQAAFXg2L0SshuNIHhcxRMKNG9Sgt1Jaae+lKnF+zrLTaMHdDLQ0rLBa6DFPdAkRpysqlQZQBthsVmfBq0//mns1lCFI+PyoXbCfOodMe1lzUc+EUvujweuiKP+vb5USzyDi97ytGB3L3R6kI64/C+9OCJ/AB2ex+0vNAPo8EP5Z9kmgAYAoAoFj93nPn7nnWNXst6Me3KN2DobVz5wlrqOXd3Qi7XIrdp0T994uMluNILgcRUfxoDmTUqwOynt1JcyHYp93fqVY++883HVDbHctLH2gHq//uCK8S5eFctN08lAS8tGi9/xJ2EUtAcjTlZVDvuPENYSQAux+4M40hFTN4IfFQxPiz7xf3qhKwigO+L2c7G7pWpP3+pyHlDe8ZJYf62XmPIH0OGY/uRHeqEZQIcna/sRPwE0AABVyH3s7kTPrqwAujcdX0d+Xg1ddR8nki/X+4G2VrIbjSB4XMWHMaB5FQS7B9tryysvD/S1Oqj8uc4A+uDlyvLadulNsGxk1fu6Qm9A6xtXnDe7j6v9ptRy08r0wMbVY4nf7zrv3Wq5vBD7kjjg3H3El9ClWG6aTgaqq8GeM/HuQmz5WMpGBaNg9HyCDM5Ug4zXSRkNjAL4xjXictVN+ULb8K7+2ck5h/eDW8tXVaoOoFeDzNQsuxnQt8Nndo4G0Jf9c00YZ5xI+lXDU95NiQG0tP5cX5Dk/xKcGPpDMRNtQxBAh+ps7K0//IAJOAc0AACTJs+xu/p87n00zfrEoiaFKRmfatSjRT63q0nTEzLl2SC70QiCx1V8GAOaVzbYPdheW+h2F9a20ib6VEHlz3UG0K+33K0omUFbNrLqfV3hb0Crz+AsN61MD2ysX1FfApvv0V4AvbFxVd2e2CHBW3xMRV8hW26aGRHkLCdu9vMsf0k0gHYyr1GRdNovZA3+bK6Zq2yUHwXOdwnqWfPmDSRKOZYrFV6P0MAoCM2oGCm0mRmv/xj95xE5/iNN3lF9zZNP4R1R3SPuQjR+dA3uB5NlE6hxFw6dw5fdB7wZ+i/KV1WqDqBD05yLlTE5Opy0DvQyT+aU6vPeTWkBtG/3TiR9PvK5+UwPrwW3+nX9hb410XrfDMS7t0Kn+AifuNmrgbdvJoAGAOCQKHbsnhlA64/xal5Y1icT9SAE0BVXqQ9jAAopFex66XP5ucPZVP5cZwAtVbEtlo2sel83IoDOjOdSFH07s9y00j0QfKns8wJol/OmHDvBSErgrlK5qoJ4y00zI4KclTuAjv3ylpQ8B1OtWTIds1HJa8B91qJPfYjzzOpjuQKR6KEfBabUfvCFOiTcgQ4naPYPaxOHT1ih767qCf2bGXF+JfypQcqQSQug0771KTMnuiqTFECXnAE9vG3OttYnm34jbn/mPdSUGLinhA7bETPnIiH1ux+JpcRzXt/W98gOkRNrZFDuCE0wD6aK74ilu+L2DXH+W7GpFwEAgAoUO3ZXH8WTj4D9v8zNWEeJf9p/OwLo1b99de7cuZm+vqBdndMr9K84Vy/+dTW4y9yMs+jK/WBJRlX+YQzASCWC3e21B72Fh/PdFL35haXHzyuZGa3y5woC6IO9lz8vP5zvz+kmxsw/XOg9WNvWq+dm2ciq93Xxt6QUkYwpSoWw5U8JbblpdeztnTfurE5Qb9MJK6QtL8hy04y0IW8VngHtzL4ML1RnAwjPdzZXKFQ2yr4GQlmqTQAdUU8S6qt7FBQP09Uwt5S1NyjUgaNGaEFNjLj7YnfVueCMqVjWnDZkEgPoxFFZvqpSdQD9ixkEB5WZF/u18ot+JNeIqb4W5Qe78TNpBJnvG3H9jHOK5+tpXxZIe97Zn70TQCe07aJas3AA/Sb0XyTV8E/B+hfka1QtXL8VLPx6IVh5v84/UgMA4G1Q7Ng9NVxWx+XBbJr0Y+uEW0P3nTiyG40gOLWC3NkInb2rfkLtXr1/VV776run+uqoKvxhDEBhZYLd3acPe925h8Ot7Vfb8Xr5bHX5QW/23tzCk82SM6RV/lwygN59vjzo3pvtPVheffbSaKpbW8OHc93ew6dZf1qdzbKRZfZ1ubKn2LtS+sTGjGw6D8tNq2Nvr+KtY2bvuIGXzt0SNjD77b4Ay03zI4JiVTiAlqu5UZqu2OTNcGpWuGyUfA04A8ELnZ0nMUcArb6wqXPGwLhGQWo/ZCpwL6fzc0fJ6TufcpoZcUP5FqJixvjZacwx5VVCAK2Gm/MI/oXoXQpXVd6iHyHMCKAH18T5r8Wpc8H84ozS86YT21YygA6fJ7p02XcyAABIVOzYPeXTZmQGWdI6apKUK36kHptUUsdBdk1kNxpBcGrpADoyx9kInVe/u+it8PSv8oav/rbqrzmqKv8wBmCkksHu7tOHc/d6jzZSE+aDzdX57mzvUakfKVT5c5l2Hrxc7s1251fTk/CDjUe9e3Nl0mfJspFl9nVJ0U/iDGhnYfxrUfnulvhdabHoKs5y04r3QDQoV2/WEYlvvvHVspTrB8tNM8KBvFUwgI7HXnJJdB35OOV/Hs1GuXd8dUjmPVOpr97EANqbvZv9qigzpaD2UaDYvqr9PYOz4fkEnWB333CnlfuqLIdmRlz8lwOd8ZXC/UYnHkDLf/VMavk4Xm6ZGF7nrapUF0CXPvlGuPzwtMJTcGQE0LnyYv9em9+Jo6edeq/j3eoF0AlsfoSQABoAgMOk2LG7OmQ3P5AYCxPX8emj6vTPqO6ngjLH002S3WgEwallTHDWZQTNak70V3+bC5Jo2yr5YQxAAeWCXYfKoAcrW/pqgt21+W7vUYk9osqfi7fz4NnD7uxgNSNb3loZlE6fJctGltnXlQygk2c6q+9QK/ne1HLTCvfAxvqGzt1ib8HqrTlrErdzx+i9bJbkZblpRjiQt4oF0PF7jTwjR7GyUXYUhF4D+iWRzDiWiyTXCdIny9urexS4bF69SbsLk9VrPnG/EWHucCL/tXn38GzolD2VtWZGnCxjsITz5aBUrJwWQOt1ouXclHQK6VxVlUkKoKv6EcL4TcUCaF9w95IB9JaYiU241vV16DcMvTrxWWy1UAUniQYAAIUUO3ZXH1QiH0jcTzLhz97xdQzxu0SpOCDzEQ4P2Y1GEJxaGQF0cFIOfeYNyf7kG26V/DAGoIAywa5vd3vET/dt/dTrPnymr+Sn8ufC7dxe6c/2fsoIyKWD7e2y6bNk2cgy+7qkREm941gG0Cr6MZbbpFSWLDet7N7eybNi77ApkzT9d2qbwM4qjMtkuWlGdJC3nCjZRigvc+KzMHWTszCci4XiszJlo8RrwPuLNO+Zijxr4awzNgNaHd2lHby5R25lXwBSM6PA3ZbRzKHt9V4ms4tiAXRspJg7nNYE0G5AbBjej2TKQ39ydEUjKG9VZZIC6I6RsX4a3HT80+hNl8Rx7yabANo5BYe810Xx/h/EdPRx3Or8Ud/Fuddf9L18lQXQiV47L7Wp0959P3TmXOvLHXHyklh6olcEAADVKnbsrg7Zwx9Iso/FU0JkNUcm44h5VEJ9iMhuNILg1LIMoPWZOgiggQlQItjN45dHve7Sc30lN5U/F23nwdr8bO9R9KeMamLZyDL7utIBdCwMqm76s2S5aRXt7dWGR2W8L8ciM6sleVlump8eVFUjZkCrqc2SG5P5czkTwzVXmXnQNgq/BpwhMN1LfaZiUWnAucmR9GrXr6VKBkIzo8Dm1Zu0uwiHv4mSVqgggDZ5/0X6nspOYyNODjH3dBlu3GwVQHvn2cgSHbbFqio1nwN6R1w+YzZd1ntf6t2Tb3NWnOgkTGSu8BzQvsTJ0bt9pwGJ68utmPZPstERd3b0Yl9lAbT6ncOV+84pRG7fcALxE1PiiH8vVaeuOV23ci26vCOOnnWC8pvq9CNLT9TvEFp+aQkAAFIUO3Z3DppHzU0evQ4BdFD6nBveKTj0GTn+OiOXcgoO4LArHuzm8/PC7MLP+nJuKn8u2s6N5bkS/3Uulo0ss6+rIICOrO+ETWXSH4PlppXe28tmx9+jo8GZfJuO9olNYBdfkpflpgVZQUUVD6DDdVOdfNaPycwzbxilUrNDG0D3pp0kNPWZSgug9WHbFfUiUUNgJHNM2WpmFNi8etMC6JFqCKDDdw8P1Yw9lZXGRpwOoL3T1BgBtB4vSQF0xoToESPRuqpSZwC9KqamQo2eEjP/G1w96791vhY3P/Pi1I64Hv3DqSYC6Bdic0+c/yi4SyQHfyOuhzL0znd6cVhVAfT+D94K8eqIkxfFIPyd/nMx84UZT4dr+ge9IgAAKKbYsbtz0Fw6gB6VL7ufbZI+Ah0+shuNIDi19NTmq8FkZ1nqhBv+ZOfgRwiT0+qsKvlhDEABxYPdXJxpyGMKoH951JudXyvzG4jWLBtZZl/nvvtYSo91VAg1fcV5qyqXtxosN63s3t7Js+Lv0eqd190clTa+88HHvdA66p3dQrkOsdw0IxzIV0kBcUIAHfvZtFwBdJnTCNgo+RrQAaj7RI+kZkyr4RD9liJQNgYNa2YU2L6ekwLo9MNXKWmFpAA62l1mB7Y1gI789YAbQIfPnD4qgJZjMPyrg29LAD28JY76s4ZlTYnBjrPl5/1IuiNmVsX6XT3v2K8j58SmfgzH7v3IqTAilXkKDr9m1FMSFgmgh05KfntL7HbF+95y2bbL/9Irh3+68MiZ5OA4IYB+LQYL+qJmMwN6KE7463h18gsxc0esv1CTmv15zWqutKzNZ+LOVXEqdIYQv66/UGsCAICiih27q0P2fAG0cxgd/kTqHElHPqMaK7ifCjKP7w8R2Y1GEJxa3rk1gvnO7hLjqhc6qzD63JX73t1HVckPYwAKKB7s5nHw9GG3v7Ktr+Wm8ufC7Xy+1O0+fNpEAm3ZyDL7ukiso6ngNWlhVqzjvpFV/VZluWkl9/bOm6y5vQ63c3ry36Tw3bnXqHDZZp1slptmhAP5qqIA+qb8N85bPhkBdJRc+PG0fGEfO/ZB2gyAdgXQ0R6IL0naXTg9MNKoADrejW9LAO1fDQLocMpMAG16Li74gaxX/jTkSM5rVEecvSV23+g1R8v8EcIMfgB94pKYVoH4BRUWr98ITSiWjfledC+FlrgZehIjgHZPJ3L0W3Wbz+4c0Ct3xdnQ6Z7j5fbkiInhp51zcYRzfAAAUECxY3fnAD3/DGjnSDpg3j16q5T2yecwkt1oBMGp5eXLbrKs+XOcdTx9NTQ/Wp2dw/pEHCU/jAEooESwa293dTA7v1b8FIQqfy7ezhf/mpsdrO7qazWybGTV+zonwUkMZFOp9PnY1Q31Zlc2cg2z3LRyPZCeWOlUPXgLDqdg8XiuDpabZkYEuaqiADot9nJuncAAWi5xXhVu1hk7AYunPQF0nN0rPK0HfEkrRBNk/6A31GNmB8YCaFNrAujwuThGBNDqquSPylYH0HvRxDZU4fNgRHJetzpi6obYfK1XcGXNfXbLbga0W+F50H4A7Zf/u4Lh+c6R6ojrcm+aIgigPxPX/dOJGKfjsP4RwuDRksoqgM58fAAAYKnyY/e3k+xGIwhOregE58qLJxRoXplg187By+XebG/5ZYkpyCp/LtHOX39e6JZsghXLRla9r8sTQMciWv8kBpWkb5abVqoHVINjCZrqBC3YunAkZx1Al0rELDfNjAhyVQMBdLlQzEbJURB9NtWz7171o1J5IWFQtCWATop000S3y+mBkbISajUAncf02pDYb7EAOrTPiTwLZXu+iRGnygigdalR5kr4ziYaQDuZ5UYwDGX5Yy2SYuevqlQWQA//JN6Lnkzj3U4QNIcDaKn7ZWi1D8WRT0Q3Fu+WP/tzuMINiAfQ73+jbxJvxJ0vzFtlTd/VtydKjoyNFDh/AH3yyyBA73gn2TAC6PfOBOuc/1K8Z/H4AADAUslPL3DJbjSC4NQigAZap1SwO8rB9ouVB93ZuYdPy00/VvlzqXYebKwMurPdBysvtmtMoS0bWfW+TqVvowJoJ7CT0lbzz6VrGWSnsNy0Mj2gZl+mB+juVb0VkWwrkohlSA64bVlumhsXFKwSAXQgPWJ2HqpEFibLRslREATQKgYNEsxw1qluij6VbQmgk9h9xZLWA76sFdy5z5GO8gagcZe3IoBWI9Fd6CTI0dNrRMrNqdWgCwfQfiWn29ZVlepmQHcj85qPTIvuc/Pn/vafiJvXxKkpZ833T5vzoN87I67fF/veKTjqCqC3RCd604nL3lcKO6L7jThuxOhudUTnG7EUS8ldiQH01F/Evr5dyR9Ah3+P0Z+abQTQ4WA9+C8IoAEAqELlx+5vJ9mNRhCcWgTQQOuUDHbTbK4Mut3Z2Xtz88vPyke+Kn8u3c7X/1lb6DkP1O0OVmo5IaJlI6ve140IoN3o2S7iUQ8lWc0UTmC5aSV6ILSxKl5M2HB3uRY+ZZYTe1kpuvmS5aa5cUHBCv35+EiWM6CdJSFGup23bJQcBW7YqvLQ6FnRzKxTvWCCJ9RIV8MvifC9Sql7FOgvk3JRP8OYWzC4vI5K28/oGDp4Ltyo2tJEBNBy+IQzYjd9jETJoZTZX+gG05I/phKz5sRU2r6qUl0A/Uacd6NbdT4N51TOe2Laa+6RP4j3o8Hu+a5Y/z76Q4VudcTRs2KmX9cpOHZ/iATfp2RTX4mlW2L6jBmIJ1dHnPpcXP9erPg/8edvuFdu+G7KH0BfXvR+eHBL3PbmZRsB9Ilvg3V2F73fMCSABgCgCiU/vcAlu9EIglOLABponQqC3SQHe7vbr/4bmfFTgpMaV9bO/f++2t7dq2UetGUjq97XjQigm2S5aSV6wAnCRsdV3qzMMlFyMZab5sYF9VZsBnRjZaPkKEid7WsG0GNQ/yhojpcjm799kszpfL1mZAZ0Fmf3dZgD6PB3M+7JNNwlaROW3T8g8O+VMAATv0Cq/28ObFR5DujBRXHioljZ0lc3/2I2Olz6ZwO3QidN9urIGbFu81OExX6EcBgEwVPfiTvRk4GE68QlMfNFairtT0/ej079PvFNyu8ocg5oAAAmzUQcux9+shuNIHhcxRMKNK+6YLdGKn+ejHbqS5lavK+z3DR6wIwI2lU2eA20uAeaxIiTVZVKf4TQCF7nvVMSR+vIR6JzUQx+0WtJu6vigj8BOfPn/iKKBdAqvZX/19R36sqOmI7Nwj7+hRj4U5ifi68/NWPo49/qG136/Bgd8XVfL0lAAA0AwKTh2L0SshuNIHhcxRMKNG9Sgt1Jaae+lKnF+zrLTaMHzIigXWWD10CLe6BJjDhZVak0gI65eVY398gfnND55oLY3dM3JfhF3P5GnP1eXxutaAAt3ohu6I1785b3OOpEzyuhZDzwi+jeEKc+0qvd2dGLtTfiwifijn9SjkT5A+izt0T3rq7L5/RCI4A+ejFYp3tLHLV4fAAAYIlj90rIbjSC4HEVTyjQvEkJdielnfpSphbv6yw3jR5w44K2lg1eAy3ugSYx4mRVpd4AWiyICzfESk0ni1oNTvF8O3pK+3zeiDs3xNITfW2EHbH0SF/MZ0vM+Oekvub97GGS9b4OlNdDYf3mI71woKaH7w8jV7U9MXCT6H709w8BAEAhHLtXQnajEQSPq3hCgeZNSrA7Ke3UlzK1eF9nuWn0gJEftaxs8BpocQ80iREnqyo1B9AAAAATi2P3SshuNILgcRVPKNC8SQl2J6Wd+lKmFu/rLDeNHjDyo5aVDV4DLe6BJjHiZFWFABoAACDZ4MGyvoQS5LG7EQSPq/gwBjRvUoLdSWmnvpSpxfs6y02jB4z8qGVlg9dAi3ugSYw4WVUhgAYAAEjWGyy9epVx3ixYkcfuRhA8lnq58eru7LxuE4CmTEqwOynt1JcyEb3RA0Z+1LKywWugxT3QJEacrKoQQAMAACRbW/v34tJjfQVFyWN3IwseSy0ura48Dv96BoAmTEqwOynt1JcyEb3RA0Z+1LKywWugxT3QJEacrKoQQAMAACT77fX+4MHy4tLj7W3mQRcnj92NLLjhernxanFp9Yd/9nWDADSo3+/v7YV+Xf3wkc2TjZyUduormX68N//rr7/pKy0iN0pumr6SiR74n0/MCKk1JTfNBq+BtvZAkxhxsixHnA0CaAAAgFS/vd5/vPq0N1gaPFj++z/mqAI19q67OzvP3GdgXIbD4dramr5yKMnmyUZOSjv1lUzybevRT0/0lRaRGyU3TV/JRA9cvGWmSK0puWk2eA20tQeaxIiTZTnibBBAAwAAAADqsri4uLa2dgjnF8smyYbJ5rlXJ6WdNvrzy49+etKa+Y9yQ+TmyI3S1y3QA7+/YAZJLSi5UfZ4DbSsB5rEiHMr14gbiQAaAAAAAFCj4XDY7/fdUy0fHrJJxpziSWmnjcerT3+8N2/8RciEltwQy3mIYfTAxVvtOTOA3JACMzF5DbSpB5osRlyxEZeNABoAAAAAAAAAUAsCaAAAAAAAAABALQigAQAAAAAAAAC1IIAGAAAAAAAAANSCABoAAAAAAAAAUAsCaAAAAAAAAABALQigAQAAAAAAAAC1IIAGAAAAAAAAANSCABoAAAAAAAAAUAsCaAAAAAAAAABALQigAQAAAAAAAAC1IIAGAAAAAAAAANSCABoAAAAAAAAAUAsCaAAAAAAAAABALQigAQAAAAAAAAC1+N1/NncoiqIoiqIoiqIoiqIoiqIoqvIigKYoiqIoiqIoiqIoiqIoiqJqqM2d/wdiCAhuBk60cgAAAABJRU5ErkJggg==;" parent="1" vertex="1">
          <mxGeometry x="-1" y="138" width="1920" height="74" as="geometry" />
        </mxCell>
        <mxCell id="JS5k13pSmFlWwt60PFX5-1" value="&lt;font size=&quot;1&quot; style=&quot;&quot;&gt;&lt;b style=&quot;font-size: 30px;&quot;&gt;表格可视化&lt;/b&gt;&lt;/font&gt;" style="rounded=0;whiteSpace=wrap;html=1;strokeColor=none;fontColor=#333;" vertex="1" parent="1">
          <mxGeometry x="-1" y="138" width="221" height="72" as="geometry" />
        </mxCell>
      </root>
    </mxGraphModel>
  </diagram>
</mxfile>
